**ABCDEFGHIJKLMNOPQRSTUVWXYZabcdefghijklmnopqrstuvwxyz**************************
**PARASOLID !"#$%&'()*+,-./:;<=>?@[\]^_`{|}~0123456789**************************
**PART1;
MC=AMD64;
MC_MODEL=Intel64 Family 6 Model 60 Stepping 3, GenuineIntel;
MC_ID=unknown;
OS=Windows_NT;
OS_RELEASE=unknown;
FRU=Parasolid Version 31.0, build 282,  2-25-2019;
APPL=SOLIDWORKS 2019-2019115;
SITE=;
USER=unknown;
FORMAT=text;
GUISE=transmit;
KEY=Bottom-Linkage;
FILE=Bottom-Linkage.x_t;
DATE=Tue Nov 12 17:12:49 2019;
**PART2;
SCH=SCH_3100282_31001;
USFLD_SIZE=0;
**PART3;
**END_OF_HEADER*****************************************************************
T51 : TRANSMIT FILE created by modeller version 310028223 SCH_3100282_31001_1300
6215 0 12 34 CCCCCCI4 mesh1006 0 I8 polyline1008 0 CCCCCCCDI5 owner1040 0 CCCCCC
I13 boundary_mesh1006 0 I17 boundary_polyline1008 0 CCCA16 index_map_offset0 0 1
 dA9 index_map82 0 A17 node_id_index_map82 0 A20 schema_embedding_map82 0 A5 chi
ld12 0 A14 lowest_node_id0 0 1 dA16 mesh_offset_data206 0 Z1 5965 2 3 0 0 0 0 0
 0 1e3 1e-8 0 4 0 1 0 1 1 5 6 7 8 0 0 9 10 11 0 0 0 0 0 0 0 81 255 2 2 5911 12 1
 13 0 0 0 0 14 70 11 CI9 list_type0 0 1 uI10 notransmit0 0 1 lCCCDCCDI12 finger_
index0 0 1 dI12 finger_block1012 0 CZ3 0 4 T1 0 0 10 20 1 15 15 13 255 5 183 0 1
 0 16 0 0 17 0 51 255 6 2436 0 18 19 0 0 +.35 .0245 .027 -1 0 0 .003 0 0 1 31 25
5 7 2440 0 20 21 0 0 +.3225 .0245 .027 1 0 0 0 0 -1 .003 29 255 8 1998 0 11 22 0
 .0275 -.0245 .03 19 8 CCCCCCCA5 owner12 0 Z9 61 0 1 17 0 23 V0 16 255 10 2031 0
 ?24 0 25 26 0 0 1 18 255 11 1996 0 27 0 28 8 ?1 17 255 27 0 29 30 31 11 32 33 0
 34 +18 28 1992 0 31 11 35 22 ?1 17 31 0 29 27 36 28 37 38 0 39 +18 35 1988 0 36
 28 40 41 ?1 29 22 1994 0 28 41 8 .0275 .0245 .03 29 41 1990 0 35 42 22 .3225 .0
245 .03 29 42 1987 0 40 43 41 .3225 -.0245 .03 18 40 1985 0 44 35 45 42 ?1 29 43
 1974 0 45 46 42 .3225 .0275 .027 18 45 1972 0 47 40 48 43 ?1 29 46 1971 0 48 49
 43 .3225 .0275 .021 18 48 1969 0 24 45 50 46 ?1 29 49 1956 0 50 51 46 .0275 .02
75 .027 18 50 1954 0 52 48 53 49 ?1 29 51 1953 0 53 54 49 .0275 .0275 .021 18 53
 1951 0 55 50 56 51 ?1 29 54 1931 0 56 57 51 .3225 -.0245 -.018 18 56 1929 0 58
 53 59 54 ?1 29 57 1927 0 59 60 54 .0275 -.0245 -.018 18 59 1925 0 61 56 62 57 ?
1 29 60 1923 0 62 63 57 .0275 .0245 -.018 18 62 1921 0 64 59 65 60 ?1 29 63 1920
 0 65 66 60 .3225 .0245 -.018 18 65 1918 0 67 62 68 63 ?1 29 66 1898 0 68 69 63
 .0275 -.0245 .018 18 68 1896 0 70 65 71 66 ?1 29 69 1894 0 71 72 66 .0275 .0245
 .018 18 71 1892 0 73 68 74 69 ?1 29 72 1890 0 74 75 69 .3225 -.0245 .018 18 74
 1888 0 76 71 77 72 ?1 29 75 1887 0 77 78 72 .3225 .0245 .018 18 77 1885 0 79 74
 80 75 ?1 29 78 1872 0 80 81 75 .0275 .0275 -.021 18 80 1870 0 82 77 83 78 ?1 29
 81 1869 0 83 84 78 .0275 .0275 -.027 18 83 1867 0 85 80 86 81 ?1 29 84 1855 0 8
6 87 81 .2855 -.0275 .021 18 86 1853 0 88 83 89 84 ?1 29 87 1851 0 89 90 84 .274
5 -.0275 .01 18 89 1849 0 91 86 92 87 ?1 29 90 1847 0 92 93 87 .2745 -.0275 -.01
 18 92 1845 0 94 89 95 90 ?1 29 93 1843 0 95 96 90 .2855 -.0275 -.021 18 95 1841
 0 97 92 98 93 ?1 29 96 1834 0 98 99 93 .0645 -.0275 -.021 18 98 1832 0 100 95 1
01 96 ?1 29 99 1830 0 101 102 96 .0755 -.0275 -.01 18 101 1828 0 103 98 104 99 ?
1 29 102 1826 0 104 105 99 .0755 -.0275 .01 18 104 1824 0 106 101 107 102 ?1 29
 105 1822 0 107 108 102 .0645 -.0275 .021 18 107 1820 0 109 104 110 105 ?1 29 10
8 1814 0 110 111 105 .3225 -.0275 .027 18 110 1812 0 112 107 113 108 ?1 29 111 1
811 0 113 114 108 .3225 -.0275 .021 18 113 1809 0 115 110 116 111 ?1 29 114 1808
 0 116 117 111 .0275 -.0275 -.021 18 116 1806 0 118 113 119 114 ?1 29 117 1805 0
 119 120 114 .0275 -.0275 -.027 18 119 1803 0 121 116 122 117 ?1 29 120 1802 0 1
22 123 117 .0275 -.0275 .027 18 122 1800 0 124 119 125 120 ?1 29 123 1799 0 125
 126 120 .0275 -.0275 .021 18 125 1797 0 127 122 128 123 ?1 29 126 1790 0 128 12
9 123 .3225 -.0245 -.03 18 128 1788 0 130 125 131 126 ?1 29 129 1786 0 131 132 1
26 .0275 -.0245 -.03 18 131 1784 0 133 128 134 129 ?1 29 132 1782 0 134 135 129
 .3225 .0245 -.03 18 134 1780 0 136 131 137 132 ?1 29 135 1779 0 137 138 132 .02
75 .0245 -.03 18 137 1777 0 139 134 140 135 ?1 29 138 1764 0 140 141 135 .3225 .
0275 -.021 18 140 1762 0 142 137 143 138 ?1 29 141 1761 0 143 144 138 .3225 .027
5 -.027 18 143 1759 0 145 140 146 141 ?1 29 144 1758 0 146 147 141 .3225 -.0275
 -.021 18 146 1756 0 148 143 149 144 ?1 29 147 1755 0 149 150 144 .3225 -.0275 -
.027 18 149 1753 0 151 146 152 147 ?1 29 150 1742 0 152 153 147 .0725 -.0185 .01
 18 152 1740 0 154 149 155 150 ?1 29 153 1739 0 155 156 150 .0725 -.0245 .01 18
 155 1737 0 157 152 158 153 ?1 29 156 1736 0 158 159 153 .0645 -.0245 .018 18 15
8 1734 0 160 155 161 156 ?1 29 159 1723 0 161 162 156 .0645 -.0245 -.018 18 161
 1721 0 163 158 164 159 ?1 29 162 1720 0 164 165 159 .0725 -.0245 -.01 18 164 17
18 0 166 161 167 162 ?1 29 165 1717 0 167 168 162 .0725 -.0185 -.01 18 167 1715
 0 169 164 170 165 ?1 29 168 1704 0 170 171 165 .2745 -.0155 .01 18 170 1702 0 1
72 167 173 168 ?1 29 171 1701 0 173 174 168 .0755 -.0155 .01 18 173 1699 0 175 1
70 176 171 ?1 29 174 1688 0 176 177 171 .2775 -.0245 .01 18 176 1686 0 178 173 1
79 174 ?1 29 177 1685 0 179 180 174 .2775 -.0185 .01 18 179 1683 0 181 176 182 1
77 ?1 29 180 1682 0 182 183 177 .2855 -.0245 .018 18 182 1680 0 184 179 185 180
 ?1 29 183 1669 0 185 186 180 .0755 -.0155 -.01 18 185 1667 0 187 182 188 183 ?1
 29 186 1666 0 188 189 183 .2745 -.0155 -.01 18 188 1664 0 190 185 191 186 ?1 29
 189 1653 0 191 192 186 .2855 -.0245 -.018 18 191 1651 0 193 188 194 189 ?1 29 1
92 1650 0 194 195 189 .2775 -.0185 -.01 18 194 1648 0 196 191 197 192 ?1 29 195
 1647 0 197 198 192 .2775 -.0245 -.01 18 197 1645 0 199 194 200 195 ?1 29 198 14
32 0 200 201 195 .2855 -.0075 -.018 18 200 1430 0 202 197 203 198 ?1 29 201 1429
 0 203 204 198 .0645 -.0075 -.018 18 203 1427 0 205 200 206 201 ?1 29 204 1411 0
 206 207 201 .0645 -.0075 .018 18 206 1409 0 208 203 209 204 ?1 29 207 1408 0 20
9 0 204 .2855 -.0075 .018 18 209 1406 0 210 206 0 207 ?1 17 210 0 211 212 213 20
9 214 215 0 216 +15 255 211 1512 0 213 217 0 17 212 0 211 178 210 182 216 218 0
 0 -17 213 0 211 210 178 179 219 220 0 214 -17 214 0 221 222 223 179 210 215 0 2
24 -16 215 1694 0 ?210 225 226 227 0 0 1 17 216 0 228 229 230 209 212 218 0 231
 +15 228 1407 0 76 232 233 17 229 0 228 234 216 206 231 235 0 236 +17 230 0 228
 216 76 182 237 238 0 212 +16 218 1681 0 ?216 239 240 241 0 0 1 17 231 0 242 172
 208 209 229 235 0 223 -15 242 1510 0 231 243 0 17 172 0 242 244 231 170 223 245
 0 246 +17 208 0 242 231 244 206 247 225 0 229 +16 235 1410 0 ?229 240 220 248 0
 0 1 17 223 0 221 214 222 209 172 245 0 0 -15 221 2089 0 223 249 0 17 222 0 221
 223 214 170 224 250 0 251 -16 245 1710 0 ?172 252 225 253 0 0 1 16 252 1724 0 ?
166 254 245 255 0 0 1 16 225 1705 0 ?208 245 215 256 0 0 1 32 255 253 1712 0 245
 256 255 0 +.2855 -.0075 .01 .588171697675046 -.808736084303189 -130505439191655
6e-31 .808736084303189 .588171697675046 637697032413772e-31 .01360147050873544 .
008 32 256 1707 0 225 227 253 0 +.0645 -.0075 .01 -.588171697675046 -.8087360843
03188 -1305054391916556e-31 .808736084303188 -.588171697675046 -1275394064827544
e-31 .01360147050873544 .008 31 255 1726 0 252 253 257 0 -.0645 -.0245 -.01 0 1
 578241158658936e-31 0 -578241158658936e-31 1 .008 32 257 1731 0 254 255 258 0 -
.0645 -.0075 -.01 -.808736084303188 -.588171697675046 0 .588171697675046 -.80873
6084303189 0 .01360147050873544 .008 16 254 1729 0 ?205 259 252 257 0 0 1 31 258
 1745 0 259 257 260 0 -.0645 -.0245 .01 0 1 578241158658936e-31 0 -5782411586589
36e-31 1 .008 16 259 1743 0 ?160 261 254 258 0 0 1 32 260 1750 0 261 258 262 0 -
.0645 -.0075 .01 -.808736084303188 -.588171697675046 -949130466848406e-31 .58817
1697675046 -.808736084303188 -1275394064827544e-31 .01360147050873544 .008 16 26
1 1748 0 ?154 263 259 260 0 0 1 31 262 1767 0 263 260 264 0 +.3225 -346944695195
3615e-33 -.021 0 0 -1 -1 0 0 .0275 16 263 1765 0 ?148 265 261 262 0 0 1 31 264 1
773 0 265 262 266 0 +.3225 -3469446951953615e-33 -.027 0 0 1 1 0 0 .0275 16 265
 1771 0 ?267 268 263 264 0 0 1 30 255 266 1783 0 268 264 269 0 -.35 .0245 -.03 -
1 0 0 16 268 1781 0 ?136 270 265 266 0 0 1 31 269 1787 0 270 266 271 0 -.0275 0
 -.03 0 0 1 1 0 0 .0245 16 270 1785 0 ?139 272 268 269 0 0 1 30 271 1791 0 272 2
69 273 0 +.35 -.0245 -.03 -1 0 0 16 272 1789 0 ?133 274 270 271 0 0 1 31 273 179
4 0 274 271 275 0 -.3225 -3469446951953615e-33 -.03 0 0 1 1 0 0 .0245 16 274 179
2 0 ?276 277 272 273 0 0 1 30 275 1817 0 277 273 278 0 +.35 -.0275 .027 -1 0 0 1
6 277 1815 0 ?279 280 274 275 0 0 1 30 278 1823 0 280 275 281 0 +.35 -.0275 .021
 1 0 0 16 280 1821 0 ?109 282 277 278 0 0 1 31 281 1827 0 282 278 283 0 +.0645 -
.0275 .01 0 1 578241158658936e-31 0 -578241158658936e-31 1 .011 16 282 1825 0 ?1
06 284 280 281 0 0 1 30 283 1831 0 284 281 285 0 -.0755 -.0275 -.01 0 -578241158
658936e-31 1 16 284 1829 0 ?103 286 282 283 0 0 1 31 285 1835 0 286 283 287 0 +.
0645 -.0275 -.01 0 1 578241158658936e-31 0 -578241158658936e-31 1 .011 16 286 18
33 0 ?100 288 284 285 0 0 1 30 287 1838 0 288 285 289 0 -.35 -.0275 -.021 1 0 0
 16 288 1836 0 ?118 290 286 287 0 0 1 30 289 1844 0 290 287 291 0 -.35 -.0275 -.
021 1 0 0 16 290 1842 0 ?97 292 288 289 0 0 1 31 291 1848 0 292 289 293 0 +.2855
 -.0275 -.01 0 1 578241158658936e-31 0 -578241158658936e-31 1 .011 16 292 1846 0
 ?94 294 290 291 0 0 1 30 293 1852 0 294 291 295 0 +.2745 -.0275 -.03 0 -5782411
58658936e-31 1 16 294 1850 0 ?91 296 292 293 0 0 1 31 295 1856 0 296 293 297 0 +
.2855 -.0275 .01 0 1 578241158658936e-31 0 -578241158658936e-31 1 .011 16 296 18
54 0 ?88 298 294 295 0 0 1 30 297 1859 0 298 295 299 0 +.35 -.0275 .021 1 0 0 16
 298 1857 0 ?300 301 296 297 0 0 1 30 299 1864 0 301 297 302 0 -.35 -.0275 -.027
 -1 0 0 16 301 1862 0 ?151 303 298 299 0 0 1 31 302 1875 0 303 299 304 0 +.0275
 0 -.021 0 0 -1 -1 0 0 .0275 16 303 1873 0 ?82 305 301 302 0 0 1 31 304 1881 0 3
05 302 306 0 +.0275 0 -.027 0 0 1 1 0 0 .0275 16 305 1879 0 ?121 307 303 304 0 0
 1 31 306 1891 0 307 304 308 0 -.3225 -298533807493683e-32 .018 0 -1613696256722
61e-30 1 0 -1 -161369625672261e-30 .0245 16 307 1889 0 ?76 309 305 306 0 0 1 30
 308 1895 0 309 306 310 0 -.35 .0245 .018 -1 0 0 16 309 1893 0 ?79 311 307 308 0
 0 1 31 310 1899 0 311 308 312 0 -.0275 484108877016783e-33 .018 0 -161369625672
261e-30 1 0 -1 -161369625672261e-30 .0245 16 311 1897 0 ?73 313 309 310 0 0 1 30
 312 1901 0 313 310 314 0 -.35 -.0245 .018 1 0 0 16 313 1900 0 ?70 238 311 312 0
 0 1 30 314 1904 0 238 312 315 0 -.35 -.0245 .018 1 0 0 16 238 1902 0 ?230 316 3
13 314 0 0 1 30 315 1910 0 316 314 317 0 +.2775 -.0185 -.0867706841938344 0 9637
3526443156e-30 1 16 316 1908 0 ?181 318 238 315 0 0 1 30 317 1915 0 318 315 319
 0 -.2775 -.0245 -.0867706841938344 0 -578241158658936e-31 1 16 318 1913 0 ?199
 320 316 317 0 0 1 30 319 1924 0 320 317 321 0 +.35 .0245 -.018 -1 0 0 16 320 19
22 0 ?64 322 318 319 0 0 1 31 321 1928 0 322 319 323 0 -.0275 0 -.018 0 0 -1 -1
 0 0 .0245 16 322 1926 0 ?61 324 320 321 0 0 1 31 323 1932 0 324 321 325 0 -.322
5 -3469446951953615e-33 -.018 0 0 -1 -1 0 0 .0245 16 324 1930 0 ?67 326 322 323
 0 0 1 30 325 1934 0 326 323 327 0 +.35 -.0245 -.018 1 0 0 16 326 1933 0 ?58 328
 324 325 0 0 1 30 327 1937 0 328 325 329 0 +.35 -.0245 -.018 1 0 0 16 328 1935 0
 ?163 330 326 327 0 0 1 30 329 1943 0 330 327 331 0 -.0725 -.0185 -.01 0 9637352
6443156e-30 1 16 330 1941 0 ?169 332 328 329 0 0 1 30 331 1948 0 332 329 333 0 +
.0725 -.0245 .01 0 -578241158658936e-31 1 16 332 1946 0 ?157 334 330 331 0 0 1 3
1 333 1959 0 334 331 335 0 +.0275 0 .027 0 0 -1 -1 0 0 .0275 16 334 1957 0 ?52 3
36 332 333 0 0 1 31 335 1965 0 336 333 337 0 +.0275 0 .021 0 -161369625672261e-3
0 1 0 -1 -161369625672261e-30 .0275 16 336 1963 0 ?127 338 334 335 0 0 1 30 337
 1977 0 338 335 339 0 -.35 .0275 .027 -1 0 0 16 338 1975 0 ?47 340 336 337 0 0 1
 30 339 1982 0 340 337 341 0 +.35 .0275 .021 -1 0 0 16 340 1980 0 ?55 342 338 33
9 0 0 1 31 341 1991 0 342 339 343 0 -.3225 -3469446951953615e-33 .03 0 0 -1 -1 0
 0 .0245 16 342 1989 0 ?36 38 340 341 0 0 1 30 343 1995 0 38 341 344 0 +.35 .024
5 .03 -1 0 0 16 38 1993 0 ?31 33 342 343 0 0 1 31 344 1999 0 33 343 345 0 -.0275
 0 .03 0 0 -1 -1 0 0 .0245 16 33 1997 0 ?27 346 38 344 0 0 1 30 345 2002 0 346 3
44 347 0 -.35 -.0245 .03 -1 0 0 16 346 2000 0 ?30 348 33 345 0 0 1 30 347 2007 0
 348 345 349 0 +.0755 -.0155 .01 0 96373526443156e-30 1 16 348 2005 0 ?175 350 3
46 347 0 0 1 30 349 2012 0 350 347 351 0 -.2745 -.0155 .018 0 96373526443156e-30
 1 16 350 2010 0 ?190 352 348 349 0 0 1 30 351 2017 0 352 349 353 0 -.35 .0275 -
.021 -1 0 0 16 352 2015 0 ?142 354 350 351 0 0 1 30 353 2022 0 354 351 355 0 +.3
5 .0275 -.027 -1 0 0 16 354 2020 0 ?85 25 352 353 0 0 1 31 355 2027 0 25 353 26
 0 +.3225 -3469446951953615e-33 .027 0 0 -1 -1 0 0 .0275 16 25 2025 0 ?112 10 35
4 355 0 0 1 31 26 2033 0 10 355 356 0 +.3225 -3469446951953615e-33 .021 0 -16136
9625672261e-30 1 0 -1 -161369625672261e-30 .0275 31 356 2116 0 357 26 358 0 +.27
45 -.0185 -.01 0 0 -1 -1 0 0 .003 16 357 2103 0 ?196 250 359 356 0 0 1 32 358 21
15 0 1 356 360 361 +.2855 -.0075 -.01 -.707106781186548 .707106781186548 0 .7071
06781186548 .707106781186548 0 .01555634918610405 .011 31 360 2114 0 250 358 362
 0 +.2745 -.0185 .01 578241158658935e-30 0 -1 -1 0 -578241158658935e-30 .003 141
 255 361 363 361 361 358 56 255 363 2112 0 364 365 366 0 +R367 368 358 .003 .003
 1 1 0 0 369 370 14 255 364 2092 371 ?372 373 374 5 363 +0 0 372 373 23 51 365 1
576 0 375 368 363 376 +.0645 .0275 -.01 0 -1 0 .008 0 0 -1 51 366 2111 0 373 363
 377 0 +.2745 -.0185 -.0867706841938344 0 96373526443156e-30 1 .003 0 -1 9637352
6443156e-30 51 367 1578 0 378 379 368 380 +.2855 -.0155 -.01 0 1 0 .008 0 0 1 51
 368 1577 0 381 367 365 382 +.35 -.0075 -.01 1 0 0 .008 0 0 -1 41 3 CI8 term_use
0 0 1 cCZ1 369 T?.2855 -.0075 -.021 41 1 370 T?.2855 -.0075 .001 14 381 1552 383
 ?378 375 384 5 368 -0 0 378 375 23 141 382 363 385 385 368 141 385 386 382 382
 368 56 386 2151 0 387 377 388 0 +R368 365 389 .003 .003 1 1 0 0 390 391 14 387
 2131 392 ?393 394 395 5 386 +0 0 393 394 23 56 377 2110 0 249 366 386 0 +R396 3
97 362 .003 .003 1 1 0 0 398 399 51 388 2150 0 394 386 400 0 +.0755 -.0185 .018
 0 -96373526443156e-30 -1 .003 0 1 -96373526443156e-30 32 389 2154 0 1 401 402 4
03 -.0645 -.0075 -.01 .707106781186548 .707106781186548 0 .707106781186548 -.707
106781186548 0 .01555634918610405 .011 41 1 390 T?.0645 -.0075 -.021 41 1 391 T?
.0645 -.0075 .001 31 401 2155 0 404 362 389 0 +.0755 -.0185 -.01 0 1156482317317
872e-30 -1 0 1 1156482317317872e-30 .003 31 402 2153 0 359 389 405 0 +.0755 -.01
85 .01 -115648231731787e-29 520417042793042e-29 -1 0 1 520417042793042e-29 .003
 141 403 386 403 403 389 16 359 2138 0 ?406 357 404 402 0 0 1 32 405 2152 0 1 40
2 407 408 -.0645 -.0075 .01 .707106781186548 .707106781186548 1141055565903906e-
31 .707106781186548 -.707106781186548 -1141055565903906e-31 .01555634918610405 .
011 31 407 2205 0 409 405 410 0 +.3225 .0245 -.027 1 0 0 0 0 -1 .003 141 408 400
 408 408 405 56 400 2149 0 372 388 411 0 +R397 379 405 .003 .003 1 1 0 0 412 413
 14 372 2127 414 ?394 364 415 5 400 +0 0 394 364 23 54 255 411 2201 0 416 400 41
7 0 +.3225 -3469446951953615e-33 -.027 0 0 1 .0245 .003 1 0 0 51 397 1534 0 243
 396 379 418 +.35 -.0075 .01 1 0 0 .008 0 0 -1 51 379 1533 0 419 397 367 420 +.0
645 .0275 .01 0 -1 -161369625672261e-30 .008 0 161369625672261e-30 -1 41 1 412 T
?.0645 -.0075 -.001000000000000012 41 1 413 T?.0645 -.0075 .021 14 419 1507 421
 ?243 422 423 5 379 -0 0 243 422 23 141 420 400 420 420 379 81 1 421 5916 424 41
9 425 0 414 426 427 14 243 1509 426 ?217 419 242 5 397 -0 0 217 419 23 14 422 12
17 428 ?419 429 430 5 431 +0 0 419 429 23 15 423 1508 0 236 419 0 13 23 62 0 0 0
 0 0 0 9 16 14 16 1174 432 ?433 0 434 5 435 -0 0 433 0 23 81 1 432 5919 424 16 4
36 0 428 437 438 14 433 1118 437 ?439 16 440 5 441 +442 442 439 16 23 15 434 117
2 0 246 16 0 50 255 435 169 0 16 443 444 0 +.35 -.0155 .018 0 -1 96373526443156e
-30 0 -96373526443156e-30 -1 50 443 168 0 232 445 435 0 +.35 .0275 .018 0 -16136
9625672261e-30 1 0 -1 -161369625672261e-30 50 444 170 0 446 435 447 0 +.35 -.015
5 -.018 0 0 -1 -1 0 0 14 446 671 448 ?232 449 450 5 444 -0 0 232 449 23 50 447 1
71 0 451 444 452 0 +.35 .0275 -.018 0 -1 -578241158658936e-30 0 578241158658936e
-30 -1 14 451 617 453 ?454 455 456 5 447 -0 0 454 455 23 50 452 172 0 449 447 45
7 0 +.35 -.0275 -.03 0 0 1 1 0 0 14 449 692 458 ?446 459 460 5 452 -0 0 446 459
 23 50 457 173 0 455 452 461 0 +.35 -.0275 -.03 0 1 578241158658936e-31 0 -57824
1158658936e-31 1 14 455 628 462 ?451 232 463 5 457 -0 0 451 232 23 50 461 174 0
 459 457 396 0 +.35 -.0275 .03 0 0 -1 -1 0 0 14 459 714 464 ?449 439 29 5 461 -0
 0 449 439 23 51 396 1535 0 217 461 397 465 +.2855 .0275 .01 0 1 161369625672261
e-30 .008 0 -161369625672261e-30 1 14 217 1511 466 ?375 243 211 5 396 -0 0 375 2
43 23 141 465 377 465 465 396 81 1 466 5926 424 217 467 0 464 468 469 14 375 155
0 468 ?381 217 470 5 365 -0 0 381 217 23 81 1 468 5927 424 375 471 0 466 472 473
 15 470 1551 0 474 375 0 17 474 0 470 205 166 167 475 476 0 477 -17 205 0 470 47
8 474 203 477 254 0 479 +17 166 0 470 474 478 164 480 252 0 475 +17 475 0 430 15
7 169 164 474 476 0 481 +16 476 1716 0 ?475 482 483 484 0 0 1 17 477 0 395 187 4
85 167 205 254 0 486 -15 395 2132 0 485 387 0 17 187 0 395 485 477 185 486 404 0
 487 +17 485 0 395 477 187 203 488 489 0 0 -17 486 0 490 491 487 167 187 404 0 0
 -15 490 2130 0 406 394 0 17 491 0 490 406 486 152 169 330 0 0 -17 487 0 490 486
 406 185 175 348 0 488 -16 404 2142 0 ?187 359 492 401 0 0 1 16 492 2181 0 ?493
 404 494 495 0 0 1 17 493 0 496 497 498 131 499 492 0 0 +16 494 2184 0 ?500 492
 501 502 0 0 1 31 495 2202 0 492 502 503 0 +.0275 -.0245 -.027 1 0 0 0 0 -1 .003
 31 502 2203 0 494 410 495 0 +.0275 .0245 -.027 1 0 0 0 0 -1 .003 31 503 2366 0
 504 495 505 0 +.3225 -.0245 .021 -1 0 0 0 0 1 .003 16 504 2302 0 ?115 506 20 50
3 0 0 1 31 505 2365 0 506 503 507 0 +.2855 -.0245 .021 1 0 0 0 0 -1 .003 16 506
 2300 0 ?184 508 504 505 0 0 1 31 507 2364 0 508 505 509 0 +.3225 .0245 .021 1 0
 0 0 0 -1 .003 16 508 2297 0 ?510 511 506 507 0 0 1 31 509 2363 0 511 507 512 0
 +.2745 -.0245 .01 0 0 1 1 0 0 .003 16 511 2294 0 ?513 514 508 509 0 0 1 31 512
 2362 0 514 509 515 0 +.0275 .0245 .021 1 0 0 0 0 -1 .003 16 514 2291 0 ?516 517
 511 512 0 0 1 31 515 2361 0 517 512 518 0 +.2745 -.0245 -.01 0 0 1 1 0 0 .003 1
6 517 2288 0 ?519 520 514 515 0 0 1 31 518 2360 0 520 515 521 0 +.0275 -.0245 .0
21 -1 0 0 0 0 1 .003 16 520 2285 0 ?522 523 517 518 0 0 1 31 521 2359 0 523 518
 524 0 +.2855 -.0245 -.021 -1 0 0 0 0 1 .003 16 523 2282 0 ?525 526 520 521 0 0
 1 31 524 2358 0 526 521 527 0 +.0645 -.0245 .021 -1 0 0 0 0 1 .003 16 526 2279
 0 ?528 529 523 524 0 0 1 31 527 2357 0 529 524 530 0 +.3225 -.0245 -.021 -1 0 0
 0 0 1 .003 16 529 2276 0 ?531 532 526 527 0 0 1 31 530 2356 0 532 527 533 0 +.0
755 -.0245 .01 0 0 1 1 0 0 .003 16 532 2273 0 ?534 535 529 530 0 0 1 31 533 2355
 0 535 530 536 0 +.3225 .0245 -.021 1 0 0 0 0 -1 .003 16 535 2270 0 ?537 538 532
 533 0 0 1 31 536 2354 0 538 533 539 0 +.0755 -.0245 -.01 0 0 1 1 0 0 .003 16 53
8 2267 0 ?540 541 535 536 0 0 1 31 539 2353 0 541 536 542 0 +.0275 .0245 -.021 1
 0 0 0 0 -1 .003 16 541 2264 0 ?543 544 538 539 0 0 1 31 542 2352 0 544 539 545
 0 +.0645 -.0245 -.021 1 0 0 0 0 -1 .003 16 544 2261 0 ?546 547 541 542 0 0 1 31
 545 2351 0 547 542 548 0 +.0275 -.0245 -.021 -1 0 0 0 0 1 .003 16 547 2258 0 ?5
49 409 544 545 0 0 1 31 548 2443 0 550 545 551 0 +.0275 -.0245 .027 1 0 0 0 0 -1
 .003 16 550 2427 0 ?124 552 0 548 0 0 1 31 551 2442 0 552 548 21 0 +.3225 -.024
5 .027 -1 0 0 0 0 1 .003 16 552 2425 0 ?44 553 550 551 0 0 1 31 21 2441 0 553 55
1 7 0 +.0275 .0245 .027 -1 0 0 0 0 1 .003 16 553 2422 0 ?554 20 552 21 0 0 1 17
 554 0 555 556 32 50 39 553 0 0 +16 20 2419 0 ?557 504 553 7 0 0 1 17 557 0 558
 559 560 35 561 20 0 0 +15 558 2409 0 557 562 0 17 559 0 558 563 557 40 36 342 0
 30 -17 560 0 558 557 563 45 112 25 0 0 -17 561 0 564 565 37 45 557 20 0 560 -15
 564 2407 0 39 18 0 17 565 0 564 39 561 50 47 338 0 554 -17 37 0 564 561 39 35 3
1 38 0 557 -17 39 0 564 37 565 28 554 553 0 32 -17 32 0 555 554 566 28 27 33 0 0
 -15 555 2411 0 554 567 0 17 566 0 555 32 556 11 124 550 0 0 -17 556 0 555 566 5
54 122 52 334 0 279 -17 124 0 568 569 34 122 566 550 0 556 +15 568 2413 0 44 570
 0 17 569 0 568 44 124 110 279 277 0 0 -17 34 0 568 124 44 11 30 346 0 566 -17 4
4 0 568 34 569 40 563 552 0 559 +17 30 0 29 36 27 40 34 346 0 0 +15 29 1986 0 27
 459 571 17 36 0 29 31 30 35 559 342 0 37 +15 571 717 0 572 459 573 17 572 0 571
 572 572 0 574 575 0 0 -15 573 701 0 576 459 0 17 576 0 573 576 576 0 577 578 0
 0 -17 577 0 579 577 577 0 576 578 0 0 +16 578 914 0 ?577 580 581 582 0 0 1 16 5
80 909 0 ?583 575 578 584 0 0 1 16 581 1760 0 ?585 578 250 586 0 0 1 31 582 977
 0 578 586 584 0 +.3225 -3469446951953615e-33 .03 0 0 1 1 0 0 .01 30 586 980 0 5
81 587 582 0 +.3225 .0275 -.03 0 0 1 31 584 976 0 580 582 588 0 +.3225 -34694469
51953615e-33 -.03 0 0 1 1 0 0 .01 31 588 963 0 589 584 590 0 +.3225 -34694469519
53615e-33 -.018 0 0 -1 -1 0 0 .01 16 589 912 0 ?591 592 593 588 0 0 1 31 590 962
 0 594 588 595 0 +.0275 0 -.018 0 0 -1 -1 0 0 .01 16 594 726 0 ?596 597 592 590
 0 0 1 30 595 552 0 598 590 599 0 +.0275 .0275 -.03 0 0 1 16 598 1952 0 ?600 601
 602 595 601 601 1 30 599 543 0 597 595 603 0 +.3225 -.0275 -.03 0 0 1 16 597 18
10 0 ?604 602 594 599 602 602 1 30 603 605 0 605 599 606 0 +.3225 .0275 -.03 0 0
 1 16 605 1970 0 ?607 608 601 603 0 0 1 31 606 636 0 593 603 609 0 +.3225 -34694
46951953615e-33 .018 0 -161369625672261e-30 1 0 -1 -161369625672261e-30 .01 16 5
93 913 0 ?610 589 611 606 0 0 1 31 609 650 0 592 606 612 0 +.0275 0 .018 0 -1613
69625672261e-30 1 0 -1 -161369625672261e-30 .01 16 592 727 0 ?613 594 589 609 0
 0 1 30 612 1392 0 608 609 614 0 -.2775 -.0155 -.01 0 -1 0 16 608 1646 0 ?615 22
0 605 612 0 0 1 30 614 1397 0 220 612 248 0 +.2775 -.0275 .01 0 -1 -161369625672
261e-30 16 220 1684 0 ?219 235 608 614 0 0 1 30 248 1412 0 235 614 616 0 +.0725
 -.0075 .018 -1 0 0 30 616 1414 0 240 248 241 0 +.0645 .0275 .018 0 -1 -16136962
5672261e-30 16 240 1413 0 ?234 218 235 616 0 0 1 30 241 1417 0 218 616 617 0 -.2
855 -.0155 .018 0 -1 -161369625672261e-30 30 617 1433 0 239 241 618 0 -.2775 -.0
075 -.018 -1 0 0 16 239 1431 0 ?619 620 218 617 0 0 1 30 618 1435 0 620 617 621
 0 -.0645 -.0155 -.018 0 -1 0 16 620 1722 0 ?479 483 239 618 0 0 1 30 621 1438 0
 483 618 484 0 +.2855 -.0275 -.018 0 -1 0 16 483 1436 0 ?622 476 620 621 0 0 1 3
0 484 1456 0 476 621 623 0 +.0725 .0275 -.01 0 -1 0 30 623 1461 0 482 484 624 0
 -.0725 .0275 .01 0 -1 -161369625672261e-30 16 482 1738 0 ?625 626 476 623 0 0 1
 30 624 1466 0 626 623 627 0 +.0725 -.0155 -.01 -1 0 0 16 626 1665 0 ?628 629 48
2 624 0 0 1 30 627 1471 0 629 624 630 0 -.2775 -.0155 .01 -1 0 0 16 629 1700 0 ?
246 631 626 627 0 0 1 31 630 1656 0 631 627 632 0 -.2855 -.0245 -.01 0 1 5782411
58658936e-31 0 -578241158658936e-31 1 .008 16 631 1654 0 ?193 633 629 630 0 0 1
 32 632 1661 0 633 630 634 0 -.2855 -.0075 -.01 .808736084303188 -.5881716976750
47 0 .588171697675047 .808736084303188 0 .01360147050873544 .008 16 633 1659 0 ?
635 489 631 632 0 0 1 32 634 1672 0 489 632 636 0 +.0645 -.0075 -.01 -.588171697
675046 -.808736084303188 0 .808736084303188 -.588171697675046 0 .013601470508735
44 .008 16 489 1670 0 ?488 637 633 634 0 0 1 32 636 1677 0 637 634 638 0 +.2855
 -.0075 -.01 .588171697675046 -.808736084303189 0 .808736084303189 .588171697675
046 0 .01360147050873544 .008 16 637 1675 0 ?202 226 489 636 0 0 1 31 638 1691 0
 226 636 227 0 -.2855 -.0245 .01 0 1 578241158658936e-31 0 -578241158658936e-31
 1 .008 16 226 1689 0 ?178 215 637 638 0 0 1 32 227 1696 0 215 638 256 0 -.2855
 -.0075 .01 .808736084303188 -.588171697675047 -949130466848406e-31 .58817169767
5047 .808736084303188 1275394064827544e-31 .01360147050873544 .008 17 178 0 211
 213 212 176 639 226 0 219 +17 639 0 640 641 513 182 178 226 0 230 -17 219 0 642
 199 181 176 213 220 0 643 +15 642 1281 0 219 429 0 17 199 0 642 615 219 197 643
 318 0 644 +17 181 0 642 219 615 179 645 316 0 213 +17 643 0 646 647 519 176 199
 318 0 513 -15 646 2244 0 519 648 0 17 647 0 646 649 643 89 513 511 0 650 -17 51
9 0 646 643 649 197 651 517 0 0 +17 513 0 640 639 650 176 647 511 0 0 +15 640 22
48 0 513 652 0 17 650 0 640 513 641 89 88 296 0 0 -17 641 0 640 650 639 86 184 5
06 0 653 -17 88 0 463 300 91 86 650 296 0 641 +15 463 1128 0 654 455 0 17 300 0
 463 604 88 113 653 298 0 655 +17 91 0 463 88 94 89 649 294 0 647 +17 94 0 463 9
1 97 92 656 292 0 651 +17 649 0 646 519 647 92 91 294 0 0 -17 97 0 463 94 657 95
 658 290 0 659 +17 656 0 660 525 651 95 94 292 0 0 -17 651 0 660 656 661 92 519
 517 0 649 -15 660 2240 0 525 662 0 17 661 0 660 651 525 197 193 631 0 519 -17 5
25 0 660 661 656 191 659 523 0 0 +17 193 0 663 664 644 191 661 631 0 622 +15 663
 1555 0 664 378 0 17 664 0 663 635 193 200 622 483 0 665 -17 644 0 663 193 635 1
97 615 608 0 661 -17 622 0 666 58 619 191 664 483 0 667 +15 666 670 0 61 446 0 1
7 58 0 666 67 622 56 667 326 0 668 +17 619 0 666 622 479 200 669 239 0 664 +17 6
67 0 670 659 531 191 58 326 0 525 -15 670 2236 0 531 671 0 17 659 0 670 658 667
 95 525 523 0 656 -17 531 0 670 667 658 56 672 529 0 0 +17 658 0 670 531 659 146
 97 290 0 0 -17 672 0 673 674 668 146 531 529 0 658 -15 673 2232 0 537 675 0 17
 674 0 673 537 672 140 148 263 0 0 -17 668 0 673 672 537 56 67 324 0 531 -17 537
 0 673 668 674 65 676 535 0 0 +17 67 0 666 64 58 65 668 324 0 677 +17 64 0 666 6
1 67 62 677 320 0 678 +17 677 0 679 676 543 65 64 320 0 537 -15 679 2228 0 543 6
80 0 17 676 0 679 681 677 140 537 535 0 674 -17 543 0 679 677 681 62 682 541 0 0
 +17 681 0 679 543 676 80 142 352 0 0 -17 682 0 683 684 678 80 543 541 0 681 -15
 683 2224 0 549 685 0 17 684 0 683 549 682 116 82 303 0 0 -17 678 0 683 682 549
 62 61 322 0 543 -17 549 0 683 678 684 59 686 547 0 0 +17 61 0 666 163 64 59 678
 322 0 687 +17 163 0 666 479 61 161 687 328 0 478 +17 687 0 688 686 689 59 163 3
28 0 549 -15 688 2222 0 689 690 0 17 686 0 688 691 687 116 549 547 0 684 -17 689
 0 688 687 691 161 546 544 0 480 -17 691 0 688 689 686 98 118 288 0 546 -17 546
 0 692 693 480 98 689 544 0 0 +17 480 0 692 546 481 161 166 252 0 0 -15 692 2226
 0 546 694 0 17 481 0 692 480 693 164 540 538 0 695 -17 693 0 692 481 546 101 10
0 286 0 540 -17 540 0 696 697 695 101 481 538 0 0 +17 695 0 696 540 698 164 157
 332 0 0 -15 696 2230 0 540 699 0 17 698 0 696 695 697 155 534 532 0 700 -17 157
 0 430 625 475 155 695 332 0 701 +15 430 1220 0 475 422 0 17 625 0 430 169 157 1
52 701 482 0 702 +17 701 0 423 160 154 155 625 482 0 698 -17 160 0 423 236 701 1
58 700 259 0 234 +17 154 0 423 701 236 152 703 261 0 625 +17 236 0 423 154 160 2
06 234 240 0 703 -17 703 0 415 247 702 206 154 261 0 0 -15 415 2128 0 703 372 0
 17 247 0 415 702 703 173 208 225 0 406 -17 702 0 415 703 247 152 406 359 0 491
 -17 406 0 490 487 491 173 702 359 0 0 +17 234 0 228 70 229 158 236 240 0 704 +1
7 70 0 228 73 234 68 705 313 0 706 +17 704 0 707 700 708 158 528 526 0 705 -15 7
07 2234 0 534 709 0 17 700 0 707 534 704 155 160 259 0 0 -17 708 0 707 704 534 1
07 106 282 0 528 -17 528 0 710 711 705 107 704 526 0 0 +17 705 0 710 528 706 158
 70 313 0 0 -15 710 2238 0 528 712 0 17 706 0 710 705 711 68 522 520 0 713 -17 7
11 0 710 706 528 125 109 280 0 522 -17 522 0 714 715 713 125 706 520 0 0 +17 713
 0 714 522 716 68 73 311 0 0 -15 714 2242 0 522 717 0 17 716 0 714 713 715 71 51
6 514 0 718 -17 73 0 228 79 70 71 713 311 0 716 +17 79 0 228 76 73 77 718 309 0
 719 +17 76 0 228 230 79 74 720 307 0 237 +17 718 0 721 516 719 71 79 309 0 0 -1
7 719 0 721 718 722 77 510 508 0 720 -15 721 2246 0 516 723 0 17 722 0 721 719 5
16 48 55 340 0 510 -17 510 0 724 725 720 48 719 508 0 0 +17 720 0 724 510 726 77
 76 307 0 0 -15 724 2250 0 510 727 0 17 726 0 724 720 725 74 115 504 0 0 -17 725
 0 724 726 510 113 24 10 0 300 -17 115 0 728 653 237 113 726 504 0 725 +15 728 2
252 0 184 729 0 17 653 0 728 184 115 86 300 298 0 0 -17 237 0 728 115 184 74 230
 238 0 726 -17 184 0 728 237 653 182 641 506 0 639 +14 729 2251 472 ?18 727 728
 5 730 +0 0 18 727 23 81 1 472 5928 424 729 731 0 468 732 733 14 18 2406 732 ?56
2 729 564 5 6 +0 0 562 729 23 14 727 2249 734 ?729 652 724 5 735 +0 0 729 652 23
 51 730 2350 0 729 736 735 0 +.35 -.0245 .021 1 0 0 .003 0 0 -1 54 736 2198 0 39
3 737 730 0 +.0275 0 -.027 0 0 1 .0245 .003 1 0 0 54 735 2349 0 727 730 738 0 +.
3225 -3469446951953615e-33 .021 0 -161369625672261e-30 1 .0245 .003 0 -1 -161369
625672261e-30 54 738 2348 0 652 735 739 0 +.2855 -.0245 .01 0 1 578241158658936e
-31 .011 .003 0 -578241158658936e-31 1 14 652 2247 740 ?727 723 640 5 738 +0 0 7
27 723 23 51 739 2347 0 723 738 741 0 +.35 .0245 .021 -1 0 0 .003 0 0 1 14 723 2
245 742 ?652 648 721 5 739 +0 0 652 648 23 51 741 2346 0 648 739 743 0 +.2745 -.
0245 -.03 0 -578241158658936e-31 1 .003 0 -1 -578241158658936e-31 14 648 2243 74
4 ?723 717 646 5 741 +0 0 723 717 23 54 743 2345 0 717 741 745 0 +.0275 0 .021 0
 -161369625672261e-30 1 .0245 .003 0 -1 -161369625672261e-30 14 717 2241 746 ?64
8 662 714 5 743 +0 0 648 662 23 54 745 2344 0 662 743 747 0 +.2855 -.0245 -.01 0
 1 578241158658936e-31 .011 .003 0 -578241158658936e-31 1 14 662 2239 748 ?717 7
12 660 5 745 +0 0 717 712 23 51 747 2343 0 712 745 749 0 +.35 -.0245 .021 1 0 0
 .003 0 0 -1 14 712 2237 750 ?662 671 710 5 747 +0 0 662 671 23 51 749 2342 0 67
1 747 751 0 +.35 -.0245 -.021 1 0 0 .003 0 0 -1 14 671 2235 752 ?712 709 670 5 7
49 +0 0 712 709 23 54 751 2341 0 709 749 753 0 +.0645 -.0245 .01 0 1 57824115865
8936e-31 .011 .003 0 -578241158658936e-31 1 14 709 2233 754 ?671 675 707 5 751 +
0 0 671 675 23 54 753 2340 0 675 751 755 0 +.3225 -3469446951953615e-33 -.021 0
 0 -1 .0245 .003 -1 0 0 14 675 2231 756 ?709 699 673 5 753 +0 0 709 699 23 51 75
5 2339 0 699 753 757 0 +.0755 -.0245 -.0867706841938344 0 578241158658936e-31 -1
 .003 0 1 578241158658936e-31 14 699 2229 758 ?675 680 696 5 755 +0 0 675 680 23
 51 757 2338 0 680 755 759 0 +.35 .0245 -.021 -1 0 0 .003 0 0 1 14 680 2227 760
 ?699 694 679 5 757 +0 0 699 694 23 54 759 2337 0 694 757 761 0 +.0645 -.0245 -.
01 0 1 578241158658936e-31 .011 .003 0 -578241158658936e-31 1 14 694 2225 762 ?6
80 685 692 5 759 +0 0 680 685 23 54 761 2336 0 685 759 763 0 +.0275 0 -.021 0 0
 -1 .0245 .003 -1 0 0 14 685 2223 764 ?694 690 683 5 761 +0 0 694 690 23 51 763
 2335 0 690 761 765 0 +.35 -.0245 -.021 1 0 0 .003 0 0 -1 14 690 2221 766 ?685 4
16 688 5 763 +0 0 685 416 23 51 765 2439 0 570 763 767 0 +.35 -.0245 .027 -1 0 0
 .003 0 0 1 14 570 2412 768 ?0 567 568 5 765 +0 0 0 567 23 54 767 2438 0 567 765
 19 0 +.0275 0 .027 0 0 -1 .0245 .003 -1 0 0 14 567 2410 769 ?570 562 555 5 767
 +0 0 570 562 23 54 19 2437 0 562 767 6 0 +.3225 -3469446951953615e-33 .027 0 0
 -1 .0245 .003 -1 0 0 14 562 2408 770 ?567 18 558 5 19 +0 0 567 18 23 81 1 770 5
947 424 562 771 0 769 772 773 80 255 1 424 774 775 9000 1 1 1 1 1 1 1 1 0 FFFFTF
TFFFFFFF1 81 1 771 5793 776 562 0 770 777 778 779 81 1 769 5946 424 567 778 0 76
8 770 780 81 1 772 5948 424 416 781 0 770 782 783 82 255 1 773 992280761 14 416
 2174 772 ?690 784 785 5 411 +0 0 690 784 23 81 1 781 5775 776 416 0 772 786 787
 788 81 1 782 5949 424 784 786 0 772 789 790 82 1 783 966066361 14 784 2172 782
 ?416 791 792 5 417 +0 0 416 791 23 81 1 786 5774 776 784 0 782 793 781 794 81 1
 789 5950 424 791 793 0 782 795 796 82 1 790 967639225 14 791 2170 789 ?784 393
 496 5 737 +0 0 784 393 23 81 1 793 5773 776 791 0 789 797 786 798 81 1 795 5951
 424 393 797 0 789 799 800 82 1 796 968818873 14 393 2168 795 ?791 387 801 5 736
 +0 0 791 387 23 81 1 797 5772 776 393 0 795 802 793 803 81 1 799 5952 424 394 8
04 0 795 805 806 82 1 800 969932985 14 394 2129 799 ?387 372 490 5 388 +0 0 387
 372 23 81 1 804 5770 776 394 0 799 807 802 808 81 1 805 5953 424 373 809 0 799
 810 811 82 1 806 963575993 14 373 2090 805 ?364 249 812 5 366 +0 0 364 249 23 8
1 1 809 5767 776 373 0 805 813 814 815 81 1 810 5954 424 249 813 0 805 816 817 8
2 1 811 959905977 14 249 2088 810 ?373 378 221 5 377 +0 0 373 378 23 81 1 813 57
66 776 249 818 810 819 809 820 81 1 816 5955 424 378 819 0 810 821 822 82 1 817
 961151161 14 378 1554 816 ?249 381 663 5 367 -0 0 249 381 23 81 1 819 5765 776
 378 0 816 823 813 824 81 1 821 5956 424 429 825 0 816 826 827 82 1 822 93179103
3 14 429 1278 821 ?422 828 642 5 829 -0 0 422 828 23 81 1 825 5758 776 429 0 821
 830 831 832 81 1 826 5957 424 232 833 0 821 834 835 82 1 827 905248953 14 232 6
45 826 ?455 446 228 5 443 -0 0 455 446 23 81 1 833 5748 776 232 0 826 836 837 83
8 81 1 834 5958 424 439 839 0 826 840 841 82 1 835 1491861689 14 439 1100 834 ?4
59 433 842 5 843 +844 844 459 433 23 81 1 839 5744 776 439 0 834 845 846 847 81
 1 840 5959 424 454 848 0 834 849 850 82 1 841 914555065 14 454 606 840 ?442 451
 851 5 445 -0 0 442 451 23 81 1 848 5751 776 454 0 840 852 853 854 81 1 849 5960
 424 442 853 0 840 855 856 82 1 850 1493762233 14 442 415 849 ?844 454 857 5 441
 +433 433 844 454 23 81 1 853 5752 776 442 0 849 848 858 859 81 1 855 5961 424 8
44 858 0 849 860 861 82 1 856 1493958841 14 844 495 855 ?862 442 863 5 843 +439
 439 862 442 23 81 1 858 5753 776 844 0 855 853 864 865 81 1 860 5962 424 862 86
4 0 855 866 867 82 1 861 1494155449 14 862 922 860 ?868 844 579 5 869 -870 870 8
68 844 23 81 1 864 5754 776 862 0 860 858 871 872 81 1 866 5963 424 868 871 0 86
0 873 874 82 1 867 499384495 14 868 736 866 ?870 862 875 5 876 -828 828 870 862
 23 81 1 871 5755 776 868 0 866 864 877 878 81 1 873 5964 424 870 877 0 866 879
 880 82 1 874 500498607 14 870 917 873 ?828 868 881 5 869 -862 862 828 868 23 81
 1 877 5756 776 870 0 873 871 830 882 81 1 879 5965 424 828 830 0 873 0 883 82 1
 880 499974319 14 828 731 879 ?429 870 884 5 876 -868 868 429 870 23 81 1 830 57
57 776 828 0 879 877 825 885 82 1 883 501088431 80 1 776 0 886 8001 0 0 0 0 3 5
 0 0 0 FFFFTFTFFFFFFF2 83 255 3 885 .894117647058824 .913725490196078 .929411764
705882 79 255 15 886 SDL/TYSA_COLOUR15 884 734 0 887 828 888 51 876 959 0 828 82
9 869 0 +.0275 0 -.03 0 0 1 .01 1 0 0 50 829 1290 0 429 431 876 0 +.2775 .0275 -
.0867706841938344 -1 0 0 0 0 1 51 869 946 0 870 876 441 0 +.3225 -34694469519536
15e-33 -.03 0 0 1 .01 1 0 0 51 441 526 0 442 869 843 0 +.0275 0 -.03 0 0 1 .0275
 1 0 0 51 843 521 0 844 441 445 0 +.3225 -3469446951953615e-33 -.03 0 0 1 .0275
 1 0 0 50 445 167 0 454 843 443 0 +.35 .0275 .03 0 -1 289120579329468e-30 0 -289
120579329468e-30 -1 50 431 1296 0 422 0 829 0 +.0725 .0275 -.0867706841938344 -1
 0 0 0 0 1 17 887 0 884 887 887 0 889 890 0 0 -15 888 735 0 891 828 0 17 891 0 8
88 891 891 0 596 594 0 0 -17 596 0 450 596 596 0 891 594 0 0 +15 450 674 0 596 4
46 892 15 892 661 0 591 446 666 17 591 0 892 591 591 0 893 589 0 0 +17 893 0 894
 893 893 0 591 589 0 0 -15 894 921 0 893 870 0 17 889 0 895 889 889 0 887 890 0
 0 +16 890 723 0 ?889 896 575 897 0 0 1 16 896 1798 0 ?898 611 890 587 611 611 1
 16 575 728 0 ?574 890 580 899 0 0 1 31 897 996 0 890 899 587 0 +.0275 0 -.03 0
 0 1 1 0 0 .01 31 899 997 0 575 0 897 0 +.0275 0 .03 0 0 1 1 0 0 .01 30 587 989
 0 611 897 586 0 +.0275 -.0275 -.03 0 0 1 16 611 1804 0 ?900 593 896 587 896 896
 1 17 900 0 857 82 121 116 654 611 0 686 +15 857 1116 0 901 442 0 17 82 0 857 90
1 900 80 684 303 0 902 +17 121 0 857 900 901 119 903 305 0 654 +17 654 0 463 151
 118 119 900 611 0 499 -17 151 0 463 657 654 149 498 301 0 904 +17 118 0 463 654
 100 116 691 288 0 900 +17 499 0 801 903 905 119 493 492 0 498 -15 801 2169 0 90
6 393 0 17 903 0 801 906 499 83 121 305 0 500 -17 905 0 801 499 906 131 139 270
 0 493 -17 498 0 496 493 907 119 151 301 0 0 -15 496 2171 0 493 791 0 17 907 0 4
96 498 497 149 130 501 0 908 -17 497 0 496 907 493 128 133 272 0 276 -17 130 0 7
85 909 908 128 907 501 0 497 +16 501 2187 0 ?130 494 409 410 0 0 1 17 908 0 785
 130 145 149 267 265 0 0 -15 785 2175 0 130 416 0 17 145 0 785 908 909 143 910 4
09 0 911 +17 267 0 842 585 904 143 908 265 0 912 +15 842 1104 0 904 439 0 17 585
 0 842 148 267 140 912 581 0 676 +17 904 0 842 267 148 149 657 602 0 907 -17 912
 0 456 85 142 143 585 581 0 0 -15 456 615 0 912 451 0 17 85 0 456 902 912 83 911
 354 0 901 +17 142 0 456 912 902 140 681 352 0 585 +17 902 0 456 142 85 80 901 6
01 0 682 +17 901 0 857 121 82 83 902 601 0 903 -16 601 1868 0 ?902 605 598 595 5
98 598 1 17 911 0 792 910 500 143 85 354 0 267 -15 792 2173 0 500 784 0 17 910 0
 792 913 911 134 145 409 0 0 -17 500 0 792 911 913 83 906 494 0 0 +17 913 0 792
 500 910 137 136 268 0 0 -17 906 0 801 905 903 137 500 494 0 913 -17 136 0 460 2
76 139 134 913 268 0 909 +15 460 1778 0 136 449 895 17 276 0 460 133 136 128 909
 274 0 0 +17 139 0 460 136 133 137 905 270 0 906 +17 909 0 785 145 130 134 276 2
74 0 910 -17 133 0 460 139 276 131 497 272 0 905 +15 895 695 0 889 449 914 15 91
4 679 0 583 449 0 17 583 0 914 583 583 0 915 580 0 0 +17 915 0 881 915 915 0 583
 580 0 0 -15 881 920 0 915 870 894 16 409 2189 0 ?145 501 547 407 0 0 1 17 148 0
 842 904 585 146 674 263 0 657 +17 657 0 463 97 151 146 904 602 0 672 +16 602 17
54 0 ?657 598 597 599 597 597 1 31 410 2204 0 501 407 502 0 +.3225 -.0245 -.027
 1 0 0 0 0 -1 .003 17 100 0 463 118 103 98 693 286 0 691 +17 103 0 463 100 106 1
01 697 284 0 693 +17 106 0 463 103 109 104 708 282 0 697 +17 697 0 696 698 540 1
04 103 284 0 534 -17 534 0 707 708 700 104 698 532 0 0 +17 109 0 463 106 916 107
 711 280 0 708 +17 916 0 463 109 279 125 898 896 0 711 -17 279 0 463 916 604 122
 569 277 0 898 +17 898 0 440 52 127 122 916 896 0 0 +15 440 1122 0 917 433 0 17
 52 0 440 917 898 50 556 334 0 600 +17 127 0 440 898 917 125 715 336 0 916 +17 9
17 0 440 127 52 53 600 598 0 715 -17 715 0 714 716 522 53 127 336 0 516 -17 516
 0 721 722 718 53 716 514 0 0 +17 600 0 851 47 55 50 917 598 0 565 +15 851 604 0
 918 454 0 17 47 0 851 918 600 45 565 338 0 607 +17 55 0 851 600 918 53 722 340
 0 917 +17 918 0 851 55 47 48 607 605 0 722 -17 607 0 863 112 24 45 918 605 0 56
1 +15 863 1098 0 655 844 0 17 112 0 863 655 607 110 560 25 0 604 +17 24 0 863 60
7 655 48 725 10 0 918 +17 655 0 863 24 112 113 604 597 0 0 -17 604 0 463 279 300
 110 655 597 0 563 +17 563 0 558 560 559 110 44 552 0 569 -17 574 0 875 574 574
 0 572 575 0 0 +15 875 739 0 574 868 919 15 919 740 0 920 868 0 17 920 0 919 920
 920 0 613 592 0 0 -17 613 0 233 613 613 0 920 592 0 0 +15 233 648 0 613 232 921
 15 921 634 0 610 232 0 17 610 0 921 610 610 0 922 593 0 0 +17 922 0 923 922 922
 0 610 593 0 0 -15 923 926 0 922 862 0 83 3 882 .894117647058824 .91372549019607
8 .929411764705882 83 3 878 .894117647058824 .913725490196078 .929411764705882 8
3 3 872 .894117647058824 .913725490196078 .929411764705882 15 579 925 0 577 862
 923 83 3 865 .894117647058824 .913725490196078 .929411764705882 83 3 859 .89411
7647058824 .913725490196078 .929411764705882 81 1 852 5750 776 451 0 453 837 848
 924 83 3 854 .894117647058824 .913725490196078 .929411764705882 81 1 453 5922 4
24 451 852 0 448 458 925 81 1 837 5749 776 455 0 462 833 852 926 83 3 924 .89411
7647058824 .913725490196078 .929411764705882 81 1 462 5924 424 455 837 0 458 464
 927 83 3 926 .894117647058824 .913725490196078 .929411764705882 81 1 458 5923 4
24 449 928 0 453 462 929 81 1 464 5925 424 459 846 0 462 466 930 82 1 927 146558
1753 81 1 846 5745 776 459 0 464 839 928 931 82 1 930 1465712825 81 1 928 5746 7
76 449 0 458 846 836 932 83 3 931 .894117647058824 .913725490196078 .92941176470
5882 81 1 836 5747 776 446 0 448 928 833 933 83 3 932 .894117647058824 .91372549
0196078 .929411764705882 81 1 448 5921 424 446 836 0 437 453 934 83 3 933 .89411
7647058824 .913725490196078 .929411764705882 81 1 437 5920 424 433 845 0 432 448
 935 82 1 934 1465188537 81 1 845 5743 776 433 0 437 436 839 936 82 1 935 916259
001 81 1 436 5742 776 16 0 432 0 845 937 83 3 936 .894117647058824 .913725490196
078 .929411764705882 83 3 937 .894117647058824 .913725490196078 .929411764705882
 82 1 929 1465450681 82 1 925 1465319609 83 3 847 .894117647058824 .913725490196
078 .929411764705882 83 3 838 .894117647058824 .913725490196078 .929411764705882
 81 1 831 5759 776 422 0 428 825 425 938 83 3 832 .894117647058824 .913725490196
078 .929411764705882 81 1 428 5918 424 422 831 0 426 432 939 81 1 425 5760 776 4
19 0 421 831 940 941 83 3 938 .894117647058824 .913725490196078 .929411764705882
 81 1 940 5761 776 243 0 426 425 467 942 83 3 941 .894117647058824 .913725490196
078 .929411764705882 81 1 426 5917 424 243 940 0 421 428 943 81 1 467 5762 776 2
17 0 466 940 471 944 83 3 942 .894117647058824 .913725490196078 .929411764705882
 81 1 471 5763 776 375 0 468 467 823 945 83 3 944 .894117647058824 .913725490196
078 .929411764705882 81 1 823 5764 776 381 0 383 471 819 946 83 3 945 .894117647
058824 .913725490196078 .929411764705882 81 1 383 5913 424 381 823 0 371 392 947
 83 3 946 .894117647058824 .913725490196078 .929411764705882 81 1 371 5912 424 3
64 814 0 0 383 948 81 1 392 5914 424 387 802 0 383 414 949 82 1 947 933298361 81
 1 802 5771 776 387 950 392 804 797 951 81 1 414 5915 424 372 807 0 392 421 952
 82 1 949 962396345 81 1 807 5769 776 372 953 414 814 804 954 82 1 952 964821177
 81 1 953 2487 955 372 0 807 950 956 957 81 1 814 5768 776 364 958 371 809 807 9
59 83 3 954 .894117647058824 .913725490196078 .929411764705882 81 1 958 2484 955
 364 0 814 0 818 960 83 3 959 .894117647058824 .913725490196078 .929411764705882
 80 1 955 961 962 9000 0 0 0 0 3 5 0 0 0 FFFFTFFFFFFFFF1 81 1 818 2485 955 249 0
 813 958 950 963 82 1 960 1 81 1 950 2486 955 387 0 802 818 953 964 82 1 963 1 8
2 1 964 1 79 18 962 FILLET_CORNER_FACE81 1 956 2488 955 652 0 965 953 966 967 82
 1 957 1 81 1 965 5789 776 652 956 740 968 969 970 81 1 966 2489 955 662 0 971 9
56 972 973 82 1 967 1 81 1 971 5785 776 662 966 748 974 975 976 81 1 972 2490 95
5 694 0 977 966 978 979 82 1 973 1 81 1 977 5778 776 694 972 762 980 981 982 81
 1 978 2491 955 709 0 983 972 0 984 82 1 979 1 81 1 983 5782 776 709 978 754 985
 986 987 82 1 984 1 81 1 754 5938 424 709 983 0 752 756 988 81 1 985 5781 776 67
5 0 756 989 983 990 81 1 986 5783 776 671 0 752 983 974 991 83 3 987 .8941176470
58824 .913725490196078 .929411764705882 81 1 752 5937 424 671 986 0 750 754 992
 81 1 974 5784 776 712 0 750 986 971 993 83 3 991 .894117647058824 .913725490196
078 .929411764705882 81 1 750 5936 424 712 974 0 748 752 994 83 3 993 .894117647
058824 .913725490196078 .929411764705882 81 1 748 5935 424 662 971 0 746 750 995
 82 1 994 979435705 81 1 746 5934 424 717 975 0 744 748 996 82 1 995 978321593 8
1 1 975 5786 776 717 0 746 971 997 998 81 1 744 5933 424 648 997 0 742 746 999 8
2 1 996 977207481 81 1 997 5787 776 648 0 744 975 968 1000 81 1 742 5932 424 723
 968 0 740 744 1001 82 1 999 976093369 81 1 968 5788 776 723 0 742 997 965 1002
 81 1 740 5931 424 652 965 0 734 742 1003 82 1 1001 974979257 81 1 734 5930 424
 727 969 0 732 740 1004 82 1 1003 973865145 81 1 969 5790 776 727 0 734 965 731
 1005 81 1 732 5929 424 18 777 0 472 734 1006 82 1 1004 972685497 81 1 777 5792
 776 18 0 732 731 771 1007 82 1 1006 993394873 81 1 731 5791 776 729 0 472 969 7
77 1008 83 3 1007 .894117647058824 .913725490196078 .929411764705882 83 3 1008 .
894117647058824 .913725490196078 .929411764705882 83 3 1005 .894117647058824 .91
3725490196078 .929411764705882 83 3 1002 .894117647058824 .913725490196078 .9294
11764705882 83 3 1000 .894117647058824 .913725490196078 .929411764705882 83 3 99
8 .894117647058824 .913725490196078 .929411764705882 82 1 992 980549817 81 1 756
 5939 424 675 985 0 754 758 1009 81 1 989 5780 776 699 0 758 981 985 1010 83 3 9
90 .894117647058824 .913725490196078 .929411764705882 81 1 758 5940 424 699 989
 0 756 760 1011 81 1 981 5779 776 680 0 760 977 989 1012 83 3 1010 .894117647058
824 .913725490196078 .929411764705882 81 1 760 5941 424 680 981 0 758 762 1013 8
3 3 1012 .894117647058824 .913725490196078 .929411764705882 81 1 762 5942 424 69
4 977 0 760 764 1014 82 1 1013 985006265 81 1 764 5943 424 685 980 0 762 766 101
5 82 1 1014 986120377 81 1 980 5777 776 685 0 764 787 977 1016 81 1 766 5944 424
 690 787 0 764 768 1017 82 1 1015 987234489 81 1 787 5776 776 690 0 766 781 980
 1018 81 1 768 5945 424 570 1019 0 766 769 1020 82 1 1017 988348601 81 1 1019 57
95 776 570 0 768 778 0 1021 82 1 1020 989528249 81 1 778 5794 776 567 0 769 771
 1019 1022 83 3 1021 .894117647058824 .913725490196078 .929411764705882 83 3 102
2 .894117647058824 .913725490196078 .929411764705882 83 3 1018 .894117647058824
 .913725490196078 .929411764705882 83 3 1016 .894117647058824 .913725490196078 .
929411764705882 82 1 1011 983892153 82 1 1009 982778041 82 1 988 981663929 83 3
 982 .894117647058824 .913725490196078 .929411764705882 83 3 976 .89411764705882
4 .913725490196078 .929411764705882 83 3 970 .894117647058824 .913725490196078 .
929411764705882 83 3 951 .894117647058824 .913725490196078 .929411764705882 82 1
 948 958726329 82 1 943 929104057 82 1 939 881590457 83 3 824 .894117647058824 .
913725490196078 .929411764705882 83 3 820 .894117647058824 .913725490196078 .929
411764705882 83 3 815 .894117647058824 .913725490196078 .929411764705882 15 812
 2091 0 224 373 0 17 224 0 812 645 251 179 222 250 0 0 +17 645 0 812 1023 224 19
4 181 316 0 635 -17 251 0 812 224 1023 170 190 350 0 0 -16 250 2099 0 ?224 581 3
57 360 0 0 1 17 1023 0 812 251 645 188 196 357 0 0 -17 190 0 434 628 246 188 251
 350 0 1024 +17 628 0 434 175 190 185 1024 626 0 0 +17 246 0 434 190 175 170 244
 629 0 222 +17 1024 0 384 202 488 188 628 626 0 1025 -15 384 1553 0 1024 381 0 1
7 202 0 384 669 1024 200 1025 637 0 619 +17 488 0 384 1024 669 185 485 489 0 628
 +17 1025 0 374 196 665 188 202 637 0 1023 -15 374 2093 0 665 364 0 17 196 0 374
 665 1025 194 1023 357 0 645 +17 665 0 374 1025 196 200 635 633 0 0 -17 635 0 66
3 644 664 194 665 633 0 615 +17 615 0 642 181 199 194 644 608 0 0 +17 669 0 384
 488 202 203 619 239 0 485 -17 175 0 434 246 628 173 487 348 0 244 +17 244 0 242
 208 172 173 246 629 0 247 -83 3 808 .894117647058824 .913725490196078 .92941176
4705882 83 3 803 .894117647058824 .913725490196078 .929411764705882 83 3 798 .89
4117647058824 .913725490196078 .929411764705882 51 737 2199 0 791 417 736 0 +.35
 -.0245 -.027 -1 0 0 .003 0 0 1 51 417 2200 0 784 411 737 0 +.35 .0245 -.027 -1
 0 0 .003 0 0 1 83 3 794 .894117647058824 .913725490196078 .929411764705882 83 3
 788 .894117647058824 .913725490196078 .929411764705882 82 1 780 991101113 83 3
 779 .894117647058824 .913725490196078 .929411764705882 79 14 775 SWEntUnchanged
82 1 733 971112633 17 169 0 430 475 625 167 491 330 0 474 +17 479 0 666 619 163
 203 478 620 0 669 +17 478 0 470 166 205 161 479 620 0 689 -82 1 473 934478009 8
2 1 469 927596729 82 1 438 921632953 82 1 427 930283705 141 418 377 1026 1026 39
7 141 1026 400 418 418 397 32 362 2113 0 1 360 401 1027 +.2855 -.0075 .01 -.7071
06781186548 .707106781186548 1141055565903906e-31 .707106781186548 .707106781186
548 1141055565903906e-31 .01555634918610405 .011 141 1027 377 1027 1027 362 41 1
 398 T?.2855 -.0075 -.001 41 1 399 T?.2855 -.0075 .021 141 380 363 380 380 367 1
41 376 386 376 376 365 19 17 184 0 1 0 9 5 S0 74 4 CI16 index_map_offset0 0 1 dC
CZ20 15 10 0 0 1028 1029 879 978 1030 1031 1032 13 1019 2 0 0 0 0 0 0 0 0 0 0 81
 2 1028 224 1033 1 0 1029 0 0 0 1034 81 2 1029 228 1035 1 1028 1030 0 0 0 1036 8
1 2 1030 3678 1037 1 1029 1031 0 0 1038 0 81 2 1031 4429 1039 1 1030 1040 0 0 0
 1041 81 2 1032 5676 1042 1 1043 13 1043 0 0 0 81 2 13 5739 1044 1 1032 2 0 0 0
 0 80 2 1044 1045 1046 9000 0 0 0 0 3 5 0 0 0 FFTFFFFFFFFFFF9 1 79 16 1046 BODY_
RECIPE_200180 2 1042 1047 1048 9000 0 0 0 0 3 6 0 0 0 FFTFFFFFFFFFFF9 1 81 2 104
3 5675 1042 1 1049 1032 1049 1032 0 0 81 2 1049 5674 1042 1 1050 1043 1050 1043
 0 0 81 2 1050 5673 1042 1 1051 1049 1051 1049 0 0 81 2 1051 5672 1042 1 1052 10
50 1052 1050 0 0 81 2 1052 5671 1042 1 1053 1051 1053 1051 0 0 81 2 1053 5532 10
42 1 1054 1052 1054 1052 0 0 81 2 1054 5531 1042 1 1055 1053 1055 1053 0 0 81 2
 1055 5464 1042 1 1040 1054 1040 1054 0 0 81 2 1040 5463 1042 1 1031 1055 0 1055
 0 0 79 23 1048 EXPLODE_LINES_BODY_200180 2 1039 1056 1057 9000 0 0 0 0 3 5 0 0
 0 FFTFFFFFFFFFFF9 1 82 1 1041 1 79 24 1057 BODY_IN_LIGHTWEIGHT_PERM80 2 1037 10
58 1059 8004 0 0 0 0 3 5 0 0 0 FFTFFFFFFFFFFF2 3 83 1 1038 79e2 79 16 1059 SDL/T
YSA_DENSITY80 2 1035 1060 1061 9000 0 0 0 0 3 5 0 0 0 FFTFFFFFFFFFFF9 1 82 1 103
6 53 79 30 1061 LAST_BODY_MODIFYING_FEATURE_ID80 2 1033 1062 1063 9000 0 0 0 0 3
 5 0 0 0 FFTFFFFFFFFFFT9 1 82 1 1034 156 79 19 1063 ENT_TIME_STAMP_200180 2 12 1
064 1065 9000 0 0 0 0 3 5 0 0 0 FFTFFFFFFFFFFF9 1 82 1 14 103 79 12 1065 ATOM_ID
_20011 0 
