**ABCDEFGHIJKLMNOPQRSTUVWXYZabcdefghijklmnopqrstuvwxyz**************************
**PARASOLID !"#$%&'()*+,-./:;<=>?@[\]^_`{|}~0123456789**************************
**PART1;
MC=AMD64;
MC_MODEL=Intel64 Family 6 Model 60 Stepping 3, GenuineIntel;
MC_ID=unknown;
OS=Windows_NT;
OS_RELEASE=unknown;
FRU=Parasolid Version 31.0, build 282,  2-25-2019;
APPL=SOLIDWORKS 2019-2019115;
SITE=;
USER=unknown;
FORMAT=text;
GUISE=transmit;
KEY=Pin;
FILE=Pin.x_t;
DATE=Tue Nov 12 17:14:30 2019;
**PART2;
SCH=SCH_3100282_31001;
USFLD_SIZE=0;
**PART3;
**END_OF_HEADER*****************************************************************
T51 : TRANSMIT FILE created by modeller version 310028223 SCH_3100282_31001_1300
6215 0 12 34 CCCCCCI4 mesh1006 0 I8 polyline1008 0 CCCCCCCDI5 owner1040 0 CCCCCC
I13 boundary_mesh1006 0 I17 boundary_polyline1008 0 CCCA16 index_map_offset0 0 1
 dA9 index_map82 0 A17 node_id_index_map82 0 A20 schema_embedding_map82 0 A5 chi
ld12 0 A14 lowest_node_id0 0 1 dA16 mesh_offset_data206 0 Z1 981 2 3 0 0 0 0 0 0
 1e3 1e-8 0 4 0 1 0 1 1 5 6 7 0 0 0 8 9 0 0 0 0 0 0 0 0 81 255 2 2 976 10 1 11 0
 0 0 0 12 70 11 CI9 list_type0 0 1 uI10 notransmit0 0 1 lCCCDCCDI12 finger_index
0 0 1 dI12 finger_block1012 0 CZ3 0 4 T1 0 0 9 20 1 13 13 13 255 5 31 0 1 0 14 0
 0 15 0 52 255 6 108 0 16 17 0 0 +0 0 .084 0 0 -1 .008 .707106781186546 .7071067
81186549 -1 0 0 31 255 7 78 0 9 18 0 0 +0 0 .084 0 0 1 1 0 0 .008 19 8 CCCCCCCA5
 owner12 0 Z8 9 0 1 15 0 19 V0 16 255 9 75 0 ?20 0 21 7 0 0 1 17 255 20 0 22 20
 20 0 23 9 0 0 +16 21 69 0 ?24 9 25 18 0 0 1 17 24 0 26 24 24 0 27 21 0 0 +16 25
 63 0 ?28 21 29 30 0 0 1 31 18 72 0 21 30 7 0 -0 0 0 0 0 1 1 0 0 .00799999999999
988 31 30 66 0 25 31 18 0 +0 0 .0020000000000001 0 0 1 1 0 0 .01 31 31 60 0 29 0
 30 0 -0 0 .082 0 0 1 1 0 0 .01 16 29 57 0 ?32 25 0 31 0 0 1 17 32 0 33 32 32 0
 34 29 0 0 +15 255 33 58 0 32 14 0 17 34 0 35 34 34 0 32 29 0 0 -15 35 102 0 34
 16 36 14 255 16 101 37 ?0 38 35 5 6 +0 0 0 38 19 15 36 103 0 23 16 0 17 23 0 36
 23 23 0 20 9 0 0 -81 1 37 977 39 16 40 0 0 41 42 14 38 88 41 ?16 43 44 5 17 +0
 0 16 43 19 13 19 10 0 0 0 0 0 0 8 14 14 14 27 45 ?46 0 47 5 48 -0 0 46 0 19 81
 1 45 979 39 14 49 0 41 50 51 14 46 1 50 ?43 14 22 5 52 +0 0 43 14 19 15 47 64 0
 28 14 33 51 255 48 30 0 14 53 17 0 -0 0 .084 0 0 -1 .01 -1 0 0 50 255 53 24 0 4
3 52 48 0 +0 0 0 0 0 1 1 0 0 52 17 95 0 38 48 6 0 +0 0 .0020000000000001 0 0 1 .
01 .707106781186551 .707106781186544 1 0 0 14 43 18 54 ?38 46 26 5 53 -0 0 38 46
 19 50 52 3 0 46 0 53 0 +0 0 .084 0 0 1 1 0 0 81 1 54 981 39 43 55 0 50 0 56 15
 26 70 0 24 43 0 80 255 1 39 57 58 9000 1 1 1 1 1 1 1 1 0 FFFFTFTFFFFFFF1 81 1 5
5 961 59 43 0 54 60 61 62 81 1 50 980 39 46 60 0 45 54 63 82 255 1 56 1307902065
 81 1 60 960 59 46 0 50 49 55 64 82 1 63 1306198129 80 1 59 0 65 8001 0 0 0 0 3
 5 0 0 0 FFFFTFTFFFFFFF2 81 1 49 959 59 14 0 45 0 60 66 83 255 3 64 .83137254901
9608 .670588235294118 .1294117647058822 83 3 66 .831372549019608 .67058823529411
8 .1294117647058822 79 255 15 65 SDL/TYSA_COLOUR81 1 61 962 59 38 0 41 55 40 67
 83 3 62 .831372549019608 .670588235294118 .1294117647058822 81 1 41 978 39 38 6
1 0 37 45 68 81 1 40 963 59 16 0 37 61 0 69 83 3 67 .831372549019608 .6705882352
94118 .1294117647058822 83 3 69 .831372549019608 .670588235294118 .1294117647058
822 82 1 68 -1377501071 79 14 58 SWEntUnchanged17 28 0 47 28 28 0 70 25 0 0 +17
 70 0 71 70 70 0 28 25 0 0 -15 71 90 0 70 38 0 15 22 76 0 20 46 0 82 1 51 130816
4209 15 44 89 0 27 38 71 17 27 0 44 27 27 0 24 21 0 0 -82 1 42 -1376255887 19 15
 32 0 1 0 8 5 S0 74 4 CI16 index_map_offset0 0 1 dCCZ20 13 9 0 0 72 73 54 74 75
 76 40 11 2 0 0 0 0 0 0 0 0 0 0 0 81 2 72 44 77 1 0 73 0 0 0 78 81 2 73 48 79 1
 72 74 0 0 0 80 81 1 74 118 81 1 73 75 0 0 82 81 2 75 953 83 1 74 76 0 0 0 84 81
 2 76 956 85 1 75 11 0 0 0 0 81 2 11 975 86 1 76 2 0 0 87 0 80 2 86 88 89 8004 0
 0 0 0 3 5 0 0 0 FFTFFFFFFFFFFF2 3 83 1 87 77e2 79 16 89 SDL/TYSA_DENSITY80 2 85
 90 91 9000 0 0 0 0 3 5 0 0 0 FFTFFFFFFFFFFF9 1 79 16 91 BODY_RECIPE_200180 2 83
 92 93 9000 0 0 0 0 3 5 0 0 0 FFTFFFFFFFFFFF9 1 82 1 84 1 79 24 93 BODY_IN_LIGHT
WEIGHT_PERM80 1 81 94 95 9000 1 1 1 1 1 1 1 1 0 FFTFFFFFFFFFFF1 82 1 82 2379225
 79 10 95 BODY_MATCH80 2 79 96 97 9000 0 0 0 0 3 5 0 0 0 FFTFFFFFFFFFFF9 1 82 1
 80 37 79 30 97 LAST_BODY_MODIFYING_FEATURE_ID80 2 77 98 99 9000 0 0 0 0 3 5 0 0
 0 FFTFFFFFFFFFFT9 1 82 1 78 112 79 19 99 ENT_TIME_STAMP_200180 2 10 100 101 900
0 0 0 0 0 3 5 0 0 0 FFTFFFFFFFFFFF9 1 82 1 12 101 79 12 101 ATOM_ID_20011 0 
