**ABCDEFGHIJKLMNOPQRSTUVWXYZabcdefghijklmnopqrstuvwxyz**************************
**PARASOLID !"#$%&'()*+,-./:;<=>?@[\]^_`{|}~0123456789**************************
**PART1;
MC=AMD64;
MC_MODEL=Intel64 Family 6 Model 60 Stepping 3, GenuineIntel;
MC_ID=unknown;
OS=Windows_NT;
OS_RELEASE=unknown;
FRU=Parasolid Version 31.0, build 282,  2-25-2019;
APPL=SOLIDWORKS 2019-2019115;
SITE=;
USER=unknown;
FORMAT=text;
GUISE=transmit;
KEY=Through-Pin;
FILE=Through-Pin.x_t;
DATE=Tue Nov 12 17:14:49 2019;
**PART2;
SCH=SCH_3100282_31001;
USFLD_SIZE=0;
**PART3;
**END_OF_HEADER*****************************************************************
T51 : TRANSMIT FILE created by modeller version 310028223 SCH_3100282_31001_1300
6215 0 12 34 CCCCCCI4 mesh1006 0 I8 polyline1008 0 CCCCCCCDI5 owner1040 0 CCCCCC
I13 boundary_mesh1006 0 I17 boundary_polyline1008 0 CCCA16 index_map_offset0 0 1
 dA9 index_map82 0 A17 node_id_index_map82 0 A20 schema_embedding_map82 0 A5 chi
ld12 0 A14 lowest_node_id0 0 1 dA16 mesh_offset_data206 0 Z1 466 2 3 0 0 0 0 0 0
 1e3 1e-8 0 4 0 1 0 1 1 5 6 7 0 0 0 8 9 0 0 0 0 0 0 0 0 81 255 2 2 454 10 1 11 0
 0 0 0 12 70 11 CI9 list_type0 0 1 uI10 notransmit0 0 1 lCCCDCCDI12 finger_index
0 0 1 dI12 finger_block1012 0 CZ3 0 4 T1 0 0 10 20 1 13 13 13 255 5 35 0 1 0 14
 0 0 15 0 52 255 6 387 0 16 17 0 0 +0 0 .018 0 0 -1 .021 .707106781186547 .70710
6781186549 -1 0 0 31 255 7 328 0 9 18 0 0 +0 0 .018 0 0 1 1 0 0 .021 19 8 CCCCCC
CA5 owner12 0 Z8 12 0 1 15 0 19 V0 16 255 9 325 0 ?20 0 21 7 0 0 1 17 255 20 0 2
2 20 20 0 23 9 0 0 +16 21 318 0 ?24 9 25 18 0 0 1 17 24 0 26 24 24 0 27 21 0 0 +
16 25 311 0 ?28 21 29 30 0 0 1 31 18 321 0 21 30 7 0 -0 0 -.018 0 0 1 1 0 0 .021
 31 30 314 0 25 31 18 0 +0 0 -.0165 0 0 1 1 0 0 .0225 31 31 307 0 29 32 30 0 -0
 0 .0165 0 0 1 1 0 0 .0225 16 29 304 0 ?33 25 34 31 0 0 1 31 32 300 0 34 35 31 0
 -0 0 -.042 0 0 1 1 0 0 .0085 16 34 297 0 ?36 29 37 32 0 0 1 31 35 293 0 37 38 3
2 0 +0 0 -.0405 0 0 1 1 0 0 .01 16 37 290 0 ?39 34 40 35 0 0 1 31 38 286 0 40 41
 35 0 -0 0 .0405 0 0 1 1 0 0 .01 16 40 283 0 ?42 37 43 38 0 0 1 31 41 279 0 43 4
4 38 0 +0 0 .042 0 0 1 1 0 0 .0085 16 43 276 0 ?45 40 46 41 0 0 1 38 12 CCCCCCCC
CCCA17 intersection_data204 0 Z44 153 0 46 47 41 0 +48 49 50 51 51 52 16 46 151
 0 ?53 43 54 44 0 0 1 38 47 137 0 54 55 44 0 +48 49 56 57 57 58 51 255 48 34 0 1
4 59 60 61 -0 0 .018 0 0 -1 .0225 -1 0 0 51 49 218 0 62 0 63 64 +-.0225 0 0 1 0
 0 .01 0 0 -1 40 255 21 50 0 1 21 .000658068817689558 .3705996793430285 ??-.0225
 0 -.01 -.0222801597766065 .003137591485341405 -.00949502604899603 -.02170799665
251515 .00591716835440662 -.00806145884226973 -.0209552510204432 .00819313460588
893 -.00573345840917899 -.02032064507866245 .00966029935286853 -.002584301919855
325 -.0201692343562957 .00997256163083592 .000740280027543128 -.0204909539457770
5 .00929358953214766 .003691773775294925 -.02112403747765025 .00774758289034895
 .0063225753737834 -.021881832587978 .00523788149844042 .00851848562881312 -.022
41057664566025 .002004009583058085 .00979713966374938 -.02246449739964915 -.0012
63470055504256 .00991986105844452 -.0221036100801457 -.00420480932087079 .009073
01375371591 -.0214508340508656 -.00679056098729888 .00734086381005495 -.02069290
049387185 -.00883481008005937 .00468466976950152 -.02020248459199865 -.009905029
84902405 .001374912248088044 -.02023927525912605 -.00982963564865595 -.001838005
17264562 -.02068777179010805 -.00884681289281117 -.00466196328166472 -.021394889
32813555 -.00696481949779261 -.00717574312271335 -.0221166787341848 -.0041355195
2828873 -.00910480522752368 -.02248535193917855 -.000811756226510714 -.009966998
13528231 -.0225 125591950390223e-33 -.01 41 3 CI8 term_use0 0 1 cCZ1 51 H?-.0225
 125591950390223e-33 -.01 204 2 17 INTERSECTION_DATA17 Intersection data7 uv_typ
e0 0 1 u6 values0 1 1 fT84 52 4 0 .028 0 -3469446951953615e-33 .1399044617050422
 .02749502604899605 .319149527714158 .000219840223393525 .266115079743864 .02606
145884226975 .633186863732762 .000792003347484856 .3727085050720235 .02373345840
9179 .96021256590713 .00154474897955681 .4437692183519465 .0205843019198553 1.30
9399487666344 .002179354921337565 .459193126339841 .01725971997245685 1.64489211
086967 .00233076564370429 .425798839301468 .01430822622470506 1.94892004128094 .
00200904605422297 .3515325260231785 .0116774246262166 2.255259946461415 .0013759
62522349752 .234950384318492 .00948151437118688 2.59030077592522 .00061816741202
201 .0891852757154747 .00820286033625062 2.93982548933743 894233543397779e-19 6.
2270015287107 .00808013894155548 3.268278255288535 3550260035083475e-20 6.095199
65582058 .00892698624628409 3.5755679773225 .000396389919854311 5.97660233603231
 .01065913618994504 3.88806870457921 .001049165949134414 5.87966512451899 .01331
533023049848 4.224834209959695 .001807099506128165 5.82733767717156 .01662508775
191195 4.57446084330012 .00229751540800136 5.83106620497559 .0198380051726456 4.
89724043134668 .002260724740873945 5.87908500767928 .0226619632816647 5.19737538
076926 .001812228209891955 5.968468149657 .02517574312271335 5.5127022493287 .00
1105110671864462 6.09833349948068 .0271048052275237 5.85683350055541 .0003833212
658151915 6.24709942139104 .0279669981352823 6.20192026825065 1464806082144068e-
20 558186446178768e-32 .028 1255919503902228e-32 0 14 255 62 183 65 ?66 67 68 5
 49 -0 0 66 67 19 50 255 63 104 0 67 49 69 0 +0 0 .042 0 0 1 1 0 0 141 255 64 47
 70 70 49 141 70 44 64 64 49 14 67 92 71 ?62 72 73 5 63 +0 0 62 72 19 50 69 103
 0 74 63 75 0 +0 0 -.042 0 0 1 1 0 0 14 74 96 76 ?77 78 79 5 69 -0 0 77 78 19 51
 75 102 0 72 69 80 0 -0 0 .042 0 0 -1 .01 -1 0 0 14 72 87 81 ?67 77 82 5 75 -77
 77 67 77 19 50 80 3 0 83 75 59 0 +0 0 .018 0 0 1 1 0 0 14 83 1 84 ?78 14 22 5 8
0 +0 0 78 14 19 50 59 28 0 78 80 48 0 +0 0 -.018 0 0 1 1 0 0 14 78 21 85 ?74 83
 26 5 59 -0 0 74 83 19 81 1 85 460 86 78 87 0 84 88 89 15 255 26 319 0 24 78 90
 13 19 13 0 0 0 0 0 0 8 14 14 14 31 88 ?83 0 91 5 48 -0 0 83 0 19 81 1 88 461 86
 14 92 0 85 93 94 15 91 312 0 28 14 95 17 28 0 91 28 28 0 96 25 0 0 +15 95 305 0
 33 14 97 17 33 0 95 33 33 0 98 29 0 0 +15 97 145 0 53 14 99 17 53 0 97 53 53 0
 100 46 0 0 +15 99 129 0 101 14 0 17 101 0 99 101 101 0 102 54 0 0 +17 102 0 68
 102 102 0 101 54 0 0 -16 54 135 0 ?101 46 103 47 0 0 1 16 103 57 0 ?104 54 105
 55 0 0 1 17 104 0 106 104 104 0 107 103 0 0 +16 105 69 0 ?108 103 0 109 0 0 1 3
1 55 60 0 103 109 47 0 -0 0 -.018 0 0 1 1 0 0 .01 31 109 105 0 105 0 55 0 -0 0 .
018 0 0 1 1 0 0 .01 17 108 0 110 108 108 0 111 105 0 0 +15 110 64 0 108 83 0 17
 111 0 112 111 111 0 108 105 0 0 -15 112 90 0 111 72 0 15 106 86 0 104 77 0 17 1
07 0 90 107 107 0 104 103 0 0 -15 90 59 0 107 78 0 14 77 82 93 ?72 74 113 5 75 -
72 72 72 74 19 81 1 93 462 86 77 114 0 88 115 116 15 113 291 0 39 77 106 17 39 0
 113 39 39 0 117 37 0 0 +17 117 0 118 117 117 0 39 37 0 0 -15 118 356 0 117 119
 0 14 119 354 115 ?120 66 121 5 122 +0 0 120 66 19 81 1 115 463 86 119 123 0 93
 124 125 14 120 367 124 ?16 119 126 5 17 +0 0 16 119 19 14 66 341 127 ?119 62 12
8 5 60 +0 0 119 62 19 15 121 355 0 129 119 118 52 122 361 0 119 60 17 0 +0 0 -.0
405 0 0 1 .01 .707106781186549 .707106781186546 1 0 0 52 60 348 0 66 48 122 0 +0
 0 .042 0 0 -1 .0085 .707106781186546 .70710678118655 -1 0 0 52 17 374 0 120 122
 6 0 +0 0 -.0165 0 0 1 .0225 .707106781186551 .707106781186544 1 0 0 17 129 0 12
1 129 129 0 36 34 0 0 -17 36 0 79 36 36 0 129 34 0 0 +15 79 298 0 36 74 0 81 1 1
27 465 86 66 130 0 124 131 132 15 128 342 0 133 66 134 17 133 0 128 133 133 0 42
 40 0 0 -15 134 343 0 135 66 0 17 135 0 134 135 135 0 45 43 0 0 -17 45 0 73 45 4
5 0 135 43 0 0 +15 73 277 0 45 67 0 17 42 0 82 42 42 0 133 40 0 0 +15 82 284 0 4
2 72 112 80 255 1 86 136 137 9000 1 1 1 1 1 1 1 1 0 FFFFTFTFFFFFFF1 81 1 130 425
 138 66 0 127 139 123 140 81 1 124 464 86 120 141 0 115 127 142 81 1 131 466 86
 16 143 0 127 0 144 82 255 1 132 -1159134923 14 16 380 131 ?0 120 145 5 6 +0 0 0
 120 19 81 1 143 428 138 16 0 131 141 0 146 82 1 144 -1155399371 80 1 138 0 147
 8001 0 0 0 0 3 5 0 0 0 FFFFTFTFFFFFFF2 81 1 141 427 138 120 0 124 123 143 148 8
3 255 3 146 .2 .2 .2 81 1 123 426 138 119 0 115 130 141 149 83 3 148 .2 .2 .2 83
 3 149 .2 .2 .2 79 255 15 147 SDL/TYSA_COLOUR15 145 381 0 98 16 150 17 98 0 145
 98 98 0 33 29 0 0 -15 150 382 0 23 16 0 17 23 0 150 23 23 0 20 9 0 0 -82 1 142
 -1156644555 81 1 139 424 138 62 0 65 151 130 152 83 3 140 .2 .2 .2 81 1 65 455
 86 62 139 0 0 71 153 81 1 151 423 138 67 0 71 154 139 155 83 3 152 .2 .2 .2 81
 1 71 456 86 67 151 0 65 76 156 81 1 154 422 138 72 0 81 114 151 157 83 3 155 .2
 .2 .2 81 1 81 458 86 72 154 0 76 84 158 81 1 114 421 138 77 0 93 159 154 160 83
 3 157 .2 .2 .2 81 1 159 420 138 74 0 76 87 114 161 83 3 160 .2 .2 .2 81 1 76 45
7 86 74 159 0 71 81 162 81 1 87 419 138 78 0 85 163 159 164 83 3 161 .2 .2 .2 81
 1 163 418 138 83 0 84 92 87 165 83 3 164 .2 .2 .2 81 1 84 459 86 83 163 0 81 85
 166 81 1 92 417 138 14 0 88 0 163 167 83 3 165 .2 .2 .2 83 3 167 .2 .2 .2 82 1
 166 550764853 82 1 162 550502709 82 1 158 550633781 82 1 156 550371637 82 1 153
 -110427853 79 14 137 SWEntUnchanged15 126 368 0 27 120 168 17 27 0 126 27 27 0
 24 21 0 0 -15 168 369 0 96 120 0 17 96 0 168 96 96 0 28 25 0 0 -82 1 125 -11578
89739 82 1 116 553189685 15 68 186 0 102 62 169 15 169 187 0 100 62 0 17 100 0 1
69 100 100 0 53 46 0 0 -82 1 94 551158069 82 1 89 550895925 15 22 326 0 20 83 11
0 141 61 47 170 170 48 141 170 44 61 61 48 40 21 56 0 1 21 .000658068817689555 .
3705996793430285 ??.0225 0 -.01 .0222801597766065 -.003137591485341405 -.0094950
2604899603 .02170799665251515 -.00591716835440663 -.00806145884226973 .020955251
0204432 -.00819313460588893 -.00573345840917899 .02032064507866245 -.00966029935
286853 -.00258430191985532 .0201692343562957 -.00997256163083592 .00074028002754
3134 .02049095394577705 -.00929358953214766 .00369177377529493 .0211240374776502
5 -.00774758289034895 .0063225753737834 .021881832587978 -.00523788149844042 .00
851848562881312 .02241057664566025 -.002004009583058085 .00979713966374938 .0224
6449739964915 .00126347005550426 .00991986105844452 .0221036100801457 .004204809
3208708 .00907301375371591 .0214508340508656 .00679056098729889 .007340863810054
94 .02069290049387185 .00883481008005937 .0046846697695015 .02020248459199865 .0
0990502984902406 .001374912248088036 .02023927525912605 .00982963564865595 -.001
838005172645625 .02068777179010805 .00884681289281117 -.00466196328166473 .02139
488932813555 .00696481949779261 -.00717574312271335 .0221166787341848 .004135519
528288725 -.00910480522752368 .02248535193917855 .00081175622651071 -.0099669981
3528231 .0225 3102067982401475e-34 -.01 41 1 57 H?.0225 3102067982401475e-34 -.0
1 204 84 58 4 3.141592653589795 .028 0 .045 3.281497115294835 .02749502604899605
 5.96403577946543 .0447801597766065 3.407707733333655 .0260614588422697 5.649998
44344682 .04420799665251515 3.514301158661815 .023733458409179 5.32297274127246
 .0434552510204432 3.58536187194174 .0205843019198553 4.97378581951324 .04282064
507866245 3.600785779929635 .01725971997245685 4.63829319630992 .042669234356295
7 3.56739149289126 .01430822622470506 4.334265265898645 .04299095394577705 3.493
12517961297 .0116774246262166 4.02792536071817 .04362403747765025 3.376543037908
285 .00948151437118688 3.692884531254365 .044381832587978 3.23077792930527 .0082
0286033625062 3.34335981784216 .0449105766456602 3.085408875120905 .008080138941
55548 3.014907051891055 .04496449739964915 2.95360700223079 .00892698624628409 2
.707617329857085 .0446036100801457 2.835009682442515 .01065913618994506 2.395116
602600375 .0439508340508656 2.7380724709292 .0133153302304985 2.05835109721989 .
04319290049387185 2.685745023581765 .01662508775191195 1.70872446387946 .0427024
8459199865 2.689473551385795 .01983800517264565 1.38594487583291 .04273927525912
605 2.73749235408949 .02266196328166475 1.085809926410326 .04318777179010805 2.8
268754960672 .02517574312271335 .770483057850884 .04389488932813555 2.9567408458
9089 .0271048052275237 .426351806624175 .0446166787341848 3.105506767801245 .027
9669981352823 .0812650389289369 .04498535193917855 3.141592653589795 .028 310206
7982401475e-32 .045 19 15 36 0 1 0 8 5 S0 74 4 CI16 index_map_offset0 0 1 dCCZ20
 13 10 0 0 171 131 172 173 174 175 176 11 143 2 0 0 0 0 0 0 0 0 0 0 81 5 171 11
 177 1 0 172 0 0 178 0 0 0 0 81 2 172 113 179 1 171 173 0 0 0 180 81 2 173 119 1
81 1 172 174 0 0 0 182 81 2 174 245 183 1 173 175 0 0 184 0 81 2 175 270 185 1 1
74 176 0 0 0 186 81 1 176 407 187 1 175 11 0 0 188 81 2 11 414 189 1 176 2 0 0 0
 0 80 2 189 190 191 9000 0 0 0 0 3 5 0 0 0 FFTFFFFFFFFFFF9 1 79 16 191 BODY_RECI
PE_200180 1 187 192 193 9000 1 1 1 1 1 1 1 1 0 FFTFFFFFFFFFFF1 82 1 188 5513390
 79 10 193 BODY_MATCH80 2 185 194 195 9000 0 0 0 0 3 5 0 0 0 FFTFFFFFFFFFFF9 1 8
2 1 186 1 79 24 195 BODY_IN_LIGHTWEIGHT_PERM80 2 183 196 197 8004 0 0 0 0 3 5 0
 0 0 FFTFFFFFFFFFFF2 3 83 1 184 72e2 79 16 197 SDL/TYSA_DENSITY80 2 181 198 199
 9000 0 0 0 0 3 5 0 0 0 FFTFFFFFFFFFFF9 1 82 1 182 127 79 30 199 LAST_BODY_MODIF
YING_FEATURE_ID80 2 179 200 201 9000 0 0 0 0 3 5 0 0 0 FFTFFFFFFFFFFT9 1 82 1 18
0 222 79 19 201 ENT_TIME_STAMP_200180 5 177 202 203 9000 0 0 0 0 3 6 0 0 0 FFTTT
TTTFTTFTT2 2 2 2 2 83 1 178 1 79 19 203 BODY_SCALING_FACTOR80 2 10 204 205 9000
 0 0 0 0 3 5 0 0 0 FFTFFFFFFFFFFF9 1 82 1 12 107 79 12 205 ATOM_ID_20011 0 
