**ABCDEFGHIJKLMNOPQRSTUVWXYZabcdefghijklmnopqrstuvwxyz**************************
**PARASOLID !"#$%&'()*+,-./:;<=>?@[\]^_`{|}~0123456789**************************
**PART1;
MC=AMD64;
MC_MODEL=Intel64 Family 6 Model 60 Stepping 3, GenuineIntel;
MC_ID=unknown;
OS=Windows_NT;
OS_RELEASE=unknown;
FRU=Parasolid Version 31.0, build 282,  2-25-2019;
APPL=SOLIDWORKS 2019-2019115;
SITE=;
USER=unknown;
FORMAT=text;
GUISE=transmit;
KEY=Through-Rod;
FILE=Through-Rod.x_t;
DATE=Tue Nov 12 17:15:17 2019;
**PART2;
SCH=SCH_3100282_31001;
USFLD_SIZE=0;
**PART3;
**END_OF_HEADER*****************************************************************
T51 : TRANSMIT FILE created by modeller version 310028223 SCH_3100282_31001_1300
6215 0 12 34 CCCCCCI4 mesh1006 0 I8 polyline1008 0 CCCCCCCDI5 owner1040 0 CCCCCC
I13 boundary_mesh1006 0 I17 boundary_polyline1008 0 CCCA16 index_map_offset0 0 1
 dA9 index_map82 0 A17 node_id_index_map82 0 A20 schema_embedding_map82 0 A5 chi
ld12 0 A14 lowest_node_id0 0 1 dA16 mesh_offset_data206 0 Z1 1418 2 3 0 0 0 0 0
 0 1e3 1e-8 0 4 0 1 0 1 1 5 6 7 0 0 0 8 9 0 0 0 0 0 0 0 0 81 255 2 2 1404 10 1 1
1 0 0 0 0 12 70 11 CI9 list_type0 0 1 uI10 notransmit0 0 1 lCCCDCCDI12 finger_in
dex0 0 1 dI12 finger_block1012 0 CZ3 0 4 T1 0 0 10 20 1 13 13 13 255 5 37 0 1 0
 14 0 0 15 0 50 255 6 314 0 1 16 0 17 +0 -.00932783431950576 -.0325906685551618
 0 -.92718385456679 -.3746065934159065 0 .3746065934159065 -.92718385456679 38 1
2 CCCCCCCCCCCA17 intersection_data204 0 Z7 317 0 1 18 0 19 +16 6 20 21 21 22 19
 8 CCCCCCCA5 owner12 0 Z8 13 0 1 15 0 23 V0 16 255 9 294 0 ?24 0 25 18 0 0 1 17
 255 24 0 26 24 24 0 27 9 0 0 +16 25 287 0 ?28 9 29 30 0 0 1 38 18 297 0 9 30 7
 0 +31 32 33 34 34 35 38 30 290 0 25 36 18 0 +37 38 39 40 40 41 50 31 132 0 42 3
7 43 44 +0 -.0056190989012386 -.03109224218149815 0 -.92718385456679 -.374606593
4159065 0 .3746065934159065 -.92718385456679 59 255 32 298 0 1 38 45 46 +0 45 40
 255 22 33 0 1 22 .00019035389622162 .3551435973397965 ??0 -.004238189799705275
 -.0345101121444663 -.0002678148997532505 -.00424294874486967 -.0344983333418537
5 -.001239688588684094 -.0043445765950532 -.0342467955859235 -.00124638963929725
 -.004345785475819505 -.0342438035010315 -.00210942404552987 -.00458117706761912
 -.03366118886676355 -.002717238711127775 -.00491966683706818 -.0328233972883842
 -.00298787891527587 -.0053108382464223 -.0318552140756595 -.00290679146390189 -
.00570350749610298 -.030883323578034 -.002504526260023695 -.00605510050320096 -.
03001310034841265 -.001837269129324085 -.00633264841241117 -.02932614516713325 -
.000973587929261929 -.00651191835486753 -.02888243648934685 3226191126127145e-34
 -.00657431903301372 -.02872798939122295 .000603767549759165 -.00655073242708927
 -.02878636828946325 .001544891659851755 -.00640963132945971 -.0291356057612088
 .00232502775533913 -.00614936703419786 -.0297797824968251 .002835906239576315 -
.00579509615084744 -.0306566337027539 .002999369661866725 -.00539171899102937 -.
031655027207988 .00280060935461607 -.00499637522390468 -.03263353736857845 .0022
94394968189405 -.00466007399970423 -.0334659121073848 .001567867085241125 -.0044
1354307104196 -.0340760975678773 .000695554705247885 -.00427065642577588 -.03442
975442510415 167763425649553e-32 -.00423818979970527 -.0345101121444663 41 3 CI8
 term_use0 0 1 cCZ1 34 H?167763425649553e-32 -.00423818979970527 -.0345101121444
663 204 2 17 INTERSECTION_DATA17 Intersection data7 uv_type0 0 1 u6 values0 1 1
 fT44 35 2 .003686291501015245 0 .00367358765317049 -.0002678148997532505 .00340
229544430459 -.001239688588684094 .0033990683767955 -.00124638963929725 .0027706
98252145095 -.00210942404552987 .001867110927740325 -.002717238711127775 .000822
891695539535 -.00298787891527587 -.0002253259722278025 -.00290679146390189 -.001
163891959259488 -.002504526260023695 -.001904796988931685 -.001837269129324085 -
.00238335221355189 -.000973587929261929 -.002549928774784235 3226191126127145e-3
4 -.002486965104792805 .000603767549759166 -.00211030035807037 .0015448916598517
55 -.001415533368283586 .00232502775533913 -.000469818878530635 .002835906239576
315 .000606983203728028 .002999369661866725 .00166234040798782 .0028006093546160
7 .002560085482717635 .002294394968189405 .003218191701335525 .00156786708524112
5 .003599622908840835 .000695554705247885 .00368629150101525 167763425649553e-32
 59 38 291 0 1 47 32 48 +1 45 56 255 45 316 0 49 32 16 50 +R37 31 7 .004 .004 1
 1 0 0 0 0 141 255 46 18 46 46 32 14 255 49 307 51 ?0 52 53 5 45 +0 0 0 52 23 54
 255 16 315 0 1 45 6 54 -0 0 -.045 -1 0 0 .015 .003 0 0 1 141 50 38 55 55 45 54
 37 133 0 56 57 31 58 -0 0 -.045 -1 0 0 .015 .007 0 0 1 14 56 125 59 ?60 61 62 5
 37 -0 0 61 63 23 54 57 134 0 61 64 37 0 -0 .008 -.0234361413471522 1 0 0 .008 .
007 0 0 -1 141 58 45 65 65 37 141 65 30 58 58 37 14 61 121 66 ?56 67 68 5 57 -0
 0 67 56 23 51 255 64 135 0 67 0 57 0 -0 -1387778780781446e-32 -.02 0 -100969273
4214512e-30 -1 .007 0 1 -1009692734214512e-30 14 67 117 69 ?61 42 70 5 64 -0 0 4
2 61 23 81 1 69 1408 71 67 72 0 66 73 74 14 42 114 73 ?67 63 26 5 31 -0 0 60 67
 23 15 255 70 226 0 75 67 76 13 23 14 0 0 0 0 0 0 8 14 14 14 33 77 ?78 0 79 5 80
 -0 0 78 0 23 81 1 77 1410 71 14 81 0 73 82 83 14 78 1 82 ?84 14 85 5 86 +0 0 84
 14 23 15 79 260 0 87 14 88 51 80 36 0 14 86 89 0 -0 0 .695 0 0 -1 .01 -1 0 0 50
 86 3 0 78 90 80 0 +0 0 .695 0 0 1 1 0 0 52 255 89 194 0 60 80 91 0 +0 0 0 0 0 -
1 .0155 .707106781186525 .70710678118657 -1 0 0 14 60 187 92 ?93 56 94 5 89 +0 0
 93 42 23 52 91 207 0 93 89 95 0 +0 0 -.0185 0 0 1 .017 .70710678118657 .7071067
81186525 1 0 0 14 93 200 96 ?97 60 98 5 91 +0 0 97 60 23 54 95 244 0 97 91 47 0
 +0 -158971732762435e-31 -.022 0 0 1 .009 .002 1 0 0 14 97 237 99 ?52 93 100 5 9
5 -0 0 52 93 23 52 47 278 0 52 95 38 0 +0 0 .695 0 0 -1 .007 .707106781186547 .7
07106781186549 -1 0 0 14 52 271 101 ?49 97 102 5 47 +0 0 49 97 23 81 1 101 1415
 71 52 103 0 99 104 105 15 102 272 0 106 52 107 17 106 0 102 106 106 0 87 29 0 0
 -15 107 273 0 108 52 0 17 108 0 107 108 108 0 109 110 0 0 -17 109 0 85 109 109
 0 108 110 0 0 +16 110 253 0 ?109 29 111 112 0 0 1 16 29 259 0 ?87 25 110 36 0 0
 1 16 111 225 0 ?75 110 113 114 0 0 1 31 255 112 256 0 110 114 36 0 +0 0 .695 0
 0 1 1 0 0 .007 31 114 228 0 111 115 112 0 -0 -158971732762435e-31 -.022 0 0 1 1
 0 0 .007 31 36 262 0 29 112 30 0 -0 0 .692 0 0 1 1 0 0 .01 31 115 222 0 113 116
 114 0 +0 -158971732762435e-31 -.02 0 0 1 1 0 0 .009 16 113 219 0 ?117 111 118 1
15 0 0 1 31 116 177 0 118 119 115 0 -0 0 -.02 0 0 1 1 0 0 .0155 16 118 174 0 ?12
0 113 121 116 0 0 1 31 119 171 0 121 122 116 0 -0 0 -.001499999999999918 0 0 1 1
 0 0 .017 16 121 168 0 ?123 118 124 119 0 0 1 31 122 165 0 124 125 119 0 +0 0 -.
0185 0 0 1 1 0 0 .017 16 124 162 0 ?126 121 127 122 0 0 1 31 125 159 0 127 128 1
22 0 +0 0 0 0 0 1 1 0 0 .0155 16 127 156 0 ?129 124 130 125 0 0 1 31 128 31 0 13
0 131 125 0 +0 0 0 0 0 1 1 0 0 .01 16 130 59 0 ?132 127 133 128 0 0 1 31 131 137
 0 133 134 128 0 +0 .00521739130434781 -.0309366139220558 0 -.937559071862949 .3
47826086956523 0 -.347826086956523 -.937559071862949 .007 16 133 108 0 ?135 130
 136 131 0 0 1 31 134 138 0 136 0 131 0 +0 -1734723475976805e-32 -.0234361413471
522 0 127675647831893e-29 1 0 -1 1332267629550188e-30 .007 16 136 107 0 ?137 133
 0 134 0 0 1 17 137 0 76 137 137 0 138 136 0 0 +15 76 119 0 137 67 0 17 138 0 13
9 138 138 0 137 136 0 0 -15 139 124 0 138 61 0 17 135 0 68 135 135 0 140 133 0 0
 +15 68 123 0 135 61 139 17 140 0 141 140 140 0 135 133 0 0 -15 141 128 0 140 56
 0 17 132 0 88 132 132 0 142 130 0 0 +15 88 34 0 132 14 0 17 142 0 143 142 142 0
 132 130 0 0 -15 143 79 0 142 63 0 14 63 77 104 ?42 144 145 5 146 +0 0 56 144 23
 81 1 104 1416 71 63 147 0 101 148 149 14 144 74 148 ?63 84 150 5 43 -0 0 63 84
 23 15 145 157 0 129 63 143 50 146 84 0 63 43 90 0 +0 0 0 0 0 1 1 0 0 50 43 85 0
 144 31 146 0 +0 0 -.02 0 0 1 1 0 0 51 90 83 0 84 146 86 0 +0 0 -.02 0 0 1 .017
 1 0 0 14 84 69 151 ?144 78 152 5 90 +0 0 144 78 23 81 1 151 1418 71 84 153 0 14
8 0 154 15 152 169 0 123 84 155 17 123 0 152 123 123 0 156 121 0 0 +15 155 163 0
 126 84 0 17 126 0 155 126 126 0 157 124 0 0 +17 157 0 158 157 157 0 126 124 0 0
 -15 158 202 0 157 93 0 17 156 0 94 156 156 0 123 121 0 0 -15 94 188 0 156 60 15
9 15 159 189 0 160 60 0 17 160 0 159 160 160 0 129 127 0 0 -17 129 0 145 129 129
 0 160 127 0 0 +80 255 1 71 161 162 9000 1 1 1 1 1 1 1 1 0 FFFFTFTFFFFFFF1 81 1
 153 1363 163 84 0 151 164 165 166 81 1 148 1417 71 144 165 0 104 151 167 82 255
 1 154 1824260462 81 1 165 1364 163 144 0 148 153 147 168 82 1 167 1822294383 80
 1 163 0 169 8001 0 0 0 0 3 5 0 0 0 FFFFTFTFFFFFFF2 81 1 147 1365 163 63 0 104 1
65 170 171 83 255 3 168 .894117647058824 .913725490196078 .929411764705882 81 1
 170 1366 163 42 0 73 147 72 172 83 3 171 .894117647058824 .913725490196078 .929
411764705882 81 1 73 1409 71 42 170 0 69 77 173 81 1 72 1367 163 67 0 69 170 174
 175 83 3 172 .894117647058824 .913725490196078 .929411764705882 81 1 174 1368 1
63 61 0 66 72 176 177 83 3 175 .894117647058824 .913725490196078 .92941176470588
2 81 1 66 1407 71 61 174 0 59 69 178 81 1 176 1369 163 56 0 59 174 179 180 83 3
 177 .894117647058824 .913725490196078 .929411764705882 81 1 59 1406 71 56 176 0
 51 66 181 81 1 179 1370 163 60 0 92 176 182 183 83 3 180 .894117647058824 .9137
25490196078 .929411764705882 81 1 92 1412 71 60 179 0 82 96 184 81 1 182 1371 16
3 93 0 96 179 185 186 83 3 183 .894117647058824 .913725490196078 .92941176470588
2 81 1 96 1413 71 93 182 0 92 99 187 81 1 185 1372 163 97 0 99 182 103 188 83 3
 186 .894117647058824 .913725490196078 .929411764705882 81 1 99 1414 71 97 185 0
 96 101 189 81 1 103 1373 163 52 0 101 185 190 191 83 3 188 .894117647058824 .91
3725490196078 .929411764705882 81 1 190 1374 163 49 0 51 103 0 192 83 3 191 .894
117647058824 .913725490196078 .929411764705882 81 1 51 1405 71 49 190 0 0 59 193
 83 3 192 .894117647058824 .913725490196078 .929411764705882 82 1 193 -273612427
 82 1 189 1964310895 82 1 187 1958543726 81 1 82 1411 71 78 164 0 77 92 194 82 1
 184 1957298542 81 1 164 1362 163 78 0 82 81 153 195 82 1 194 1813840243 81 1 81
 1361 163 14 0 77 0 164 196 83 3 195 .894117647058824 .913725490196078 .92941176
4705882 83 3 196 .894117647058824 .913725490196078 .929411764705882 82 1 181 190
1199733 82 1 178 1900806509 82 1 173 1904083317 79 255 15 169 SDL/TYSA_COLOUR83
 3 166 .894117647058824 .913725490196078 .929411764705882 79 14 162 SWEntUnchang
ed15 150 220 0 117 144 197 17 117 0 150 117 117 0 198 113 0 0 +15 197 175 0 120
 144 0 17 120 0 197 120 120 0 199 118 0 0 +17 199 0 98 199 199 0 120 118 0 0 -15
 98 201 0 199 93 158 17 198 0 200 198 198 0 117 113 0 0 -15 200 239 0 198 97 0 8
2 1 149 1823998318 17 75 0 70 75 75 0 201 111 0 0 +17 201 0 100 201 201 0 75 111
 0 0 -15 100 238 0 201 97 200 17 87 0 79 87 87 0 106 29 0 0 +15 85 254 0 109 78
 0 82 1 105 -449773197 82 1 83 1816330611 15 26 295 0 24 42 0 82 1 74 1900085615
 15 62 288 0 28 56 141 17 28 0 62 28 28 0 202 25 0 0 +17 202 0 203 202 202 0 28
 25 0 0 -15 203 309 0 202 49 0 141 55 32 50 50 45 141 54 7 54 54 16 15 53 308 0
 27 49 203 17 27 0 53 27 27 0 24 9 0 0 -141 48 30 48 48 38 141 44 45 204 204 31
 141 204 18 44 44 31 40 21 39 0 1 21 .0004348207072487985 .3534715413657225 ??0
 -.00529795014531495 -.03900569234541995 .00162296097891173 -.00540957701897695
 -.03884981892975515 .00365835653222929 -.00589607895509476 -.0381579111571737 .
00535358825910861 -.00671833351541664 -.03694354683387055 .00653475516077082 -.0
0780867114625106 -.0352511381381832 .00699852921102236 -.00905050454884941 -.033
2184759765523 .00661711455901141 -.0102798986053928 -.03110616370392055 .0054250
6476245797 -.0113329798586217 -.02922528237611485 .003604747206320765 -.01209281
791458144 -.02783072378269505 .001408790949438052 -.01250034212887142 -.02707069
76248515 752777929429667e-33 -.01256817766267664 -.0269433970459725 -.0022717051
68277835 -.01238853573988202 -.0272800275865049 -.0042869613017562 -.01186919970
6792 -.02824424261150285 -.00584389460672195 -.01105498670739092 -.0297278370929
4215 -.00678251341577108 -.01000377135446932 -.03158873453170055 -.0069717174689
7703 -.00879962985936316 -.0336376388657674 -.00634022365929814 -.00756291576761
783 -.0356404284587259 -.0049219894395697 -.00645743810877076 -.0373348194978394
5 -.002908242491693585 -.00566633050345289 -.03848718738895045 -.000624901432757
584 -.00531433814850182 -.0389828767941055 579562026488913e-31 -.005297950145315
19 -.0390056923454193 41 1 40 H?579562026488913e-31 -.00529795014531519 -.039005
6923454193 204 42 41 2 5.55937596228672 -3.141592653589795 5.5617671363046 -2.90
761196637957 5.57191683231594 -2.59166874016448 5.58810850870863 -2.270864413689
675 5.60784535419176 -1.937438159067585 5.62814090770271 -1.5912960862762 5.6461
8661440817 -1.238519431498664 5.66019911981187 -.886729734920942 5.6695599266655
6 -.540965519828474 5.67433979017029 -.202639835317517 5.67511977943947 -1075397
04204238e-30 5.67304455719494 .3305140617643355 5.66686698040305 .65912205128925
2 5.65662136603046 .987845862995759 5.64229858953429 1.32086936055223 5.62421623
511222 1.66071946356795 5.60356062684119 2.008455492923765 5.58309788199092 2.36
178685080606 5.56717815330368 2.713140666163435 5.55972849506847 3.0522020191522
65 5.55937596228675 -3.141592653589785 19 15 38 0 1 0 8 5 S0 141 19 45 19 19 7 4
0 20 20 0 1 20 .0001903538962216205 .3552967299243025 ??-.0002678148997532505 -.
00795168416313683 -.03599675971551735 .000695554705247885 -.00797939184404304 -.
03592818079876775 .001567867085241125 -.00812227848930912 -.0355745239415409 .00
2294394968189405 -.00836880941797139 -.0349643384810484 .00280060935461607 -.008
70511064217184 -.03413196374224205 .002999369661866725 -.00910045440929653 -.033
15345358165165 .002835906239576315 -.0095038315691146 -.0321550600764175 .002325
02775533913 -.00985810245246502 -.0312782088704887 .001544891659851755 -.0101183
6674772686 -.03063403213487245 .000603767549759165 -.01025946784535642 -.0302847
946631269 3226191126127145e-34 -.01028305445128088 -.0302264157648866 -.00097358
7929261929 -.0102206537731347 -.03038086286301045 -.001837269129324085 -.0100413
8383067834 -.0308245715407969 -.002504526260023695 -.00976383592146812 -.0315115
267220763 -.00290679146390189 -.00941224291437015 -.0323817499516976 -.002987878
91527587 -.00901957366468946 -.03335364044932315 -.002717238711127775 -.00862840
225533535 -.03432182366204785 -.00210942404552987 -.00828991248588628 -.03515961
524042715 -.00124638963929725 -.00805452089408667 -.0357422298746951 -.000267814
8997532505 -.00795168416313683 -.03599675971551735 41 1 21 H?-.00026781489975325
05 -.00795168416313683 -.03599675971551735 204 80 22 4 5.55972849506847 3.052202
019152265 .003673587653170485 -.0002678148997532505 5.5617671363046 -2.907611966
37957 .003599622908840835 .000695554705247885 5.57191683231594 -2.59166874016448
 .00321819170133552 .001567867085241125 5.58810850870863 -2.270864413689675 .002
56008548271763 .002294394968189405 5.60784535419176 -1.937438159067585 .00166234
0407987815 .00280060935461607 5.62814090770271 -1.5912960862762 .000606983203728
024 .002999369661866725 5.64618661440817 -1.238519431498664 -.000469818878530639
 .002835906239576315 5.66019911981187 -.886729734920942 -.00141553336828359 .002
32502775533913 5.66955992666556 -.540965519828474 -.00211030035807037 .001544891
659851755 5.67433979017029 -.202639835317517 -.00248696510479281 .00060376754975
9166 5.67511977943947 -107539704204238e-30 -.00254992877478424 3226191126127145e
-34 5.67304455719494 .3305140617643355 -.002383352213551895 -.000973587929261929
 5.66686698040305 .659122051289252 -.00190479698893169 -.001837269129324085 5.65
662136603046 .987845862995759 -.001163891959259492 -.002504526260023695 5.642298
58953429 1.32086936055223 -.000225325972227804 -.00290679146390189 5.62421623511
222 1.66071946356795 .000822891695539531 -.00298787891527587 5.60356062684119 2.
008455492923765 .001867110927740325 -.002717238711127775 5.58309788199092 2.3617
8685080606 .002770698252145095 -.00210942404552987 5.56717815330368 2.7131406661
63435 .003399068376795495 -.00124638963929725 5.55972849506847 3.052202019152265
 .003673587653170485 -.0002678148997532505 141 17 7 17 17 6 74 4 CI16 index_map_
offset0 0 1 dCCZ20 13 10 0 0 205 151 206 207 208 209 210 11 190 2 0 0 0 0 0 0 0
 0 0 0 81 5 205 12 211 1 0 206 0 0 212 0 0 0 0 81 2 206 140 213 1 205 207 0 0 0
 214 81 2 207 147 215 1 206 208 0 0 0 216 81 2 208 324 217 1 207 209 0 0 218 0 8
1 2 209 517 219 1 208 220 0 0 0 221 81 2 210 1047 222 1 223 11 223 0 0 0 81 2 11
 1358 224 1 210 2 0 0 0 0 80 2 224 225 226 9000 0 0 0 0 3 5 0 0 0 FFTFFFFFFFFFFF
9 1 79 16 226 BODY_RECIPE_200180 2 222 227 228 9000 0 0 0 0 3 6 0 0 0 FFTFFFFFFF
FFFF9 1 81 2 223 1046 222 1 229 210 229 210 0 0 81 2 229 1045 222 1 230 223 230
 223 0 0 81 2 230 1032 222 1 220 229 220 229 0 0 81 2 220 1007 222 1 209 230 0 2
30 0 0 79 23 228 EXPLODE_LINES_BODY_200180 2 219 231 232 9000 0 0 0 0 3 5 0 0 0
 FFTFFFFFFFFFFF9 1 82 1 221 1 79 24 232 BODY_IN_LIGHTWEIGHT_PERM80 2 217 233 234
 8004 0 0 0 0 3 5 0 0 0 FFTFFFFFFFFFFF2 3 83 1 218 79e2 79 16 234 SDL/TYSA_DENSI
TY80 2 215 235 236 9000 0 0 0 0 3 5 0 0 0 FFTFFFFFFFFFFF9 1 82 1 216 166 79 30 2
36 LAST_BODY_MODIFYING_FEATURE_ID80 2 213 237 238 9000 0 0 0 0 3 5 0 0 0 FFTFFFF
FFFFFFT9 1 82 1 214 291 79 19 238 ENT_TIME_STAMP_200180 5 211 239 240 9000 0 0 0
 0 3 6 0 0 0 FFTTTTTTFTTFTT2 2 2 2 2 83 1 212 1 79 19 240 BODY_SCALING_FACTOR80
 2 10 241 242 9000 0 0 0 0 3 5 0 0 0 FFTFFFFFFFFFFF9 1 82 1 12 107 79 12 242 ATO
M_ID_20011 0 
