**ABCDEFGHIJKLMNOPQRSTUVWXYZabcdefghijklmnopqrstuvwxyz**************************
**PARASOLID !"#$%&'()*+,-./:;<=>?@[\]^_`{|}~0123456789**************************
**PART1;
MC=AMD64;
MC_MODEL=Intel64 Family 6 Model 60 Stepping 3, GenuineIntel;
MC_ID=unknown;
OS=Windows_NT;
OS_RELEASE=unknown;
FRU=Parasolid Version 31.0, build 282,  2-25-2019;
APPL=SOLIDWORKS 2019-2019115;
SITE=;
USER=unknown;
FORMAT=text;
GUISE=transmit;
KEY=Center-Block;
FILE=Center-Block.x_t;
DATE=Tue Nov 12 15:44:55 2019;
**PART2;
SCH=SCH_3100282_31001;
USFLD_SIZE=0;
**PART3;
**END_OF_HEADER*****************************************************************
T51 : TRANSMIT FILE created by modeller version 310028223 SCH_3100282_31001_1300
6215 0 12 34 CCCCCCI4 mesh1006 0 I8 polyline1008 0 CCCCCCCDI5 owner1040 0 CCCCCC
I13 boundary_mesh1006 0 I17 boundary_polyline1008 0 CCCA16 index_map_offset0 0 1
 dA9 index_map82 0 A17 node_id_index_map82 0 A20 schema_embedding_map82 0 A5 chi
ld12 0 A14 lowest_node_id0 0 1 dA16 mesh_offset_data206 0 Z1 1023 2 3 0 0 0 0 0
 0 1e3 1e-8 0 4 0 1 0 1 1 5 6 7 8 0 0 9 10 11 0 0 0 0 0 0 0 81 255 2 2 1006 12 1
 13 0 0 0 0 14 70 11 CI9 list_type0 0 1 uI10 notransmit0 0 1 lCCCDCCDI12 finger_
index0 0 1 dI12 finger_block1012 0 CZ3 0 4 T1 0 0 9 20 1 15 15 13 255 5 99 0 1 0
 16 0 0 17 0 50 255 6 488 0 18 19 0 20 +0 .024 .018 0 .707106781186546 .70710678
1186549 -1 0 0 38 12 CCCCCCCCCCCA17 intersection_data204 0 Z7 492 0 21 22 0 0 -6
 19 23 24 25 26 29 255 8 382 0 11 27 0 .01734935157289745 .024 -.018 19 8 CCCCCC
CA5 owner12 0 Z9 33 0 1 17 0 28 V0 16 255 10 384 0 ?29 0 30 31 0 0 1 18 255 11 3
80 0 32 0 33 8 ?1 17 255 32 0 34 29 35 11 36 30 0 37 +18 33 376 0 35 11 38 27 ?1
 17 35 0 34 32 39 33 40 41 0 42 +18 38 372 0 39 33 43 44 ?1 29 27 378 0 33 44 8
 .01734935157289745 .024 .018 29 44 374 0 38 45 27 -.01734935157289745 .024 .018
 29 45 371 0 43 46 44 -.01734935157289745 .024 -.018 18 43 369 0 47 38 48 45 ?1
 29 46 344 0 48 49 45 .0196214168703486 -.018 .024 18 48 342 0 50 43 51 46 ?1 29
 49 341 0 51 52 46 .0196214168703486 .018 .024 18 51 339 0 53 48 54 49 ?1 29 52
 326 0 54 55 49 .0196214168703486 -.018 -.024 18 54 324 0 56 51 57 52 ?1 29 55 3
23 0 57 58 52 .0196214168703486 .018 -.024 18 57 321 0 59 54 60 55 ?1 29 58 313
 0 60 61 55 -.01734935157289745 -.024 -.018 18 60 311 0 62 57 63 58 ?1 29 61 309
 0 63 64 58 .01734935157289745 -.024 -.018 18 63 307 0 65 60 66 61 ?1 29 64 305
 0 66 67 61 -.01734935157289745 -.024 .018 18 66 303 0 68 63 69 64 ?1 29 67 302
 0 69 70 64 .01734935157289745 -.024 .018 18 69 300 0 71 66 72 67 ?1 29 70 287 0
 72 73 67 -.0196214168703486 -.018 -.024 18 72 285 0 74 69 75 70 ?1 29 73 284 0
 75 76 70 -.0196214168703486 .018 -.024 18 75 282 0 77 72 78 73 ?1 29 76 281 0 7
8 79 73 -.0196214168703486 -.018 .024 18 78 279 0 80 75 81 76 ?1 29 79 278 0 81
 0 76 -.0196214168703486 .018 .024 18 81 276 0 82 78 0 79 ?1 17 82 0 83 84 85 81
 86 87 0 88 +15 255 83 87 0 84 89 0 17 84 0 83 50 82 78 88 90 0 0 +17 85 0 83 82
 50 51 91 92 0 86 -17 86 0 93 42 94 51 82 87 0 95 -16 87 357 0 ?82 96 97 98 0 0
 1 17 88 0 99 77 100 81 84 90 0 94 -15 99 89 0 101 102 0 17 77 0 99 101 88 75 10
3 104 0 105 +17 100 0 99 88 101 78 106 107 0 84 +16 90 277 0 ?84 104 92 108 0 0
 1 17 94 0 93 86 40 81 109 110 0 103 -15 93 459 0 94 18 0 17 40 0 93 94 42 38 35
 41 0 109 -17 109 0 111 112 103 38 94 110 0 0 +16 110 474 0 ?109 21 113 22 0 0 1
 17 103 0 111 109 114 81 77 104 0 0 -15 111 463 0 109 115 0 17 114 0 111 103 112
 75 47 116 0 0 -16 104 288 0 ?77 107 90 117 0 0 1 16 107 294 0 ?100 118 104 119
 0 0 1 31 255 117 290 0 104 120 119 0 -0 .018 0 0 1 0 0 0 1 .031 38 120 187 0 12
1 122 117 0 +123 124 125 126 126 127 31 119 296 0 107 117 128 0 +0 -.018 0 0 1 0
 0 0 1 .031 30 255 128 306 0 118 119 129 0 +0 -.024 .018 -1 0 0 16 118 304 0 ?68
 130 107 128 0 0 1 31 129 310 0 130 128 131 0 -0 -.024 0 0 1 0 0 0 1 .025 16 130
 308 0 ?71 132 118 129 0 0 1 30 131 314 0 132 129 133 0 +0 -.024 -.018 1 0 0 16
 132 312 0 ?65 134 130 131 0 0 1 31 133 317 0 134 131 135 0 -0 -.024 0 0 1 0 0 0
 1 .025 16 134 315 0 ?136 137 132 133 0 0 1 30 135 329 0 137 133 138 0 +.0196214
168703486 .018 -.024 1 0 0 16 137 327 0 ?139 140 134 135 0 0 1 30 138 335 0 140
 135 141 0 +-.0196214168703486 -.018 -.024 -1 0 0 16 140 333 0 ?74 142 137 138 0
 0 1 31 141 347 0 142 138 143 0 -0 .018 0 0 1 0 0 0 1 .031 16 142 345 0 ?53 97 1
40 141 0 0 1 31 143 353 0 97 141 98 0 +0 -.018 0 0 1 0 0 0 1 .031 16 97 351 0 ?5
6 87 142 143 0 0 1 30 98 359 0 87 143 144 0 +-.0196214168703486 .018 .024 -1 0 0
 30 144 365 0 96 98 145 0 +-.0196214168703486 -.018 .024 1 0 0 16 96 363 0 ?50 1
46 87 144 0 0 1 31 145 375 0 146 144 147 0 +0 .024 0 0 1 0 0 0 1 .025 16 146 373
 0 ?39 41 96 145 0 0 1 30 147 379 0 41 145 148 0 +.0196214168703486 .024 .018 1
 0 0 16 41 377 0 ?35 30 146 147 0 0 1 31 148 383 0 30 147 31 0 +0 .024 0 0 1 0 0
 0 1 .025 16 30 381 0 ?32 10 41 148 0 0 1 30 31 386 0 10 148 149 0 +-.0196214168
703486 .024 -.018 -1 0 0 38 149 442 0 150 31 151 0 -152 153 154 155 156 157 16 1
50 426 0 ?80 158 21 149 0 0 1 38 151 441 0 158 149 159 0 -160 153 161 162 163 16
4 50 152 438 0 165 166 153 167 --.0196214168703486 -.018 .024 0 .707106781186549
 -.707106781186546 1 0 0 52 255 153 437 0 168 152 160 169 +0 -.018 0 0 1 0 .031
 .707106781186549 .707106781186546 0 0 1 40 255 2 154 0 1 2 .0001430658979074244
 .03080846822106505 ??-.0196214168703486 -.018 .024 -.01734935157289745 -.024 .0
18 41 3 CI8 term_use0 0 1 cCZ1 155 L?-.0196214168703486 -.018 .024 41 1 156 L?-.
01734935157289745 -.024 .018 204 2 17 INTERSECTION_DATA17 Intersection data7 uv_
type0 0 1 u6 values0 1 1 fT8 157 4 0 0 5.59782896269025 0 .002272065297451125 .0
084852813742386 5.51619129931772 -.006 14 255 168 411 170 ?18 165 171 5 153 +0 0
 18 165 28 50 160 436 0 172 153 173 174 --.0196214168703486 -.018 -.024 0 .70710
6781186549 .707106781186546 -1 0 0 141 255 169 149 175 175 153 141 175 151 169 1
69 153 14 172 407 176 ?165 177 178 5 160 +0 0 165 177 28 52 173 435 0 177 160 17
9 180 +0 -.018 0 0 1 0 .031 .707106781186549 .707106781186546 0 0 1 141 174 151
 181 181 160 141 181 182 174 174 160 38 182 439 0 183 159 184 0 -173 160 185 186
 187 188 16 183 418 0 ?189 190 191 182 0 0 1 38 159 440 0 191 151 182 0 +152 173
 192 193 194 195 38 184 495 0 116 182 196 0 -179 197 198 199 200 201 40 2 185 0
 1 2 .000143065897907424 .0308084682210649 ??.01734935157289745 -.024 -.018 .019
6214168703486 -.018 -.024 41 1 186 L?.01734935157289745 -.024 -.018 41 1 187 L?.
0196214168703486 -.018 -.024 204 8 188 4 2.374598645727925 -.006 -.0369707684432
4605 .0084852813742386 2.456236309100455 69388939039072e-31 -.0392428337406972 -
49065389333868e-31 16 116 479 0 ?47 113 0 184 0 0 1 38 196 494 0 113 184 22 0 -1
9 197 202 203 204 205 52 179 491 0 115 173 197 206 +0 .024 0 0 -1 0 .025 .707106
781186546 .707106781186549 0 0 -1 50 197 490 0 207 179 19 208 +0 .024 -.018 0 .7
07106781186546 -.707106781186549 1 0 0 40 2 198 0 1 2 .0001430658979074204 .0308
0846822106485 ??-.01734935157289745 .024 -.018 -.0196214168703486 .018 -.024 41
 1 199 L?-.01734935157289745 .024 -.018 41 1 200 L?-.0196214168703486 .018 -.024
 204 8 201 4 5.51619129931772 0 -.01734935157289745 0 5.59782896269025 .006 -.01
96214168703486 .00848528137423859 14 207 464 209 ?0 115 210 5 197 +0 0 0 115 28
 52 19 489 0 211 197 6 212 +0 .024 0 0 -1 0 .025 .707106781186546 .7071067811865
49 0 0 -1 141 208 184 213 213 197 141 213 196 208 208 197 14 211 460 214 ?115 18
 215 5 19 +0 0 115 18 28 141 212 196 216 216 19 141 216 7 212 212 19 81 1 214 10
10 217 211 218 0 209 219 220 14 115 462 219 ?207 211 111 5 179 +0 0 207 211 28 1
4 18 458 221 ?211 168 93 5 6 +0 0 211 168 28 15 215 461 0 95 211 0 13 28 34 0 0
 0 0 0 0 9 16 14 16 122 222 ?223 0 34 5 224 +0 0 223 0 28 81 1 222 1013 217 16 2
25 0 221 226 227 14 223 116 226 ?102 16 228 5 229 -0 0 102 16 28 15 34 370 0 32
 16 230 50 224 3 0 16 123 229 0 +0 .024 0 0 1 0 0 0 1 51 255 123 144 0 231 124 2
24 232 -0 .024 0 0 -1 0 .0125 0 0 -1 50 229 70 0 223 224 233 0 +0 -.024 0 0 1 0
 0 0 1 50 233 91 0 234 229 235 0 +-.0196214168703486 .024 -.024 0 0 1 1 0 0 14 2
34 84 236 ?231 237 238 5 233 -0 0 231 237 28 51 235 92 0 237 233 239 0 -0 .024 0
 0 -1 0 .031 0 0 -1 14 237 86 240 ?234 89 241 5 235 -0 0 234 89 28 50 239 93 0 8
9 235 166 0 +-.0196214168703486 .024 .024 0 0 -1 -1 0 0 14 89 88 242 ?237 102 24
3 5 239 -0 0 237 102 28 51 166 94 0 102 239 152 0 -0 .024 0 0 -1 0 .031 0 0 -1 1
4 102 90 244 ?89 223 99 5 166 -0 0 89 223 28 81 1 244 1018 217 102 245 0 242 246
 247 80 255 1 217 248 249 9000 1 1 1 1 1 1 1 1 0 FFFFTFTFFFFFFF1 81 1 245 956 25
0 102 0 244 251 252 253 81 1 242 1017 217 89 252 0 240 244 254 81 1 246 1019 217
 231 255 0 244 256 257 82 255 1 247 -269221766 14 231 131 246 ?258 234 259 5 123
 +0 0 258 234 28 81 1 255 960 250 231 0 246 260 261 262 81 1 256 1020 217 258 26
1 0 246 263 264 82 1 257 -280231822 14 258 221 256 ?265 231 266 5 124 -265 265 2
65 231 28 81 1 261 961 250 258 0 256 255 267 268 81 1 263 1021 217 265 267 0 256
 269 270 82 1 264 408486002 14 265 216 263 ?177 258 271 5 124 -258 258 177 258 2
8 81 1 267 962 250 265 0 263 261 272 273 81 1 269 1022 217 177 272 0 263 274 275
 82 1 270 418185330 14 177 405 269 ?172 265 276 5 173 +0 0 172 265 28 81 1 272 9
63 250 177 0 269 267 277 278 81 1 274 1023 217 165 279 0 269 0 280 82 1 275 1340
014714 14 165 409 274 ?168 172 281 5 152 +0 0 168 172 28 81 1 279 965 250 165 0
 274 277 282 283 82 1 280 1337786490 80 1 250 0 284 8001 0 0 0 0 3 5 0 0 0 FFFFT
FTFFFFFFF2 81 1 277 964 250 172 0 176 272 279 285 81 1 282 966 250 168 0 170 279
 286 287 83 255 3 283 .2 .2 .2 81 1 170 1007 217 168 282 0 0 176 288 81 1 286 96
7 250 18 0 221 282 218 289 83 3 287 .2 .2 .2 81 1 221 1012 217 18 286 0 219 222
 290 81 1 218 968 250 211 0 214 286 291 292 83 3 289 .2 .2 .2 81 1 291 969 250 1
15 0 219 218 293 294 83 3 292 .2 .2 .2 81 1 219 1011 217 115 291 0 214 221 295 8
1 1 293 970 250 207 0 209 291 0 296 83 3 294 .2 .2 .2 81 1 209 1009 217 207 293
 0 176 214 297 83 3 296 .2 .2 .2 81 1 176 1008 217 172 277 0 170 209 298 82 1 29
7 1341063290 82 1 298 1338966138 82 1 295 1342832762 82 1 290 1345060986 82 1 28
8 1336017018 83 3 285 .2 .2 .2 79 255 15 284 SDL/TYSA_COLOUR15 281 410 0 299 165
 0 17 299 0 281 300 301 48 302 191 0 0 +17 300 0 281 303 299 78 50 96 0 100 -17
 301 0 281 299 303 69 68 118 0 0 -17 302 0 276 304 305 69 299 191 0 301 -16 191
 421 0 ?299 183 158 159 0 0 1 16 158 424 0 ?62 191 150 151 0 0 1 17 62 0 171 306
 106 60 307 158 0 308 +15 171 412 0 62 168 0 17 306 0 171 80 62 66 136 134 0 303
 -17 106 0 171 62 80 72 100 107 0 0 -17 307 0 178 309 308 72 62 158 0 106 -17 30
8 0 178 307 189 60 65 132 0 136 -15 178 408 0 189 172 0 17 189 0 178 308 309 63
 310 183 0 0 +17 65 0 228 71 136 63 308 132 0 304 +17 136 0 228 65 68 60 306 134
 0 0 +15 228 301 0 68 223 311 17 68 0 228 136 71 66 301 118 0 306 +17 71 0 228 6
8 65 69 304 130 0 302 +17 304 0 276 310 302 63 71 130 0 189 -15 276 406 0 302 17
7 0 17 310 0 276 305 304 54 189 183 0 309 -17 305 0 276 302 310 48 56 97 0 299 -
17 309 0 178 189 307 54 74 140 0 0 -17 74 0 312 105 313 72 309 140 0 101 +15 312
 83 0 313 234 0 17 105 0 312 139 74 75 101 314 0 315 -17 313 0 312 74 139 54 316
 317 0 310 +17 101 0 99 100 77 72 105 314 0 307 +16 314 283 0 ?101 317 318 319 0
 0 1 16 317 322 0 ?313 92 314 320 0 0 1 16 318 128 0 ?321 314 322 323 0 0 1 30 3
19 95 0 314 324 320 0 +-.0196214168703486 .024 -.024 0 -1 0 31 324 147 0 322 323
 319 0 +0 -.024 0 0 1 0 0 0 1 .0125 30 320 96 0 317 319 325 0 +.0196214168703486
 .024 -.024 0 -1 0 30 325 97 0 92 320 108 0 +.0196214168703486 .024 .024 0 -1 0
 16 92 340 0 ?91 90 317 325 0 0 1 30 108 98 0 90 325 122 0 +-.0196214168703486 .
024 .024 0 -1 0 38 122 181 0 326 108 120 0 +123 124 327 328 328 329 16 326 203 0
 ?330 121 331 122 0 0 1 51 124 234 0 258 0 123 332 +0 0 -.024 0 0 1 .0085 1 0 0
 40 22 327 0 1 22 .000684812900067505 .3992470270198755 ??.0085 0 .0091651513899
1167 .00814936212831291 -.002416174021385775 .00947828554653331 .007189023683330
29 -.00453518891343199 .01022584658991696 .00544165666204376 -.00652980648813079
 .01125337161798342 .00270836509990736 -.00805696955967962 .01220306348773142 .0
00333958219843535 -.00849343699025307 .01249553807994674 -.00208196586986005 -.0
0824108112547972 .01232539728028016 -.004236791186648725 -.00736882625936695 .01
17600850524448 -.0062011310615017 -.00581343044665359 .01085338535011444 -.00780
219633577313 -.00337279295807623 .00976604998646067 -.00842283907280284 -.001142
708166447624 .00923611292447564 -.00840812470207814 .00124637032791368 .00924951
020294077 -.00785811325779989 .0032403789944372 .00972111392935962 -.00631435712
39712 .00569024552290623 .01078790499174674 -.003993030554813975 .00750371288018
953 .01184507099971638 -.00161899920696823 .00834438982597508 .01239471022524674
 .000965261536528704 .00844501451544629 .01246267508065978 .003237467227365465 .
00785931332571331 .01207347530546754 .00529317168055354 .00665073932432976 .0113
2397163367102 .0071128498107188 .00465374769085709 .01027897697099072 .008314822
10582964 .001764577385213505 .00933347380927416 .0085 1869067940750725e-34 .0091
6515138991167 41 1 328 H?.0085 1869067940750725e-34 .00916515138991167 204 88 32
9 4 2.39383001892987 .024 0 .0331651513899117 2.4314407382982 .0264161740213858
 5.99495522288135 .0334782855465333 2.52883951019631 .028535188913432 5.72039097
06954 .03422584658991695 2.691185039421135 .0305298064881308 5.40714092687735 .0
352533716179834 2.92319132247107 .03205696955967965 5.03667403756327 .0362030634
8773145 3.114872816679285 .0324934369902531 4.75168829782049 .03649553807994675
 3.30892978496262 .0322410811254797 4.4649341014967 .03632539728028015 3.4873861
33247975 .03136882625936695 4.19058365651437 .0357600850524448 3.66068296242672
 .0298134304466536 3.89473278348963 .03485338535011445 3.815668692007955 .027372
79295807625 3.54961975992122 .03376604998646065 3.880968856357145 .0251427081664
4765 3.276437184523035 .03323611292447565 3.879376876739725 .0227536296720863 2.
994430248038405 .03324951020294075 3.82140752284074 .0207596210055628 2.75047591
641826 .03372111392935965 3.67114675895417 .01830975447709375 2.408137084808955
 .03478790499174675 3.46673369891479 .0164962871198105 2.05982462371563 .0358450
709997164 3.271477476510715 .0156556101740249 1.762437720015165 .036394710225246
75 3.06429477835549 .0155549854845537 1.456990641572604 .0364626750806598 2.8796
0863722585 .0161406866742867 1.180050104099504 .03607347530546755 2.704338300109
805 .01734926067567025 .898574357836764 .03532397163367105 2.536269325134385 .01
93462523091429 .579373431776833 .0342789769709907 2.4138500698424 .0222354226147
865 .2091181470318825 .03333347380927415 2.39383001892987 .024 2198903459706735e
-32 .03316515138991165 141 332 122 333 333 124 141 333 120 332 332 124 17 330 0
 266 330 330 0 334 326 0 0 +16 121 204 0 ?335 322 326 120 0 0 1 16 331 205 0 ?33
6 326 190 337 0 0 1 17 336 0 238 336 336 0 338 331 0 0 +16 190 208 0 ?339 331 18
3 340 0 0 1 31 337 237 0 331 340 323 0 +0 0 -.024 0 0 1 1 0 0 .0085 31 340 238 0
 190 0 337 0 +0 0 .024 0 0 1 1 0 0 .0085 31 323 148 0 318 337 324 0 +0 .024 0 0
 1 0 0 0 1 .0125 17 339 0 341 339 339 0 342 190 0 0 +15 341 225 0 339 258 0 17 3
42 0 243 342 342 0 339 190 0 0 -15 243 197 0 342 89 83 15 238 191 0 336 234 312
 17 338 0 343 338 338 0 336 331 0 0 -15 343 220 0 338 265 0 17 335 0 271 335 335
 0 344 121 0 0 +16 322 125 0 ?345 318 121 324 0 0 1 17 345 0 311 345 345 0 346 3
22 0 0 +15 311 114 0 345 223 0 17 346 0 347 346 346 0 345 322 0 0 -15 347 135 0
 346 231 0 15 271 219 0 335 265 343 17 344 0 259 344 344 0 335 121 0 0 -15 259 1
86 0 344 231 348 15 348 180 0 334 231 349 17 334 0 348 334 334 0 330 326 0 0 -15
 349 134 0 321 231 347 17 321 0 349 321 321 0 350 318 0 0 +17 350 0 230 350 350
 0 321 318 0 0 -15 230 119 0 350 16 0 15 266 224 0 330 258 341 17 91 0 241 56 53
 48 85 92 0 305 +15 241 85 0 91 237 0 17 56 0 241 316 91 54 305 97 0 313 +17 53
 0 241 91 316 51 351 142 0 85 +17 316 0 241 53 56 57 313 317 0 0 -17 351 0 215 3
7 95 57 53 142 0 139 -17 37 0 215 36 351 11 59 113 0 352 -17 95 0 215 351 36 51
 42 21 0 0 +17 139 0 312 313 105 57 315 137 0 316 +17 315 0 210 47 59 75 139 137
 0 114 -15 210 465 0 59 207 0 17 47 0 210 352 315 43 114 116 0 112 +17 59 0 210
 315 352 57 37 113 0 351 +17 352 0 210 59 47 11 29 10 0 0 -16 113 477 0 ?59 110
 116 196 0 0 1 17 29 0 34 39 32 43 352 10 0 0 +17 39 0 34 35 29 38 112 146 0 40
 +17 112 0 111 114 109 43 39 146 0 29 -17 36 0 215 95 37 33 32 30 0 0 -17 42 0 9
3 40 86 33 95 21 0 36 -16 21 471 0 ?95 150 110 7 0 0 1 17 80 0 171 106 306 78 30
3 150 0 300 +17 303 0 281 301 300 66 80 150 0 0 -17 50 0 83 85 84 48 300 96 0 91
 +83 3 278 .2 .2 .2 83 3 273 .2 .2 .2 83 3 268 .2 .2 .2 81 1 260 959 250 234 0 2
36 353 255 354 83 3 262 .2 .2 .2 81 1 236 1015 217 234 260 0 226 240 355 81 1 35
3 958 250 237 0 240 252 260 356 83 3 354 .2 .2 .2 81 1 240 1016 217 237 353 0 23
6 242 357 81 1 252 957 250 89 0 242 245 353 358 83 3 356 .2 .2 .2 83 3 358 .2 .2
 .2 82 1 357 -269746054 81 1 226 1014 217 223 251 0 222 236 359 82 1 355 -270008
198 81 1 251 955 250 223 0 226 225 245 360 82 1 359 -266796934 81 1 225 954 250
 16 0 222 0 251 361 83 3 360 .2 .2 .2 83 3 361 .2 .2 .2 82 1 254 -269483910 83 3
 253 .2 .2 .2 79 14 249 SWEntUnchanged141 232 122 362 362 123 141 362 120 232 23
2 123 82 1 227 -266272646 82 1 220 1344012410 141 206 184 363 363 179 141 363 22
 206 206 179 38 22 493 0 110 196 7 0 +179 6 364 365 366 367 40 2 364 0 1 2 .0001
430658979074172 .0308084682210648 ??-.0196214168703486 .018 .024 -.0173493515728
9745 .024 .018 41 1 365 L?-.0196214168703486 .018 .024 41 1 366 L?-.017349351572
89745 .024 .018 204 8 367 4 3.826948998079135 .006 .0196214168703486 .0084852813
7423859 3.90858666145166 3469446951953615e-33 .01734935157289745 49065389333868e
-31 40 2 202 0 1 2 .0001430658979074172 .0308084682210648 ??.0196214168703486 .0
18 -.024 .01734935157289745 .024 -.018 41 1 203 L?.0196214168703486 .018 -.024 4
1 1 204 L?.01734935157289745 .024 -.018 204 8 205 4 .685356344489341 .006 .01962
14168703486 .00848528137423859 .766994007861866 3469446951953615e-33 .0173493515
7289745 49065389333868e-31 40 2 192 0 1 2 .000143065897907424 .0308084682210649
 ??.01734935157289745 -.024 .018 .0196214168703486 -.018 .024 41 1 193 L?.017349
35157289745 -.024 .018 41 1 194 L?.0196214168703486 -.018 .024 204 8 195 4 .0369
7076844324605 .0084852813742386 .766994007861867 -.006 .0392428337406972 -490653
89333868e-31 .685356344489341 69388939039072e-31 141 180 159 368 368 173 141 368
 182 180 180 173 141 167 149 369 369 152 141 369 159 167 167 152 40 2 161 0 1 2
 .000143065897907424 .0308084682210649 ??-.01734935157289745 -.024 -.018 -.01962
14168703486 -.018 -.024 41 1 162 L?-.01734935157289745 -.024 -.018 41 1 163 L?-.
0196214168703486 -.018 -.024 204 8 164 4 -.002272065297451125 .0084852813742386
 3.90858666145166 -.006 3469446951953615e-33 -49065389333868e-31 3.8269489980791
35 69388939039072e-31 40 22 125 0 1 22 .000663507335216522 .3960639202991275 ??0
 .0085 -.0125 -.002498316622077965 .00812455623747224 -.01224779221149056 -.0047
0401613772042 .00707970565603303 -.01158111532522088 -.00660806436424042 .005346
35252841188 -.01061053652545694 -.00806084617021504 .002696805335972505 -.009553
67777456041 -.00848380847897227 .000524398409721504 -.00918014126754694 -.008324
59980957824 -.00171785855365631 -.00932475404556984 -.00766366107102689 -.003676
723947813755 -.00987513539089095 -.00592470157113424 -.00609490863696903 -.01100
672118721102 -.00339709532453799 -.00779164574117705 -.0120295362901486 -.001022
783112403484 -.00843824120922023 -.0124580863179295 .001480082014331152 -.008370
14678669697 -.01241206498657066 .00369414958913372 -.00765527653407134 -.0119416
606388351 .00571079302677135 -.00629577977738897 -.01111921053876486 .0074452196
8431519 -.004101061308037935 -.01004085174934306 .00831186847558526 -.0017784382
03754105 -.00933610424345037 .00849247773018364 .000357522030559134 -.0091721220
0106034 .00813795754920589 .00245431190506077 -.00948807920115147 .0069593347762
5314 .004880333950872 -.0103835282766521 .00506965904180448 .00682265030613839 -
.01142578475203564 .002246305147806975 .00819781148739932 -.0122965081703277 -40
038384475077e-32 .0085 -.0125 41 1 126 H?-40038384475077e-32 .0085 -.0125 204 88
 127 4 0 .0155 1.570796326794895 .0115 6.08196483169339 .01587544376252775 1.869
12132508585 .01175220778850942 5.89736281831922 .016920294343967 2.1572535056498
7 .01241888467477912 5.72618165153114 .01865364747158815 2.461348759891055 .0133
8946347454306 5.5823351458252 .0213031946640275 2.818742004416185 .0144463222254
396 5.53718786832502 .0234756015902785 3.079859519884295 .01481985873245306 5.55
439463859482 .0257178585536563 3.345095376116035 .01467524595443016 5.6232156441
9835 .02767672394781375 3.588918179101805 .01412486460910904 5.78938442290089 .0
3009490863696905 3.941150651389425 .012993278812789 6.00795599465852 .0317916457
4117705 4.30124495820062 .0119704637098514 6.20127108232396 .03243824120922025 4
.59176928319119 .0115419136820705 .1186850003445372 .032370146786697 4.887408435
77892 .01158793501342934 .3000123103135745 .03165527653407135 5.16198955058363 .
01205833936116492 .474465935314572 .03029577977738895 5.4491034330049 .012880789
46123512 .63803425739022 .02810106130803795 5.77970395520643 .01395914825065694
 .72742617271642 .0257784382037541 6.07239986318782 .01466389575654962 .74694219
9774751 .02364247796944085 .0420738274916202 .01482787799893966 .708949304471425
 .02154568809493925 .292913213840445 .01451192079884852 .590464316146539 .019119
666049128 .611574072649443 .0136164717233479 .4176053125252495 .0171773496938616
 .931749697466902 .01257421524796436 .180685963204712 .0158021885126007 1.303348
15426146 .0117034918296723 0 .0155 1.570796326794895 .0115 19 17 100 0 1 0 9 5 S
0 40 2 23 0 1 2 .0001430658979074172 .0308084682210648 ??.0196214168703486 .018
 .024 .01734935157289745 .024 .018 41 1 24 L?.0196214168703486 .018 .024 41 1 25
 L?.01734935157289745 .024 .018 204 8 26 4 -.0196214168703486 .00848528137423859
 2.456236309100455 .006 -.01734935157289745 49065389333868e-31 2.374598645727925
 3469446951953615e-33 141 20 22 370 370 6 141 370 7 20 20 6 74 4 CI16 index_map_
offset0 0 1 dCCZ20 15 9 0 0 371 372 274 373 374 375 13 293 2 0 0 0 0 0 0 0 0 0 0
 0 81 2 371 111 376 1 0 372 0 0 0 377 81 2 372 168 378 1 371 373 0 0 0 379 81 2
 373 266 380 1 372 374 0 0 0 381 81 1 374 536 382 1 373 375 0 0 383 81 2 375 700
 384 1 374 13 0 0 385 0 81 2 13 951 386 1 375 2 0 0 0 0 80 2 386 387 388 9000 0
 0 0 0 3 5 0 0 0 FFTFFFFFFFFFFF9 1 79 16 388 BODY_RECIPE_200180 2 384 389 390 80
04 0 0 0 0 3 5 0 0 0 FFTFFFFFFFFFFF2 3 83 1 385 72e2 79 16 390 SDL/TYSA_DENSITY8
0 1 382 391 392 9000 1 1 1 1 1 1 1 1 0 FFTFFFFFFFFFFF1 82 1 383 18476930 79 10 3
92 BODY_MATCH80 2 380 393 394 9000 0 0 0 0 3 5 0 0 0 FFTFFFFFFFFFFF9 1 82 1 381
 1 79 24 394 BODY_IN_LIGHTWEIGHT_PERM80 2 378 395 396 9000 0 0 0 0 3 5 0 0 0 FFT
FFFFFFFFFFF9 1 82 1 379 53 79 30 396 LAST_BODY_MODIFYING_FEATURE_ID80 2 376 397
 398 9000 0 0 0 0 3 5 0 0 0 FFTFFFFFFFFFFT9 1 82 1 377 114 79 19 398 ENT_TIME_ST
AMP_200180 2 12 399 400 9000 0 0 0 0 3 5 0 0 0 FFTFFFFFFFFFFF9 1 82 1 14 102 79
 12 400 ATOM_ID_20011 0 
