**ABCDEFGHIJKLMNOPQRSTUVWXYZabcdefghijklmnopqrstuvwxyz**************************
**PARASOLID !"#$%&'()*+,-./:;<=>?@[\]^_`{|}~0123456789**************************
**PART1;
MC=AMD64;
MC_MODEL=Intel64 Family 6 Model 60 Stepping 3, GenuineIntel;
MC_ID=unknown;
OS=Windows_NT;
OS_RELEASE=unknown;
FRU=Parasolid Version 31.0, build 282,  2-25-2019;
APPL=SOLIDWORKS 2019-2019115;
SITE=;
USER=unknown;
FORMAT=text;
GUISE=transmit;
KEY=Large-Pin;
FILE=Large-Pin.x_t;
DATE=Tue Nov 12 16:08:17 2019;
**PART2;
SCH=SCH_3100282_31001;
USFLD_SIZE=0;
**PART3;
**END_OF_HEADER*****************************************************************
T51 : TRANSMIT FILE created by modeller version 310028223 SCH_3100282_31001_1300
6215 0 12 34 CCCCCCI4 mesh1006 0 I8 polyline1008 0 CCCCCCCDI5 owner1040 0 CCCCCC
I13 boundary_mesh1006 0 I17 boundary_polyline1008 0 CCCA16 index_map_offset0 0 1
 dA9 index_map82 0 A17 node_id_index_map82 0 A20 schema_embedding_map82 0 A5 chi
ld12 0 A14 lowest_node_id0 0 1 dA16 mesh_offset_data206 0 Z1 536 2 3 0 0 0 0 0 0
 1e3 1e-8 0 4 0 1 0 1 1 5 6 7 0 0 0 8 9 0 0 0 0 0 0 0 0 81 255 2 2 530 10 1 11 0
 0 0 0 12 70 11 CI9 list_type0 0 1 uI10 notransmit0 0 1 lCCCDCCDI12 finger_index
0 0 1 dI12 finger_block1012 0 CZ3 0 4 T1 0 0 8 20 1 13 13 13 255 5 31 0 1 0 14 0
 0 15 0 52 255 6 215 0 16 17 0 0 +0 .039 0 0 -1 0 .0095 .707106781186546 .707106
78118655 0 0 -1 31 255 7 185 0 9 18 0 0 +0 .039 0 0 1 0 0 0 1 .0095 19 8 CCCCCCC
A5 owner12 0 Z8 9 0 1 15 0 19 V0 16 255 9 182 0 ?20 0 21 7 0 0 1 17 255 20 0 22
 20 20 0 23 9 0 0 +16 21 176 0 ?24 9 25 18 0 0 1 17 24 0 26 24 24 0 27 21 0 0 +1
6 25 170 0 ?28 21 29 30 0 0 1 31 18 179 0 21 30 7 0 -0 -.039 0 0 1 0 0 0 1 .0095
 31 30 173 0 25 31 18 0 +0 -.036 0 0 1 0 0 0 1 .0125 31 31 167 0 29 32 30 0 -0 .
036 0 0 1 0 0 0 1 .0125 16 29 164 0 ?33 25 34 31 0 0 1 38 12 CCCCCCCCCCCA17 inte
rsection_data204 0 Z32 78 0 34 35 31 0 +36 37 38 39 39 40 16 34 76 0 ?41 29 42 3
2 0 0 1 38 35 62 0 42 0 32 0 +36 37 43 44 44 45 51 255 36 30 0 14 46 17 47 -0 .0
39 0 0 -1 0 .0125 0 0 -1 51 37 143 0 48 0 49 50 +0 0 -.0125 0 0 1 .0085 1 0 0 40
 255 22 38 0 1 22 .00066350733521652 .3960639202991275 ??0 .0085 -.0125 -.002498
316622077965 .00812455623747223 -.01224779221149056 -.00470401613772042 .0070797
0565603302 -.01158111532522088 -.00660806436424041 .00534635252841187 -.01061053
652545694 -.00806084617021503 .0026968053359725 -.00955367777456042 -.0084838084
7897226 .000524398409721503 -.00918014126754695 -.00832459980957823 -.0017178585
5365631 -.00932475404556985 -.00766366107102688 -.003676723947813755 -.009875135
39089096 -.00592470157113423 -.00609490863696903 -.01100672118721102 -.003397095
324537985 -.00779164574117704 -.0120295362901486 -.001022783112403482 -.00843824
120922022 -.0124580863179295 .001480082014331152 -.00837014678669696 -.012412064
98657066 .00369414958913372 -.00765527653407133 -.0119416606388351 .005710793026
77135 -.00629577977738896 -.01111921053876486 .00744521968431518 -.0041010613080
37925 -.01004085174934306 .00831186847558525 -.0017784382037541 -.00933610424345
037 .00849247773018363 .0003575220305591425 -.00917212200106035 .008137957549205
88 .00245431190506078 -.00948807920115148 .00695933477625312 .004880333950872 -.
0103835282766521 .00506965904180445 .0068226503061384 -.01142578475203564 .00224
630514780695 .00819781148739931 -.0122965081703277 -3707906147982535e-34 .0085 -
.0125 41 3 CI8 term_use0 0 1 cCZ1 39 H?-3707906147982535e-34 .0085 -.0125 204 2
 17 INTERSECTION_DATA17 Intersection data7 uv_type0 0 1 u6 values0 1 1 fT88 40 4
 0 .0305 1.570796326794895 0 6.08196483169339 .03087544376252775 1.8691213250858
5 .000252207788509434 5.89736281831922 .031920294343967 2.15725350564987 .000918
884674779121 5.72618165153114 .03365364747158815 2.461348759891055 .001889463474
543055 5.58233514582521 .0363031946640275 2.818742004416185 .00294632222543958 5
.53718786832502 .0384756015902785 3.079859519884295 .003319858732453055 5.554394
63859482 .0407178585536563 3.345095376116035 .003175245954430155 5.6232156441983
5 .04267672394781375 3.588918179101805 .00262486460910904 5.78938442290089 .0450
94908636969 3.941150651389425 .001493278812788982 6.00795599465852 .046791645741
177 4.30124495820062 .000470463709851394 6.20127108232396 .0474382412092202 4.59
176928319119 4191368207049835e-20 .1186850003445374 .047370146786697 4.887408435
77892 879350134293348e-19 .3000123103135745 .0466552765340713 5.16198955058363 .
000558339361164915 .474465935314572 .045295779777389 5.4491034330049 .0013807894
61235132 .63803425739022 .04310106130803795 5.77970395520643 .002459148250656935
 .727426172716419 .0407784382037541 6.07239986318782 .003163895756549625 .746942
19977475 .03864247796944085 .04207382749162125 .003327877998939655 .708949304471
424 .03654568809493925 .2929132138404465 .00301192079884852 .590464316146537 .03
4119666049128 .611574072649445 .00211647172334789 .417605312525247 .032177349693
8616 .931749697466905 .00107421524796435 .18068596320471 .0308021885126007 1.303
348154261462 .0002034918296722875 0 .0305 1.570796326794895 0 14 255 48 108 51 ?
52 53 54 5 37 -0 0 52 53 19 50 255 49 3 0 55 37 46 0 +0 .039 0 0 1 0 0 0 1 141 2
55 50 35 56 56 37 141 56 32 50 50 37 14 55 1 57 ?53 14 22 5 49 +0 0 53 14 19 50
 46 24 0 53 49 36 0 +0 -.039 0 0 1 0 0 0 1 14 53 18 58 ?48 55 26 5 46 -0 0 48 55
 19 81 1 58 533 59 53 60 0 57 61 62 15 255 26 177 0 24 53 0 13 19 10 0 0 0 0 0 0
 8 14 14 14 27 61 ?55 0 63 5 36 -0 0 55 0 19 81 1 61 534 59 14 64 0 58 65 66 15
 63 171 0 28 14 67 17 28 0 63 28 28 0 68 25 0 0 +15 67 165 0 33 14 69 17 33 0 67
 33 33 0 70 29 0 0 +15 69 70 0 41 14 71 17 41 0 69 41 41 0 72 34 0 0 +15 71 54 0
 73 14 0 17 73 0 71 73 73 0 74 42 0 0 +17 74 0 54 74 74 0 73 42 0 0 -16 42 60 0
 ?73 34 0 35 0 0 1 15 54 111 0 74 48 75 15 75 112 0 72 48 0 17 72 0 75 72 72 0 4
1 34 0 0 -17 70 0 76 70 70 0 33 29 0 0 -15 76 209 0 70 16 77 14 16 208 65 ?0 52
 76 5 6 +0 0 0 52 19 15 77 210 0 23 16 0 17 23 0 77 23 23 0 20 9 0 0 -81 1 65 53
5 59 16 78 0 61 79 80 14 52 195 79 ?16 48 81 5 17 +0 0 16 48 19 81 1 79 536 59 5
2 82 0 65 0 83 15 81 196 0 27 52 84 52 17 202 0 52 36 6 0 +0 -.036 0 0 1 0 .0125
 .70710678118655 .707106781186545 0 0 1 17 27 0 81 27 27 0 24 21 0 0 -15 84 197
 0 68 52 0 17 68 0 84 68 68 0 28 25 0 0 -80 255 1 59 85 86 9000 1 1 1 1 1 1 1 1
 0 FFFFTFTFFFFFFF1 81 1 82 515 87 52 0 79 88 78 89 82 255 1 83 -1654587264 80 1
 87 0 90 8001 0 0 0 0 3 5 0 0 0 FFFFTFTFFFFFFF2 81 1 88 514 87 48 0 51 60 82 91
 81 1 78 516 87 16 0 65 82 0 92 83 255 3 89 .647058823529412 .517647058823529 0
 83 3 92 .647058823529412 .517647058823529 0 81 1 51 531 59 48 88 0 0 57 93 81 1
 60 513 87 53 0 58 94 88 95 83 3 91 .647058823529412 .517647058823529 0 81 1 94
 512 87 55 0 57 64 60 96 83 3 95 .647058823529412 .517647058823529 0 81 1 57 532
 59 55 94 0 51 58 97 81 1 64 511 87 14 0 61 0 94 98 83 3 96 .647058823529412 .51
7647058823529 0 83 3 98 .647058823529412 .517647058823529 0 82 1 97 -1684930432
 82 1 93 -1659568001 79 255 15 90 SDL/TYSA_COLOUR79 14 86 SWEntUnchanged82 1 80
 -1653342080 82 1 66 -1682964352 82 1 62 -1683226496 15 22 183 0 20 55 0 141 47
 35 99 99 36 141 99 32 47 47 36 40 22 43 0 1 22 .000684812900067504 .39924702701
98755 ??.0085 0 .00916515138991168 .0081493621283129 -.002416174021385775 .00947
828554653332 .00718902368333028 -.00453518891343199 .01022584658991696 .00544165
666204375 -.00652980648813079 .01125337161798342 .002708365099907355 -.008056969
55967962 .01220306348773142 .000333958219843534 -.00849343699025306 .01249553807
994674 -.00208196586986005 -.00824108112547971 .01232539728028016 -.004236791186
648725 -.00736882625936694 .0117600850524448 -.0062011310615017 -.00581343044665
358 .01085338535011444 -.00780219633577312 -.00337279295807622 .0097660499864606
8 -.00842283907280282 -.00114270816644762 .00923611292447564 -.00840812470207813
 .00124637032791368 .00924951020294078 -.00785811325779988 .0032403789944372 .00
972111392935963 -.00631435712397119 .00569024552290623 .01078790499174676 -.0039
9303055481397 .00750371288018952 .0118450709997164 -.001618999206968225 .0083443
8982597507 .01239471022524674 .000965261536528703 .00844501451544628 .0124626750
8065978 .003237467227365465 .0078593133257133 .01207347530546754 .00529317168055
353 .00665073932432975 .01132397163367102 .00711284981071879 .00465374769085709
 .01027897697099072 .00831482210582963 .001764577385213505 .00933347380927417 .0
085 1119570412150226e-34 .00916515138991168 41 1 44 H?.0085 1119570412150226e-34
 .00916515138991168 204 88 45 4 2.393830018929875 .039 0 .0216651513899117 2.431
4407382982 .0414161740213858 5.99495522288135 .0219782855465333 2.52883951019631
 .043535188913432 5.7203909706954 .02272584658991695 2.691185039421135 .04552980
64881308 5.40714092687735 .02375337161798345 2.92319132247107 .0470569695596796
 5.03667403756327 .02470306348773145 3.114872816679285 .0474934369902531 4.75168
829782049 .02499553807994675 3.30892978496262 .0472410811254797 4.4649341014967
 .0248253972802802 3.487386133247975 .0463688262593669 4.19058365651437 .0242600
850524448 3.66068296242672 .0448134304466536 3.89473278348963 .02335338535011445
 3.815668692007955 .0423727929580762 3.54961975992122 .0222660499864607 3.880968
85635714 .0401427081664476 3.276437184523035 .02173611292447565 3.87937687673972
 .0377536296720863 2.994430248038405 .0217495102029408 3.82140752284074 .0357596
210055628 2.75047591641826 .02222111392935965 3.67114675895417 .0333097544770937
5 2.408137084808955 .02328790499174675 3.46673369891479 .0314962871198105 2.0598
2462371563 .0243450709997164 3.271477476510715 .03065561017402495 1.762437720015
165 .02489471022524675 3.06429477835549 .03055498548455375 1.456990641572604 .02
49626750806598 2.87960863722585 .0311406866742867 1.180050104099502 .02457347530
546755 2.704338300109805 .03234926067567025 .898574357836764 .02382397163367105
 2.536269325134385 .0343462523091429 .579373431776833 .02277897697099075 2.41385
0069842405 .0372354226147865 .209118147031882 .02183347380927415 2.3938300189298
75 .039 1317141661353206e-32 .0216651513899117 19 15 32 0 1 0 8 5 S0 74 4 CI16 i
ndex_map_offset0 0 1 dCCZ20 13 8 0 0 100 101 79 102 103 11 78 2 0 0 0 0 0 0 0 0
 0 0 0 0 81 2 100 44 104 1 0 101 0 0 0 105 81 2 101 48 106 1 100 102 0 0 0 107 8
1 2 102 337 108 1 101 103 0 0 109 0 81 2 103 505 110 1 102 11 0 0 0 111 81 2 11
 508 112 1 103 2 0 0 0 0 80 2 112 113 114 9000 0 0 0 0 3 5 0 0 0 FFTFFFFFFFFFFF9
 1 79 16 114 BODY_RECIPE_200180 2 110 115 116 9000 0 0 0 0 3 5 0 0 0 FFTFFFFFFFF
FFF9 1 82 1 111 1 79 24 116 BODY_IN_LIGHTWEIGHT_PERM80 2 108 117 118 8004 0 0 0
 0 3 5 0 0 0 FFTFFFFFFFFFFF2 3 83 1 109 85e2 79 16 118 SDL/TYSA_DENSITY80 2 106
 119 120 9000 0 0 0 0 3 5 0 0 0 FFTFFFFFFFFFFF9 1 82 1 107 47 79 30 120 LAST_BOD
Y_MODIFYING_FEATURE_ID80 2 104 121 122 9000 0 0 0 0 3 5 0 0 0 FFTFFFFFFFFFFT9 1
 82 1 105 124 79 19 122 ENT_TIME_STAMP_200180 2 10 123 124 9000 0 0 0 0 3 5 0 0
 0 FFTFFFFFFFFFFF9 1 82 1 12 102 79 12 124 ATOM_ID_20011 0 
