**ABCDEFGHIJKLMNOPQRSTUVWXYZabcdefghijklmnopqrstuvwxyz**************************
**PARASOLID !"#$%&'()*+,-./:;<=>?@[\]^_`{|}~0123456789**************************
**PART1;
MC=AMD64;
MC_MODEL=Intel64 Family 6 Model 60 Stepping 3, GenuineIntel;
MC_ID=unknown;
OS=Windows_NT;
OS_RELEASE=unknown;
FRU=Parasolid Version 31.0, build 282,  2-25-2019;
APPL=SOLIDWORKS 2019-2019115;
SITE=;
USER=unknown;
FORMAT=text;
GUISE=transmit;
KEY=Small-Pin;
FILE=Small-Pin.x_t;
DATE=Tue Nov 12 16:08:36 2019;
**PART2;
SCH=SCH_3100282_31001;
USFLD_SIZE=0;
**PART3;
**END_OF_HEADER*****************************************************************
T51 : TRANSMIT FILE created by modeller version 310028223 SCH_3100282_31001_1300
6215 0 12 34 CCCCCCI4 mesh1006 0 I8 polyline1008 0 CCCCCCCDI5 owner1040 0 CCCCCC
I13 boundary_mesh1006 0 I17 boundary_polyline1008 0 CCCA16 index_map_offset0 0 1
 dA9 index_map82 0 A17 node_id_index_map82 0 A20 schema_embedding_map82 0 A5 chi
ld12 0 A14 lowest_node_id0 0 1 dA16 mesh_offset_data206 0 Z1 2110 2 3 0 0 0 0 0
 0 1e3 1e-8 0 4 0 1 0 1 1 5 6 7 0 0 0 8 9 0 0 0 0 0 0 0 0 81 255 2 2 2105 10 1 1
1 0 0 0 0 12 70 11 CI9 list_type0 0 1 uI10 notransmit0 0 1 lCCCDCCDI12 finger_in
dex0 0 1 dI12 finger_block1012 0 CZ3 0 4 T1 0 0 8 20 1 13 13 13 255 5 31 0 1 0 1
4 0 0 15 0 52 255 6 106 0 16 17 0 0 +0 0 .039 0 0 -1 .0055 .707106781186548 .707
106781186548 -1 0 0 31 255 7 76 0 9 18 0 0 +0 0 .039 0 0 1 1 0 0 .0055 19 8 CCCC
CCCA5 owner12 0 Z8 9 0 1 15 0 19 V0 16 255 9 73 0 ?20 0 21 7 0 0 1 17 255 20 0 2
2 20 20 0 23 9 0 0 +16 21 67 0 ?24 9 25 18 0 0 1 17 24 0 26 24 24 0 27 21 0 0 +1
6 25 61 0 ?28 21 29 30 0 0 1 31 18 70 0 21 30 7 0 -0 0 -.039 0 0 1 1 0 0 .0055 3
1 30 64 0 25 31 18 0 +0 0 -.036 0 0 1 1 0 0 .0085 31 31 58 0 29 0 30 0 -0 0 .036
 0 0 1 1 0 0 .0085 16 29 55 0 ?32 25 0 31 0 0 1 17 32 0 33 32 32 0 34 29 0 0 +15
 255 33 56 0 32 14 0 17 34 0 35 34 34 0 32 29 0 0 -15 35 100 0 34 16 36 14 255 1
6 99 37 ?0 38 35 5 6 +0 0 0 38 19 15 36 101 0 23 16 0 17 23 0 36 23 23 0 20 9 0
 0 -81 1 37 2106 39 16 40 0 0 41 42 14 38 86 41 ?16 43 44 5 17 +0 0 16 43 19 13
 19 10 0 0 0 0 0 0 8 14 14 14 27 45 ?46 0 47 5 48 -0 0 46 0 19 81 1 45 2108 39 1
4 49 0 41 50 51 14 46 1 50 ?43 14 22 5 52 +0 0 43 14 19 15 47 62 0 28 14 33 51 2
55 48 30 0 14 53 17 0 -0 0 .039 0 0 -1 .0085 -1 0 0 50 255 53 24 0 43 52 48 0 +0
 0 -.039 0 0 1 1 0 0 52 17 93 0 38 48 6 0 +0 0 -.036 0 0 1 .0085 .70710678118654
9 .707106781186546 1 0 0 14 43 18 54 ?38 46 26 5 53 -0 0 38 46 19 50 52 3 0 46 0
 53 0 +0 0 .039 0 0 1 1 0 0 81 1 54 2110 39 43 55 0 50 0 56 15 26 68 0 24 43 0 8
0 255 1 39 57 58 9000 1 1 1 1 1 1 1 1 0 FFFFTFTFFFFFFF1 81 1 55 2091 59 43 0 54
 60 61 62 81 1 50 2109 39 46 60 0 45 54 63 82 255 1 56 -1805713296 81 1 60 2090
 59 46 0 50 49 55 64 82 1 63 -1807417232 80 1 59 0 65 8001 0 0 0 0 3 5 0 0 0 FFF
FTFTFFFFFFF2 81 1 49 2089 59 14 0 45 0 60 66 83 255 3 64 .647058823529412 .51764
7058823529 0 83 3 66 .647058823529412 .517647058823529 0 79 255 15 65 SDL/TYSA_C
OLOUR81 1 61 2092 59 38 0 41 55 40 67 83 3 62 .647058823529412 .517647058823529
 0 81 1 41 2107 39 38 61 0 37 45 68 81 1 40 2093 59 16 0 37 61 0 69 83 3 67 .647
058823529412 .517647058823529 0 83 3 69 .647058823529412 .517647058823529 0 82 1
 68 -1799225232 79 14 58 SWEntUnchanged17 28 0 47 28 28 0 70 25 0 0 +17 70 0 71
 70 70 0 28 25 0 0 -15 71 88 0 70 38 0 15 22 74 0 20 46 0 82 1 51 -1805451152 15
 44 87 0 27 38 71 17 27 0 44 27 27 0 24 21 0 0 -82 1 42 -1797980048 19 15 32 0 1
 0 8 5 S0 74 4 CI16 index_map_offset0 0 1 dCCZ20 13 8 0 0 72 73 54 74 75 11 40 2
 0 0 0 0 0 0 0 0 0 0 0 0 81 2 72 44 76 1 0 73 0 0 0 77 81 2 73 48 78 1 72 74 0 0
 0 79 81 2 74 215 80 1 73 75 0 0 81 0 81 2 75 2083 82 1 74 11 0 0 0 83 81 2 11 2
086 84 1 75 2 0 0 0 0 80 2 84 85 86 9000 0 0 0 0 3 5 0 0 0 FFTFFFFFFFFFFF9 1 79
 16 86 BODY_RECIPE_200180 2 82 87 88 9000 0 0 0 0 3 5 0 0 0 FFTFFFFFFFFFFF9 1 82
 1 83 1 79 24 88 BODY_IN_LIGHTWEIGHT_PERM80 2 80 89 90 8004 0 0 0 0 3 5 0 0 0 FF
TFFFFFFFFFFF2 3 83 1 81 85e2 79 16 90 SDL/TYSA_DENSITY80 2 78 91 92 9000 0 0 0 0
 3 5 0 0 0 FFTFFFFFFFFFFF9 1 82 1 79 37 79 30 92 LAST_BODY_MODIFYING_FEATURE_ID8
0 2 76 93 94 9000 0 0 0 0 3 5 0 0 0 FFTFFFFFFFFFFT9 1 82 1 77 110 79 19 94 ENT_T
IME_STAMP_200180 2 10 95 96 9000 0 0 0 0 3 5 0 0 0 FFTFFFFFFFFFFF9 1 82 1 12 101
 79 12 96 ATOM_ID_20011 0 
