**ABCDEFGHIJKLMNOPQRSTUVWXYZabcdefghijklmnopqrstuvwxyz**************************
**PARASOLID !"#$%&'()*+,-./:;<=>?@[\]^_`{|}~0123456789**************************
**PART1;
MC=AMD64;
MC_MODEL=Intel64 Family 6 Model 60 Stepping 3, GenuineIntel;
MC_ID=unknown;
OS=Windows_NT;
OS_RELEASE=unknown;
FRU=Parasolid Version 31.0, build 282,  2-25-2019;
APPL=SOLIDWORKS 2019-2019115;
SITE=;
USER=unknown;
FORMAT=text;
GUISE=transmit;
KEY=Bolt;
FILE=Bolt.x_t;
DATE=Tue Nov 12 17:07:43 2019;
**PART2;
SCH=SCH_3100282_31001;
USFLD_SIZE=0;
**PART3;
**END_OF_HEADER*****************************************************************
T51 : TRANSMIT FILE created by modeller version 310028223 SCH_3100282_31001_1300
6215 0 12 34 CCCCCCI4 mesh1006 0 I8 polyline1008 0 CCCCCCCDI5 owner1040 0 CCCCCC
I13 boundary_mesh1006 0 I17 boundary_polyline1008 0 CCCA16 index_map_offset0 0 1
 dA9 index_map82 0 A17 node_id_index_map82 0 A20 schema_embedding_map82 0 A5 chi
ld12 0 A14 lowest_node_id0 0 1 dA16 mesh_offset_data206 0 Z1 666 2 3 0 0 0 0 0 0
 1e3 1e-8 0 4 0 1 0 1 1 5 6 7 8 0 0 9 10 11 0 0 0 0 0 0 0 81 255 2 2 653 12 1 13
 0 0 0 0 14 70 11 CI9 list_type0 0 1 uI10 notransmit0 0 1 lCCCDCCDI12 finger_ind
ex0 0 1 dI12 finger_block1012 0 CZ3 0 4 T1 0 0 10 20 1 15 15 13 255 5 39 0 1 0 1
6 0 0 17 0 52 255 6 534 0 18 19 0 0 +0 0 .03683 0 0 -1 .00508 .707106781186544 .
707106781186551 -1 0 0 31 255 7 518 0 10 20 0 0 -0 0 .036195 0 0 1 1 0 0 .005715
 29 255 8 230 0 11 21 0 -867361737988404e-33 -.00953205294432072 -.0060889470556
7927 19 8 CCCCCCCA5 owner12 0 Z9 14 0 1 17 0 22 V0 16 255 10 515 0 ?23 0 24 7 0
 0 1 18 255 11 228 0 25 0 26 8 ?1 17 255 25 0 27 28 29 11 30 31 0 32 +18 26 225
 0 33 11 34 21 ?1 17 33 0 35 36 37 26 38 39 0 40 +18 34 343 0 41 26 42 43 ?1 29
 21 227 0 26 43 8 -.008255 -.00476602647216036 -.001531052944320735 29 43 445 0
 34 44 21 -.008255 .00476602647216036 -.00608894705567927 29 44 446 0 42 45 43 8
28509697523048e-33 .00953205294432072 -.00608894705567927 18 42 344 0 46 34 47 4
4 ?1 29 45 447 0 47 48 44 .008255 .00476602647216036 -.00608894705567927 18 47 3
45 0 49 42 50 45 ?1 29 48 448 0 50 51 45 .008255 -.00476602647216036 -.006088947
05567927 18 50 346 0 29 47 52 48 ?1 29 51 449 0 52 53 48 -.008255 -.004766026472
16036 -.00608894705567927 18 52 355 0 28 50 54 51 ?1 29 53 451 0 54 55 51 -.0082
55 .00476602647216036 -.001531052944320735 18 54 356 0 37 52 56 53 ?1 29 55 452
 0 56 57 53 994710484189396e-33 .00953205294432072 -.00153105294432073 18 56 357
 0 58 54 59 55 ?1 29 57 453 0 59 60 55 .008255 .00476602647216036 -.001531052944
32073 18 59 358 0 61 56 62 57 ?1 29 60 454 0 62 63 57 .008255 -.0047660264721603
6 -.001531052944320725 18 62 359 0 64 59 65 60 ?1 29 63 455 0 65 0 60 -154440310
370659e-32 -.00953205294432072 -.00153105294432073 18 65 360 0 36 62 0 63 ?1 17
 36 0 35 64 33 65 40 66 0 67 +15 255 35 395 0 33 68 69 17 64 0 35 61 36 62 67 70
 0 71 +17 40 0 72 73 74 26 36 66 0 75 -16 66 330 0 ?36 70 76 77 0 0 1 17 67 0 78
 79 80 65 64 70 0 74 -15 78 253 0 30 81 0 17 79 0 78 30 67 11 74 82 0 0 -17 80 0
 78 67 30 62 83 84 0 0 +16 70 331 0 ?64 85 66 86 0 0 1 17 74 0 72 40 32 65 79 82
 0 0 +15 72 239 0 32 87 0 17 32 0 72 74 73 11 28 88 0 79 -16 82 229 0 ?74 84 89
 90 0 0 1 16 84 243 0 ?80 91 82 92 0 0 1 16 89 223 0 ?75 82 93 94 0 0 1 30 255 9
0 161 0 82 92 94 0 +-867361737988404e-33 -.00953205294432072 -.00762 0 0 1 30 92
 162 0 84 95 90 0 +.008255 -.00476602647216036 -.00762 0 0 1 30 94 160 0 89 90 9
6 0 +-.008255 -.00476602647216036 -.00762 0 0 1 31 96 33 0 97 94 20 0 +0 0 0 0 0
 1 1 0 0 .005715 16 97 61 0 ?98 24 99 96 0 0 1 31 20 512 0 24 96 7 0 +0 0 .03683
 0 0 1 1 0 0 .00508 16 24 509 0 ?100 10 97 20 0 0 1 17 100 0 101 100 100 0 102 2
4 0 0 +15 101 510 0 100 103 0 17 102 0 104 102 102 0 100 24 0 0 -15 104 529 0 10
2 18 0 14 255 18 527 105 ?0 106 107 5 6 +0 0 0 106 22 81 1 105 654 108 18 109 0
 0 110 111 14 106 220 110 ?18 112 113 5 114 -0 0 18 112 22 15 107 528 0 115 18 1
04 13 22 15 0 0 0 0 0 0 9 16 14 16 214 116 ?117 0 118 5 119 +0 0 117 0 22 81 1 1
16 656 108 16 120 0 110 121 122 14 117 35 121 ?103 16 123 5 19 -0 0 103 16 22 15
 118 148 0 124 16 125 50 255 119 158 0 16 114 126 0 +0 0 0 0 0 1 1 0 0 50 114 15
9 0 106 127 119 0 +0 0 -.00762 0 0 1 1 0 0 50 126 157 0 128 119 129 130 +-.00412
75 .00714903970824054 -.00762 -.5 .866025403784439 0 -.866025403784439 -.5 0 14
 128 123 131 ?132 133 134 5 126 +0 0 132 133 22 50 129 156 0 133 126 135 136 +.0
041275 .00714903970824054 -.00762 .5 .866025403784439 0 -.866025403784439 .5 0 1
41 255 130 137 138 138 126 38 12 CCCCCCCCCCCA17 intersection_data204 0 Z137 423
 0 139 140 141 0 +126 142 143 144 145 146 141 138 147 130 130 126 38 147 417 0 1
48 149 150 0 +126 127 151 152 153 154 16 148 324 0 ?46 93 155 147 0 0 1 38 149 4
18 0 155 156 147 0 +129 127 157 158 159 160 38 150 416 0 93 147 161 0 +162 127 1
63 164 165 166 52 127 402 0 112 142 114 167 -209625421321417e-32 0 -.00762 -2750
98978112096e-30 0 1 .008001 .707106781186549 .707106781186546 1 0 27509897811209
6e-30 40 255 4 151 0 1 4 .000951631383659202 .3914744511493625 ??-.0082552 .0047
6591100210652 -.00608883158352727 -.00464582799534047 .0068497829006022 -.007344
3313738152 -.00198204488741591 .00838771879502523 -.00700228034333688 2000000000
024165e-22 .00953216841437456 -.00608883158352727 41 3 CI8 term_use0 0 1 cCZ1 15
2 L?-.0082552 .00476591100210652 -.00608883158352727 41 1 153 L?2000000000024165
e-22 .00953216841437456 -.00608883158352727 204 2 17 INTERSECTION_DATA17 Interse
ction data7 uv_type0 0 1 u6 values0 1 1 fT16 154 4 .00476625741226804 .001531168
41647273 2.6180148595763 .001531168416472735 .00059851361527668 .000275668626184
7965 2.166771622490435 .0002756686261848055 -.002477358173569365 .00061771965666
3116 1.802842936301445 .000617719656663118 -.00476625741226804 .0015311684164727
3 1.57077534521009 .00153116841647273 14 112 389 168 ?106 132 27 5 127 -0 0 106
 132 22 52 142 403 0 68 0 127 169 -1048127106607088e-33 0 -.00381 27509897811209
6e-30 0 -1 .011811 .707106781186546 .707106781186549 -1 0 -275098978112096e-30 1
41 167 170 171 172 127 38 170 421 0 88 141 173 0 +174 127 175 176 177 178 141 17
1 150 179 167 127 141 172 173 167 180 127 38 173 420 0 31 170 156 0 +181 127 182
 183 184 185 141 180 156 172 186 127 38 156 419 0 187 173 149 0 +135 127 188 189
 190 191 141 186 149 180 179 127 141 179 147 186 171 127 16 187 326 0 ?29 155 31
 156 0 0 1 50 135 155 0 192 129 181 193 +.008255 150231459873716e-32 -.00762 1 1
81988443214677e-30 0 -181988443214677e-30 1 0 40 7 188 0 1 7 .001559263987134195
 .3815715811243965 ??.008255 .0150315142583519 .00152809460872602 .008255 .00954
779699243288 -.00299937362267801 .008255 .00342273382201444 -.00668455037968875
 .008255 -.0001304440892176336 -.00736496943680487 .008255 -.00368002454870881 -
.00658288041243646 .008255 -.01086988569528672 -.00197184471373415 .008255 -.015
0315142583519 .00152809460872602 41 1 189 L?.008255 .0150315142583519 .001528094
60872602 41 1 190 L?.008255 -.0150315142583519 .00152809460872602 204 28 191 4 .
0150315142583519 .00914809460872602 1.068583250192098 .00914809460872602 .009547
79699243287 .00462062637732199 .857888554183247 .00462062637732199 .003422733822
014435 .000935449620311252 .3930506742682215 .000935449620311288 -.0001304440892
176352 .0002550305631951265 6.26738479432134 .0002550305631951265 -.003680024548
708815 .001037119587563536 5.86383509111521 .001037119587563536 -.01086988569528
672 .00564815528626585 5.36190284788844 .00564815528626585 -.0150315142583519 .0
0914809460872602 5.21460205698749 .00914809460872602 14 192 131 194 ?133 81 195
 5 135 +0 0 133 81 22 50 181 154 0 81 135 174 196 +.0041275 -.00714903970824054
 -.00762 .5 -.866025403784439 0 .866025403784439 .5 0 141 193 197 198 198 135 38
 197 425 0 85 86 140 0 +135 142 199 200 201 202 141 198 156 193 193 135 16 85 33
2 0 ?61 203 70 197 0 0 1 38 86 426 0 70 77 197 0 +181 142 204 205 206 207 38 140
 424 0 203 197 137 0 +129 142 208 209 210 211 40 7 199 0 1 7 .00155926398713414
 .381571581124395 ??.008255 -.0150315142583519 -.00914809460872608 .008255 -.009
54779699243291 -.00462062637732204 .008255 -.00342273382201451 -.000935449620311
276 .008255 .0001304440892175484 -.000255030563195113 .008255 .00368002454870873
 -.001037119587563498 .008255 .0108698856952864 -.00564815528626561 .008255 .015
0315142583519 -.00914809460872609 41 1 200 L?.008255 -.0150315142583519 -.009148
09460872608 41 1 201 L?.008255 .0150315142583519 -.00914809460872609 204 28 202
 4 -.0150315142583519 -.001528094608726085 4.21017590378189 .00533809460872608 -
.00954779699243291 .00299937362267796 3.99948120777304 .000810626377322032 -.003
422733822014515 .00668455037968872 3.53464332785802 -.00287455037968873 .0001304
44089217547 .00736496943680489 3.12579214073156 -.003554969436804895 .0036800245
4870873 .0065828804124365 2.72224243752542 -.00277288041243651 .0108698856952864
 .001971844713734395 2.22031019429866 .0018381552862656 .0150315142583519 -.0015
28094608726085 2.073009403397695 .00533809460872608 16 203 333 0 ?58 139 85 140
 0 0 1 40 4 208 0 1 4 .000951631383659192 .391474451149362 ??.0082552 .004765911
00210652 -.001531168416472725 .0046458279953405 .00684978290060219 -.00027566862
61847885 .001982044887415965 .00838771879502519 -.000617719656663092 -1999999999
99059e-21 .00953216841437456 -.00153116841647273 41 1 209 L?.0082552 .0047659110
0210652 -.001531168416472725 41 1 210 L?-199999999999059e-21 .00953216841437456
 -.00153116841647273 204 16 211 4 -.00476625741226804 .00608883158352728 2.61801
48595763 -.002278831583527285 -.00059851361527671 .00734433137381521 2.166771622
49044 -.00353433137381522 .002477358173569305 .00700228034333691 1.8028429363014
5 -.003192280343336915 .00476625741226804 .00608883158352727 1.57077534521009 -.
00227883158352728 17 58 0 35 37 61 56 212 203 0 213 +16 139 328 0 ?37 39 203 137
 0 0 1 17 37 0 35 33 58 54 213 139 0 38 +16 39 329 0 ?33 88 139 141 0 0 1 16 88
 322 0 ?28 31 39 170 0 0 1 38 141 422 0 39 137 170 0 +162 142 214 215 216 217 50
 162 152 0 132 174 218 219 +-.008255 -150231459873716e-32 -.00762 -1 -1819884432
14677e-30 0 181988443214677e-30 -1 0 40 7 214 0 1 7 .001559263987134135 .3815715
81124395 ??-.008255 .0150315142583519 -.00914809460872609 -.008255 .009547796992
43291 -.00462062637732205 -.008255 .00342273382201451 -.000935449620311282 -.008
255 -.000130444089217548 -.0002550305631951175 -.008255 -.00368002454870873 -.00
1037119587563504 -.008255 -.0108698856952864 -.00564815528626561 -.008255 -.0150
315142583519 -.00914809460872609 41 1 215 L?-.008255 .0150315142583519 -.0091480
9460872609 41 1 216 L?-.008255 -.0150315142583519 -.00914809460872609 204 28 217
 4 -.0150315142583519 -.001528094608726095 1.068583250192098 .00533809460872608
 -.00954779699243291 .00299937362267795 .857888554183249 .000810626377322035 -.0
03422733822014515 .00668455037968872 .393050674268229 -.00287455037968873 .00013
04440892175464 .00736496943680488 6.26738479432135 -.003554969436804895 .0036800
2454870873 .00658288041243649 5.86383509111522 -.00277288041243651 .010869885695
2864 .001971844713734385 5.36190284788845 .0018381552862656 .0150315142583519 -.
00152809460872609 5.21460205698749 .00533809460872608 14 132 119 220 ?112 128 22
1 5 162 +0 0 112 128 22 50 174 153 0 87 181 162 222 +-.0041275 -.007149039708240
54 -.00762 -.5 -.866025403784439 0 .866025403784439 -.5 0 50 218 3 0 103 162 19
 0 +0 0 .03683 0 0 1 1 0 0 141 219 141 223 223 162 141 223 150 219 219 162 14 10
3 1 224 ?68 117 101 5 218 +0 0 68 117 22 51 255 19 38 0 117 218 6 0 -0 0 .03683
 0 0 -1 .005715 -1 0 0 81 1 224 662 108 103 225 0 220 226 227 14 68 393 226 ?87
 103 35 5 142 -0 0 87 103 22 81 1 226 663 108 68 228 0 224 229 230 14 87 139 229
 ?81 68 72 5 174 +0 0 81 68 22 81 1 229 664 108 87 231 0 226 232 233 14 81 135 2
32 ?192 87 78 5 181 +0 0 192 87 22 81 1 232 665 108 81 234 0 229 235 236 80 255
 1 108 237 238 9000 1 1 1 1 1 1 1 1 0 FFFFTFTFFFFFFF1 81 1 234 618 239 81 0 232
 231 240 241 81 1 235 666 108 133 242 0 232 0 243 82 255 1 236 1145634966 14 133
 127 235 ?128 192 244 5 129 +0 0 128 192 22 81 1 242 620 239 133 0 235 240 245 2
46 82 1 243 1145372822 80 1 239 0 247 8001 0 0 0 0 3 5 0 0 0 FFFFTFTFFFFFFF2 81
 1 240 619 239 192 0 194 234 242 248 81 1 245 621 239 128 0 131 242 249 250 83 2
55 3 246 .776470588235294 .756862745098039 .737254901960784 81 1 131 658 108 128
 245 0 121 168 251 81 1 249 622 239 132 0 220 245 252 253 83 3 250 .776470588235
294 .756862745098039 .737254901960784 81 1 220 661 108 132 249 0 194 224 254 81
 1 252 623 239 112 0 168 249 255 256 83 3 253 .776470588235294 .756862745098039
 .737254901960784 81 1 168 659 108 112 252 0 131 194 257 81 1 255 624 239 106 0
 110 252 109 258 83 3 256 .776470588235294 .756862745098039 .737254901960784 81
 1 110 655 108 106 255 0 105 116 259 81 1 109 625 239 18 0 105 255 0 260 83 3 25
8 .776470588235294 .756862745098039 .737254901960784 83 3 260 .776470588235294 .
756862745098039 .737254901960784 82 1 259 1179844758 81 1 194 660 108 192 240 0
 168 220 261 82 1 257 1171652758 82 1 261 1145503894 82 1 254 1145897110 81 1 12
1 657 108 117 262 0 116 131 263 82 1 251 1145241750 81 1 262 614 239 117 0 121 1
20 225 264 82 1 263 1087373463 81 1 120 613 239 16 0 116 0 262 265 81 1 225 615
 239 103 0 224 262 228 266 83 3 264 .776470588235294 .756862745098039 .737254901
960784 81 1 228 616 239 68 0 226 225 231 267 83 3 266 .776470588235294 .75686274
5098039 .737254901960784 81 1 231 617 239 87 0 229 228 234 268 83 3 267 .7764705
88235294 .756862745098039 .737254901960784 83 3 268 .776470588235294 .7568627450
98039 .737254901960784 83 3 265 .776470588235294 .756862745098039 .7372549019607
84 83 3 248 .776470588235294 .756862745098039 .737254901960784 79 255 15 247 SDL
/TYSA_COLOUR15 244 281 0 269 133 0 17 269 0 244 270 271 42 49 155 0 272 -17 270
 0 244 212 269 56 272 273 0 0 +17 271 0 244 269 212 47 274 91 0 0 -17 49 0 27 29
 46 47 269 155 0 275 +16 155 325 0 ?49 148 187 149 0 0 1 17 272 0 134 276 213 42
 270 273 0 0 -15 134 295 0 276 128 0 17 276 0 134 277 272 34 46 148 0 278 -17 21
3 0 134 272 277 56 37 139 0 270 -16 273 271 0 ?270 99 91 279 0 0 1 16 99 285 0 ?
277 97 273 161 0 0 1 16 91 257 0 ?274 273 84 95 0 0 1 30 279 164 0 273 161 95 0
 +867361737988404e-33 .00953205294432072 -.00762 0 0 1 30 161 165 0 99 150 279 0
 +-.008255 .00476602647216036 -.00762 0 0 1 30 95 163 0 91 279 92 0 +.008255 .00
476602647216036 -.00762 0 0 1 17 274 0 195 71 275 59 271 91 0 0 +15 195 267 0 27
5 192 0 17 71 0 195 83 274 62 61 85 0 80 -17 275 0 195 274 83 47 29 187 0 271 -1
7 83 0 195 275 71 50 80 84 0 0 -17 29 0 27 25 49 50 275 187 0 30 +15 27 391 0 41
 112 280 17 30 0 78 80 79 50 25 31 0 83 -16 31 327 0 ?25 187 88 173 0 0 1 17 41
 0 27 46 28 34 281 93 0 276 +15 280 392 0 282 112 0 17 282 0 280 282 282 0 283 7
6 0 0 +17 283 0 113 283 283 0 282 76 0 0 -16 76 335 0 ?282 66 284 285 0 0 1 16 2
84 336 0 ?286 76 0 287 0 0 1 31 285 430 0 76 287 77 0 +209625421321417e-32 0 -.0
0762 -275098978112096e-30 0 1 1 0 275098978112096e-30 .008001 31 287 432 0 284 0
 285 0 +605511261514313e-48 0 -220106692387488e-32 -275098978112096e-30 0 1 1 0
 275098978112096e-30 .008001 38 77 427 0 66 285 86 0 +174 142 288 289 290 291 40
 4 288 0 1 4 .000951631383659192 .3914744511493615 ??-.0082552 -.004765911002106
52 -.00153116841647273 -.0046458279953405 -.00684978290060218 -.0002756686261847
89 -.001982044887415965 -.00838771879502519 -.000617719656663088 200000000000045
5e-22 -.00953216841437456 -.001531168416472725 41 1 289 L?-.0082552 -.0047659110
0210652 -.00153116841647273 41 1 290 L?2000000000000455e-22 -.00953216841437456
 -.001531168416472725 204 16 291 4 -.00476625741226804 .00608883158352727 5.7596
0751316609 -.002278831583527285 -.000598513615276712 .00734433137381521 5.308364
27608023 -.00353433137381522 .0024773581735693 .00700228034333691 4.944435589891
25 -.00319228034333692 .00476625741226804 .00608883158352728 4.71236799879988 -.
002278831583527285 17 286 0 125 286 286 0 292 284 0 0 +15 125 212 0 286 16 0 17
 292 0 69 292 292 0 286 284 0 0 -15 69 396 0 292 68 0 15 113 217 0 283 106 0 17
 46 0 27 49 41 42 276 148 0 269 +17 28 0 27 41 25 52 32 88 0 281 +17 281 0 221 7
5 278 52 41 93 0 73 -16 93 323 0 ?41 89 148 150 0 0 1 15 221 303 0 281 132 0 17
 75 0 221 38 281 26 73 89 0 0 +17 278 0 221 281 38 34 277 99 0 0 -17 73 0 72 32
 40 52 75 89 0 0 -17 38 0 221 278 75 54 33 39 0 277 -17 277 0 134 213 276 54 278
 99 0 0 +17 61 0 35 58 64 59 71 85 0 212 +17 212 0 244 271 270 59 58 203 0 274 -
83 3 241 .776470588235294 .756862745098039 .737254901960784 79 14 238 SWEntUncha
nged82 1 233 1145766038 82 1 230 1171062934 82 1 227 1084752023 141 222 77 293 2
93 174 141 293 170 222 222 174 40 4 204 0 1 4 .000951631383659191 .3914744511493
62 ??-2000000000008675e-22 -.00953216841437455 -.001531168416472725 .00360917200
46595 -.00744829651587889 -.000275668626184786 .00627295511258403 -.005910360621
45589 -.000617719656663088 .0082552 -.00476591100210652 -.001531168416472725 41
 1 205 L?-2000000000008675e-22 -.00953216841437455 -.001531168416472725 41 1 206
 L?.0082552 -.00476591100210652 -.001531168416472725 204 16 207 4 -.004766257412
26803 .00608883158352728 4.7124099619695 -.002278831583527285 -.0005985136152767
08 .00734433137381521 4.261166724883635 -.003534331373815225 .002477358173569305
 .00700228034333691 3.897238038694645 -.00319228034333692 .00476625741226804 .00
608883158352728 3.665170447603285 -.002278831583527285 141 196 86 294 294 181 14
1 294 173 196 196 181 40 4 182 0 1 4 .000951631383659199 .3914744511493625 ??.00
82552 -.00476591100210652 -.00608883158352727 .00464582799534047 -.0068497829006
022 -.00734433137381521 .001982044887415915 -.00838771879502522 -.00700228034333
689 -200000000000872e-21 -.00953216841437455 -.00608883158352728 41 1 183 L?.008
2552 -.00476591100210652 -.00608883158352727 41 1 184 L?-200000000000872e-21 -.0
0953216841437455 -.00608883158352728 204 16 185 4 .00476625741226804 .0015311684
16472725 5.75960751316609 .001531168416472725 .000598513615276684 .0002756686261
84794 5.30836427608023 .0002756686261848005 -.00247735817356936 .000617719656663
11 4.94443558989124 .000617719656663113 -.00476625741226803 .00153116841647272 4
.71236799879988 .001531168416472725 40 4 175 0 1 4 .000951631383659198 .39147445
1149362 ??1999999999997205e-22 -.00953216841437456 -.00608883158352728 -.0036091
72004659525 -.00744829651587888 -.0073443313738152 -.00627295511258408 -.0059103
6062145586 -.00700228034333689 -.0082552 -.00476591100210652 -.00608883158352728
 41 1 176 L?1999999999997205e-22 -.00953216841437456 -.00608883158352728 41 1 17
7 L?-.0082552 -.00476591100210652 -.00608883158352728 204 16 178 4 .004766257412
26804 .001531168416472725 4.7124099619695 .00153116841647273 .000598513615276686
 .000275668626184795 4.261166724883635 .0002756686261848025 -.00247735817356936
 .00061771965666311 3.89723803869464 .000617719656663115 -.00476625741226804 .00
1531168416472725 3.665170447603285 .00153116841647273 141 169 77 295 296 142 141
 295 141 297 169 142 141 296 86 169 298 142 141 298 197 296 299 142 141 299 140
 298 297 142 141 297 137 299 295 142 40 7 163 0 1 7 .00155926398713419 .38157158
11243965 ??-.008255 -.0150315142583519 .001528094608726015 -.008255 -.0095477969
9243287 -.00299937362267802 -.008255 -.003422733822014435 -.00668455037968875 -.
008255 .0001304440892176356 -.00736496943680487 -.008255 .003680024548708815 -.0
0658288041243646 -.008255 .01086988569528672 -.001971844713734155 -.008255 .0150
315142583519 .00152809460872602 41 1 164 L?-.008255 -.0150315142583519 .00152809
4608726015 41 1 165 L?-.008255 .0150315142583519 .00152809460872602 204 28 166 4
 .0150315142583519 .00914809460872601 4.21017590378189 .00914809460872602 .00954
779699243287 .00462062637732198 3.99948120777304 .00462062637732199 .00342273382
2014435 .000935449620311251 3.534643327858015 .000935449620311289 -.000130444089
2176372 .000255030563195126 3.12579214073155 .00025503056319513 -.00368002454870
8815 .001037119587563536 2.722242437525415 .001037119587563542 -.010869885695286
72 .00564815528626584 2.220310194298645 .00564815528626585 -.0150315142583519 .0
0914809460872602 2.073009403397695 .00914809460872602 40 4 157 0 1 4 .0009516313
83659199 .3914744511493625 ??-199999999999267e-21 .00953216841437456 -.006088831
58352727 .003609172004659525 .00744829651587888 -.0073443313738152 .006272955112
58409 .00591036062145586 -.00700228034333689 .0082552 .00476591100210652 -.00608
883158352727 41 1 158 L?-199999999999267e-21 .00953216841437456 -.00608883158352
727 41 1 159 L?.0082552 .00476591100210652 -.00608883158352727 204 16 160 4 .004
76625741226804 .001531168416472725 1.570817308379705 .00153116841647273 .0005985
13615276684 .0002756686261847955 1.11957407129384 .0002756686261848025 -.0024773
5817356936 .000617719656663115 .755645385104848 .000617719656663115 -.0047662574
1226804 .001531168416472725 .523577794013493 .00153116841647273 40 4 143 0 1 4 .
000951631383659192 .391474451149362 ??200000000001349e-21 .00953216841437456 -.0
0153116841647273 -.0036091720046595 .0074482965158789 -.000275668626184792 -.006
27295511258403 .00591036062145589 -.000617719656663094 -.0082552 .00476591100210
652 -.001531168416472735 41 1 144 L?200000000001349e-21 .00953216841437456 -.001
53116841647273 41 1 145 L?-.0082552 .00476591100210652 -.001531168416472735 204
 16 146 4 -.00476625741226804 .00608883158352727 1.570817308379705 -.00227883158
352728 -.00059851361527671 .00734433137381521 1.119574071293842 -.00353433137381
522 .0024773581735693 .00700228034333691 .755645385104855 -.003192280343336915 .
00476625741226804 .00608883158352727 .523577794013493 -.00227883158352728 141 13
6 140 300 300 129 141 300 149 136 136 129 17 124 0 118 124 124 0 98 97 0 0 -17 9
8 0 301 98 98 0 124 97 0 0 +15 301 36 0 98 117 0 15 123 516 0 23 117 301 17 23 0
 123 23 23 0 115 10 0 0 +17 115 0 107 115 115 0 23 10 0 0 -82 1 122 1176699030 8
2 1 111 1203044503 19 17 40 0 1 0 9 5 S0 74 4 CI16 index_map_offset0 0 1 dCCZ20
 15 10 0 0 302 235 303 304 305 306 307 13 109 2 0 0 0 0 0 0 0 0 0 0 81 5 302 13
 308 1 0 303 0 0 309 0 0 0 0 81 2 303 190 310 1 302 304 0 0 0 311 81 2 304 200 3
12 1 303 305 0 0 0 313 81 1 305 540 314 1 304 306 0 0 315 81 2 306 556 316 1 305
 307 0 0 317 0 81 2 307 607 318 1 306 13 0 0 0 319 81 2 13 610 320 1 307 2 0 0 0
 0 80 2 320 321 322 9000 0 0 0 0 3 5 0 0 0 FFTFFFFFFFFFFF9 1 79 16 322 BODY_RECI
PE_200180 2 318 323 324 9000 0 0 0 0 3 5 0 0 0 FFTFFFFFFFFFFF9 1 82 1 319 1 79 2
4 324 BODY_IN_LIGHTWEIGHT_PERM80 2 316 325 326 8004 0 0 0 0 3 5 0 0 0 FFTFFFFFFF
FFFF2 3 83 1 317 1 79 16 326 SDL/TYSA_DENSITY80 1 314 327 328 9000 1 1 1 1 1 1 1
 1 0 FFTFFFFFFFFFFF1 82 1 315 147622 79 10 328 BODY_MATCH80 2 312 329 330 9000 0
 0 0 0 3 5 0 0 0 FFTFFFFFFFFFFF9 1 82 1 313 60 79 30 330 LAST_BODY_MODIFYING_FEA
TURE_ID80 2 310 331 332 9000 0 0 0 0 3 5 0 0 0 FFTFFFFFFFFFFT9 1 82 1 311 138 79
 19 332 ENT_TIME_STAMP_200180 5 308 333 334 9000 0 0 0 0 3 6 0 0 0 FFTTTTTTFTTFT
T2 2 2 2 2 83 1 309 1 79 19 334 BODY_SCALING_FACTOR80 2 12 335 336 9000 0 0 0 0
 3 5 0 0 0 FFTFFFFFFFFFFF9 1 82 1 14 103 79 12 336 ATOM_ID_20011 0 
