**ABCDEFGHIJKLMNOPQRSTUVWXYZabcdefghijklmnopqrstuvwxyz**************************
**PARASOLID !"#$%&'()*+,-./:;<=>?@[\]^_`{|}~0123456789**************************
**PART1;
MC=AMD64;
MC_MODEL=Intel64 Family 6 Model 60 Stepping 3, GenuineIntel;
MC_ID=unknown;
OS=Windows_NT;
OS_RELEASE=unknown;
FRU=Parasolid Version 31.0, build 282,  2-25-2019;
APPL=SOLIDWORKS 2019-2019115;
SITE=;
USER=unknown;
FORMAT=text;
GUISE=transmit;
KEY=Holder;
FILE=Holder.x_t;
DATE=Tue Nov 12 17:04:01 2019;
**PART2;
SCH=SCH_3100282_31001;
USFLD_SIZE=0;
**PART3;
**END_OF_HEADER*****************************************************************
T51 : TRANSMIT FILE created by modeller version 310028223 SCH_3100282_31001_1300
6215 0 12 34 CCCCCCI4 mesh1006 0 I8 polyline1008 0 CCCCCCCDI5 owner1040 0 CCCCCC
I13 boundary_mesh1006 0 I17 boundary_polyline1008 0 CCCA16 index_map_offset0 0 1
 dA9 index_map82 0 A17 node_id_index_map82 0 A20 schema_embedding_map82 0 A5 chi
ld12 0 A14 lowest_node_id0 0 1 dA16 mesh_offset_data206 0 Z1 786 2 3 0 0 0 0 0 0
 1e3 1e-8 0 4 0 1 0 1 1 5 6 7 8 0 0 9 10 11 0 0 0 0 0 0 0 81 255 2 2 766 12 1 13
 0 0 0 0 14 70 11 CI9 list_type0 0 1 uI10 notransmit0 0 1 lCCCDCCDI12 finger_ind
ex0 0 1 dI12 finger_block1012 0 CZ3 0 4 T1 0 0 9 20 1 15 15 13 255 5 99 0 1 0 16
 0 0 17 0 52 255 6 553 0 18 19 0 0 -0 0 .004445 0 0 1 .005715 .707106781186548 .
707106781186547 1 0 0 30 255 7 527 0 20 21 0 0 +-1983009329519355e-33 -.010795 .
00508 -129893408435325e-30 -.707106781186552 -.707106781186543 29 255 8 369 0 11
 22 0 0 .010795 .00508 19 8 CCCCCCCA5 owner12 0 Z9 33 0 1 17 0 23 V0 16 255 10 3
76 0 ?24 0 25 26 0 0 1 18 255 11 367 0 27 0 28 8 ?1 17 255 27 0 29 30 31 11 32 3
3 0 34 +18 28 363 0 31 11 35 22 ?1 17 31 0 29 27 36 28 37 38 0 39 +18 35 359 0 3
6 28 40 41 ?1 29 22 365 0 28 41 8 -1983009329519355e-33 -.010795 .00508 29 41 36
1 0 35 42 22 -.0635 -.010795 .00508 29 42 358 0 40 43 41 -.0635 .010795 .00508 1
8 40 356 0 44 35 45 42 ?1 29 43 329 0 45 46 42 -.0635 .01143 .000635000000000009
 18 45 327 0 47 40 48 43 ?1 29 46 326 0 48 49 43 -.0635 .01143 .004445 18 48 324
 0 50 45 51 46 ?1 29 49 313 0 51 52 46 0 .01143 .000635000000000009 18 51 311 0
 53 48 54 49 ?1 29 52 310 0 54 55 49 0 .01143 .004445 18 54 308 0 56 51 57 52 ?1
 29 55 297 0 57 58 52 -.0635 -.01143 .000635000000000009 18 57 295 0 59 54 60 55
 ?1 29 58 294 0 60 61 55 -.0635 -.01143 .004445 18 60 292 0 62 57 63 58 ?1 29 61
 291 0 63 64 58 -2099656937138135e-33 -.01143 .000635000000000009 18 63 289 0 65
 60 66 61 ?1 29 64 288 0 66 67 61 -2099656937138135e-33 -.01143 .004445 18 66 28
6 0 68 63 69 64 ?1 29 67 243 0 69 70 64 -2099656937138135e-33 -.010795 0 18 69 2
41 0 71 66 72 67 ?1 29 70 239 0 72 73 67 0 .010795 0 18 72 237 0 74 69 75 70 ?1
 29 73 235 0 75 76 70 -.0635 .010795 0 18 75 233 0 77 72 78 73 ?1 29 76 232 0 78
 0 73 -.0635 -.010795 0 18 78 230 0 79 75 0 76 ?1 17 79 0 80 81 82 78 83 84 0 85
 +15 255 80 434 0 79 86 0 17 81 0 80 65 79 69 87 88 0 89 -17 82 0 80 79 65 57 90
 91 0 0 -17 83 0 92 93 85 57 79 84 0 82 -16 84 446 0 ?79 94 95 96 0 0 1 17 85 0
 92 83 97 78 77 98 0 87 -15 92 430 0 97 99 0 17 97 0 92 85 93 75 100 101 0 0 +17
 77 0 102 74 87 75 85 98 0 103 +16 98 234 0 ?77 104 105 106 0 0 1 17 87 0 102 77
 71 78 81 88 0 0 +15 102 231 0 71 107 0 17 71 0 102 87 74 69 108 109 0 81 +16 88
 245 0 ?87 110 109 111 0 0 1 16 110 250 0 ?112 113 88 114 0 0 1 16 109 242 0 ?71
 88 104 115 0 0 1 30 111 247 0 88 115 114 0 +-.0635 -.010795 0 -1 0 0 31 255 115
 244 0 109 116 111 0 -0 0 0 0 0 1 1 0 0 .010795 31 114 253 0 110 111 117 0 +0 0
 0 0 0 1 1 0 0 .00635 31 117 259 0 113 114 118 0 +-.0635 0 0 0 0 1 1 0 0 .00635
 16 113 256 0 ?119 120 110 117 0 0 1 31 118 265 0 120 117 121 0 +-.0635 0 .00444
5 0 0 1 1 0 0 .005715 16 120 262 0 ?122 123 113 118 0 0 1 31 121 271 0 123 118 1
24 0 --.0635 0 .000634999999999985 0 0 1 1 0 0 .005715 16 123 268 0 ?125 126 120
 121 0 0 1 31 124 277 0 126 121 127 0 +0 0 .004445 0 0 1 1 0 0 .005715 16 126 27
4 0 ?128 129 123 124 0 0 1 31 127 283 0 129 124 130 0 -0 0 635e-6 0 0 1 1 0 0 .0
05715 16 129 280 0 ?131 132 126 127 0 0 1 30 130 300 0 132 127 133 0 +-.0635 -.0
1143 .004445 -1 0 0 16 132 298 0 ?62 91 129 130 0 0 1 30 133 305 0 91 130 134 0
 +-.0635 -.01143 .000635000000000009 1 0 0 16 91 303 0 ?90 135 132 133 0 0 1 31
 134 316 0 135 133 136 0 -0 0 .004445 0 0 1 1 0 0 .01143 16 135 314 0 ?68 137 91
 134 0 0 1 31 136 321 0 137 134 138 0 +0 0 .000635000000000009 0 0 1 1 0 0 .0114
3 16 137 319 0 ?53 139 135 136 0 0 1 30 138 332 0 139 136 140 0 +0 .01143 .00444
5 1 0 0 16 139 330 0 ?141 142 137 138 0 0 1 30 140 337 0 142 138 143 0 +-.0635 .
01143 .000635000000000009 -1 0 0 16 142 335 0 ?47 144 139 140 0 0 1 31 143 342 0
 144 140 145 0 --.0635 0 .004445 0 0 1 1 0 0 .01143 16 144 340 0 ?50 146 142 143
 0 0 1 31 145 347 0 146 143 147 0 +-.0635 0 .000635000000000009 0 0 1 1 0 0 .011
43 16 146 345 0 ?59 148 144 145 0 0 1 31 147 353 0 148 145 149 0 -0 0 .00508 0 0
 1 1 0 0 .00635 16 148 350 0 ?150 151 146 147 0 0 1 31 149 362 0 151 147 152 0 +
-.0635 0 .00508 0 0 1 1 0 0 .010795 16 151 360 0 ?36 38 148 149 0 0 1 30 152 366
 0 38 149 153 0 +-2099656937138135e-33 -.010795 .00508 1 0 0 16 38 364 0 ?31 33
 151 152 0 0 1 31 153 370 0 33 152 154 0 +0 0 .00508 0 0 1 1 0 0 .010795 16 33 3
68 0 ?27 25 38 153 0 0 1 30 154 373 0 25 153 26 0 +-.0635 .010795 .00508 -1 0 0
 16 25 371 0 ?30 10 33 154 0 0 1 31 26 379 0 10 154 155 0 --.0635 0 .00508 0 0 1
 1 0 0 .00635 30 155 464 0 95 26 96 0 +-2099656937138135e-33 -.010795 0 0 -.7071
06781186541 .707106781186554 16 95 448 0 ?65 84 20 155 0 0 1 30 96 463 0 84 155
 156 0 +-.0635 -.01143 .000635000000000009 0 .707106781186541 -.707106781186554
 30 156 462 0 94 96 157 0 +0 .010795 0 0 .707106781186541 .707106781186554 16 94
 443 0 ?158 101 84 156 0 0 1 30 157 461 0 101 156 159 0 +-.0635 .01143 .00063500
0000000009 0 -.707106781186541 -.707106781186554 16 101 440 0 ?97 160 94 157 0 0
 1 30 159 530 0 161 157 162 0 +-.0635 .01143 .004445 0 -.707106781186552 .707106
781186543 16 161 514 0 ?44 163 0 159 0 0 1 30 162 529 0 163 159 21 0 +0 .010795
 .00508 0 .707106781186552 -.707106781186543 16 163 512 0 ?56 164 161 162 0 0 1
 30 21 528 0 164 162 7 0 +-.0635 -.01143 .004445 0 .707106781186552 .70710678118
6543 16 164 509 0 ?165 20 163 21 0 0 1 17 165 0 166 167 168 35 169 164 0 0 +16 2
0 506 0 ?170 95 164 7 0 0 1 17 170 0 171 172 32 66 39 20 0 0 +15 171 496 0 170 1
73 0 17 172 0 171 34 170 54 68 135 0 141 -17 32 0 171 170 34 28 27 33 0 0 -17 39
 0 174 37 175 28 170 20 0 32 -15 174 494 0 169 176 0 17 37 0 174 169 39 35 31 38
 0 165 -17 175 0 174 39 169 66 62 132 0 170 -17 169 0 174 175 37 60 165 164 0 16
8 -17 62 0 177 178 179 60 175 132 0 180 +15 177 87 0 178 181 0 17 178 0 177 90 6
2 57 180 105 0 83 +17 179 0 177 62 90 66 182 183 0 175 -17 180 0 184 50 59 60 17
8 105 0 169 -15 184 89 0 185 186 0 17 50 0 184 185 180 48 168 144 0 187 +17 59 0
 184 180 185 57 93 146 0 178 +16 105 293 0 ?178 98 183 188 0 0 1 16 183 287 0 ?1
82 105 189 190 0 0 1 30 188 98 0 105 190 106 0 +-.0635 -.01143 .00508 0 0 -1 30
 190 97 0 183 191 188 0 +-2099656937138135e-33 -.01143 .00508 0 0 -1 31 106 236
 0 98 188 116 0 --.0635 0 0 0 0 1 1 0 0 .010795 30 116 240 0 104 106 115 0 +-.06
35 .010795 0 1 0 0 16 104 238 0 ?74 109 98 116 0 0 1 17 74 0 102 71 77 72 103 10
4 0 192 +17 103 0 193 100 192 75 74 104 0 97 -17 192 0 193 103 194 72 158 94 0 1
08 -15 193 428 0 192 195 0 17 194 0 193 192 100 51 47 142 0 158 -17 158 0 196 19
7 108 51 192 94 0 0 +17 108 0 196 158 89 72 71 109 0 0 -15 196 432 0 158 198 0 1
7 89 0 196 108 197 69 65 95 0 0 -17 197 0 196 89 158 63 53 137 0 90 -17 65 0 80
 82 81 63 89 95 0 197 +17 53 0 199 200 182 51 197 137 0 201 +17 90 0 177 179 178
 63 82 91 0 182 +17 182 0 199 53 68 63 179 183 0 0 +15 199 85 0 182 202 0 17 68
 0 199 182 200 66 172 135 0 179 +17 200 0 199 68 53 54 201 189 0 0 -17 201 0 203
 47 141 51 200 189 0 194 +16 189 309 0 ?201 183 160 191 0 0 1 16 160 325 0 ?185
 189 101 204 0 0 1 30 191 96 0 189 204 190 0 +0 .01143 .00508 0 0 -1 30 204 95 0
 160 0 191 0 +-.0635 .01143 .00508 0 0 -1 17 185 0 184 59 50 45 187 160 0 100 +1
7 187 0 203 141 47 48 185 160 0 205 -17 100 0 193 194 103 45 97 101 0 93 -17 93
 0 92 97 83 45 59 146 0 0 -15 203 83 0 201 206 0 17 141 0 203 201 187 54 205 139
 0 200 +17 47 0 203 187 201 45 194 142 0 185 +17 205 0 207 44 56 48 141 139 0 20
8 -15 207 500 0 56 209 0 17 44 0 207 210 205 40 208 161 0 167 +17 56 0 207 205 2
10 54 34 163 0 172 +17 208 0 166 168 167 48 44 161 0 0 -15 166 498 0 165 211 0 1
7 168 0 166 165 208 60 50 144 0 0 -17 167 0 166 208 165 40 36 151 0 30 -17 36 0
 29 31 30 35 167 151 0 37 +17 30 0 29 36 27 40 210 25 0 0 +15 29 357 0 27 16 212
 17 210 0 207 56 44 11 30 25 0 0 -14 255 16 160 213 ?107 0 214 5 215 +0 0 107 0
 23 15 212 351 0 150 16 0 17 150 0 212 150 150 0 216 148 0 0 +17 216 0 217 216 2
16 0 150 148 0 0 -15 217 547 0 216 18 218 14 18 546 219 ?0 209 217 5 6 +0 0 0 20
9 23 15 218 548 0 220 18 0 17 220 0 218 220 220 0 128 126 0 0 -17 128 0 221 128
 128 0 220 126 0 0 +15 221 275 0 128 222 0 14 222 131 223 ?224 206 225 5 226 +0
 0 224 206 23 81 1 223 769 227 222 228 0 219 229 230 14 224 169 229 ?231 222 232
 5 233 +0 0 231 222 23 14 206 84 234 ?222 202 203 5 235 -0 0 222 202 23 15 225 2
81 0 131 222 221 51 255 226 144 0 222 233 215 0 -0 0 .00508 0 0 -1 .005715 -1 0
 0 13 23 34 0 0 0 0 0 0 9 16 51 233 182 0 224 0 226 0 --.0635 0 .00508 0 0 -1 .0
05715 -1 0 0 50 255 215 3 0 16 226 236 0 +-.0635 0 .00508 0 0 1 1 0 0 50 236 70
 0 107 215 235 0 +-.0635 0 0 0 0 1 1 0 0 14 107 154 237 ?186 16 238 5 236 -0 0 1
86 16 23 50 235 91 0 206 236 239 0 +-.0635 .01143 .00508 0 -1 0 0 0 -1 51 239 92
 0 202 235 240 0 -0 0 .00508 0 0 -1 .01143 -1 0 0 14 202 86 241 ?206 181 199 5 2
39 -0 0 206 181 23 50 240 93 0 181 239 242 0 +-.0635 -.01143 .00508 0 1 0 0 0 1
 14 181 88 243 ?202 186 177 5 240 -0 0 202 186 23 51 242 94 0 186 240 244 0 --.0
635 0 .00508 0 0 -1 .01143 -1 0 0 14 186 90 245 ?181 107 184 5 242 -0 0 181 107
 23 52 244 408 0 231 242 246 0 --.0635 0 0 0 0 -1 .00635 .707106781186549 .70710
6781186547 -1 0 0 14 231 401 247 ?248 224 249 5 244 +0 0 248 224 23 52 246 421 0
 248 244 250 0 -0 0 0 0 0 -1 .00635 .707106781186543 .707106781186552 -1 0 0 14
 248 414 251 ?195 231 252 5 246 +0 0 195 231 23 50 250 460 0 86 246 253 0 --.063
5 -.01143 .000635000000000009 0 .707106781186554 .707106781186541 1 0 0 14 86 43
3 254 ?255 198 80 5 250 +0 0 255 198 23 52 253 459 0 198 250 256 0 +0 0 .0006350
00000000009 0 0 1 .01143 .707106781186541 .707106781186554 1 0 0 14 198 431 257
 ?86 99 196 5 253 +0 0 86 99 23 52 256 458 0 99 253 258 0 +-.0635 0 .00063500000
0000009 0 0 1 .01143 .707106781186541 .707106781186554 1 0 0 14 99 429 259 ?198
 195 92 5 256 +0 0 198 195 23 50 258 457 0 195 256 260 0 --.0635 .01143 .0006350
00000000009 0 -.707106781186554 .707106781186541 -1 0 0 14 195 427 261 ?99 248 1
93 5 258 +0 0 99 248 23 52 260 487 0 255 258 262 0 --.0635 0 .004445 0 0 1 .0057
15 .707106781186548 .707106781186547 1 0 0 14 255 480 263 ?176 86 264 5 260 +0 0
 176 86 23 50 262 526 0 209 260 265 0 +-.0635 .010795 .00508 0 .707106781186543
 .707106781186552 1 0 0 14 209 499 266 ?18 211 207 5 262 +0 0 18 211 23 52 265 5
25 0 211 262 267 0 +-.0635 0 .00508 0 0 -1 .010795 .707106781186552 .70710678118
6543 -1 0 0 14 211 497 268 ?209 173 166 5 265 +0 0 209 173 23 52 267 524 0 173 2
65 19 0 +0 0 .00508 0 0 -1 .010795 .707106781186552 .707106781186543 -1 0 0 14 1
73 495 269 ?211 176 171 5 267 +0 0 211 176 23 50 19 523 0 176 267 6 0 +-.0635 -.
010795 .00508 0 -.707106781186543 .707106781186552 -1 0 0 14 176 493 270 ?173 25
5 174 5 19 +0 0 173 255 23 81 1 270 786 227 176 271 0 269 0 272 80 255 1 227 273
 274 9000 1 1 1 1 1 1 1 1 0 FFFFTFTFFFFFFF1 81 1 271 720 275 176 0 270 276 277 2
78 81 1 269 785 227 173 277 0 268 270 279 82 255 1 272 -788922258 81 1 277 721 2
75 173 0 269 271 280 281 81 1 268 784 227 211 280 0 266 269 282 82 1 279 -790036
370 81 1 280 722 275 211 0 268 277 283 284 81 1 266 783 227 209 283 0 263 268 28
5 82 1 282 -791216018 81 1 283 723 275 209 0 266 280 286 287 81 1 263 782 227 25
5 276 0 261 266 288 82 1 285 -792788882 81 1 276 719 275 255 0 263 289 271 290 8
1 1 261 781 227 195 291 0 259 263 292 82 1 288 -794034066 81 1 291 715 275 195 0
 261 293 294 295 81 1 259 780 227 99 294 0 257 261 296 82 1 292 -795213714 81 1
 294 716 275 99 0 259 291 297 298 81 1 257 779 227 198 297 0 254 259 299 82 1 29
6 -796327826 81 1 297 717 275 198 0 257 294 289 300 81 1 254 778 227 86 289 0 25
1 257 301 82 1 299 -797507474 81 1 289 718 275 86 0 254 297 276 302 81 1 251 777
 227 248 293 0 247 254 303 82 1 301 -799080338 81 1 293 714 275 248 0 251 304 29
1 305 81 1 247 776 227 231 304 0 245 251 306 82 1 303 -800325522 81 1 304 713 27
5 231 0 247 307 293 308 81 1 245 775 227 186 309 0 243 247 310 82 1 306 -8015707
06 81 1 309 707 275 186 0 245 311 312 313 81 1 243 774 227 181 312 0 241 245 314
 82 1 310 -817954706 81 1 312 708 275 181 0 243 309 315 316 81 1 241 773 227 202
 315 0 237 243 317 82 1 314 -818216850 81 1 315 709 275 202 0 241 312 318 319 81
 1 237 772 227 107 311 0 234 241 320 82 1 317 -818478994 81 1 311 706 275 107 0
 237 321 309 322 81 1 234 771 227 206 318 0 229 237 323 82 1 320 -814219154 81 1
 318 710 275 206 0 234 315 228 324 81 1 229 770 227 224 307 0 223 234 325 82 1 3
23 -818741138 81 1 307 712 275 224 0 229 228 304 326 82 1 325 -828899218 80 1 27
5 0 327 8001 0 0 0 0 3 5 0 0 0 FFFFTFTFFFFFFF2 81 1 228 711 275 222 0 223 318 30
7 328 83 255 3 326 .949019607843137 .76078431372549 .180392156862745 83 3 328 .9
49019607843137 .76078431372549 .180392156862745 79 255 15 327 SDL/TYSA_COLOUR83
 3 324 .949019607843137 .76078431372549 .180392156862745 81 1 321 705 275 16 0 2
13 0 311 329 83 3 322 .949019607843137 .76078431372549 .180392156862745 81 1 213
 767 227 16 321 0 0 219 330 83 3 329 .949019607843137 .76078431372549 .180392156
862745 81 1 219 768 227 18 286 0 213 223 331 82 1 330 -813694866 81 1 286 724 27
5 18 0 219 283 0 332 82 1 331 -787742610 83 3 332 .949019607843137 .760784313725
49 .180392156862745 83 3 319 .949019607843137 .76078431372549 .180392156862745 8
3 3 316 .949019607843137 .76078431372549 .180392156862745 83 3 313 .949019607843
137 .76078431372549 .180392156862745 83 3 308 .949019607843137 .76078431372549 .
180392156862745 83 3 305 .949019607843137 .76078431372549 .180392156862745 83 3
 302 .949019607843137 .76078431372549 .180392156862745 83 3 300 .949019607843137
 .76078431372549 .180392156862745 83 3 298 .949019607843137 .76078431372549 .180
392156862745 83 3 295 .949019607843137 .76078431372549 .180392156862745 83 3 290
 .949019607843137 .76078431372549 .180392156862745 83 3 287 .949019607843137 .76
078431372549 .180392156862745 83 3 284 .949019607843137 .76078431372549 .1803921
56862745 83 3 281 .949019607843137 .76078431372549 .180392156862745 83 3 278 .94
9019607843137 .76078431372549 .180392156862745 79 14 274 SWEntUnchanged15 264 48
1 0 333 255 334 17 333 0 264 333 333 0 24 10 0 0 -15 334 482 0 335 255 0 17 335
 0 334 335 335 0 122 120 0 0 -17 122 0 336 122 122 0 335 120 0 0 +15 336 263 0 1
22 224 0 17 24 0 214 24 24 0 333 10 0 0 +15 214 377 0 24 16 29 15 252 415 0 337
 248 338 17 337 0 252 337 337 0 131 129 0 0 -15 338 416 0 339 248 0 17 339 0 338
 339 339 0 112 110 0 0 -17 112 0 340 112 112 0 339 110 0 0 +15 340 251 0 112 107
 102 17 131 0 225 131 131 0 337 129 0 0 +15 249 402 0 341 231 342 17 341 0 249 3
41 341 0 125 123 0 0 -15 342 403 0 343 231 0 17 343 0 342 343 343 0 119 113 0 0
 -17 119 0 238 119 119 0 343 113 0 0 +15 238 257 0 119 107 340 17 125 0 232 125
 125 0 341 123 0 0 +15 232 269 0 125 224 336 82 1 230 -833027986 17 34 0 171 32
 172 11 56 163 0 210 -19 17 100 0 1 0 9 5 S0 74 4 CI16 index_map_offset0 0 1 dCC
Z20 15 9 0 0 344 345 270 346 347 348 13 286 2 0 0 0 0 0 0 0 0 0 0 0 81 2 344 111
 349 1 0 345 0 0 0 350 81 2 345 208 351 1 344 346 0 0 0 352 81 1 346 598 353 1 3
45 347 0 0 354 81 2 347 621 355 1 346 348 0 0 356 0 81 2 348 699 357 1 347 13 0
 0 0 358 81 2 13 702 359 1 348 2 0 0 0 0 80 2 359 360 361 9000 0 0 0 0 3 5 0 0 0
 FFTFFFFFFFFFFF9 1 79 16 361 BODY_RECIPE_200180 2 357 362 363 9000 0 0 0 0 3 5 0
 0 0 FFTFFFFFFFFFFF9 1 82 1 358 1 79 24 363 BODY_IN_LIGHTWEIGHT_PERM80 2 355 364
 365 8004 0 0 0 0 3 5 0 0 0 FFTFFFFFFFFFFF2 3 83 1 356 1 79 16 365 SDL/TYSA_DENS
ITY80 1 353 366 367 9000 1 1 1 1 1 1 1 1 0 FFTFFFFFFFFFFF1 82 1 354 118477 79 10
 367 BODY_MATCH80 2 351 368 369 9000 0 0 0 0 3 5 0 0 0 FFTFFFFFFFFFFF9 1 82 1 35
2 42 79 30 369 LAST_BODY_MODIFYING_FEATURE_ID80 2 349 370 371 9000 0 0 0 0 3 5 0
 0 0 FFTFFFFFFFFFFT9 1 82 1 350 109 79 19 371 ENT_TIME_STAMP_200180 2 12 372 373
 9000 0 0 0 0 3 5 0 0 0 FFTFFFFFFFFFFF9 1 82 1 14 101 79 12 373 ATOM_ID_20011 0
 
