**ABCDEFGHIJKLMNOPQRSTUVWXYZabcdefghijklmnopqrstuvwxyz**************************
**PARASOLID !"#$%&'()*+,-./:;<=>?@[\]^_`{|}~0123456789**************************
**PART1;
MC=AMD64;
MC_MODEL=Intel64 Family 6 Model 60 Stepping 3, GenuineIntel;
MC_ID=unknown;
OS=Windows_NT;
OS_RELEASE=unknown;
FRU=Parasolid Version 31.0, build 282,  2-25-2019;
APPL=SOLIDWORKS 2019-2019115;
SITE=;
USER=unknown;
FORMAT=text;
GUISE=transmit;
KEY=Nut;
FILE=Nut.x_t;
DATE=Tue Nov 12 17:07:13 2019;
**PART2;
SCH=SCH_3100282_31001;
USFLD_SIZE=0;
**PART3;
**END_OF_HEADER*****************************************************************
T51 : TRANSMIT FILE created by modeller version 310028223 SCH_3100282_31001_1300
6215 0 12 34 CCCCCCI4 mesh1006 0 I8 polyline1008 0 CCCCCCCDI5 owner1040 0 CCCCCC
I13 boundary_mesh1006 0 I17 boundary_polyline1008 0 CCCA16 index_map_offset0 0 1
 dA9 index_map82 0 A17 node_id_index_map82 0 A20 schema_embedding_map82 0 A5 chi
ld12 0 A14 lowest_node_id0 0 1 dA16 mesh_offset_data206 0 Z1 630 2 3 0 0 0 0 0 0
 1e3 1e-8 0 4 0 1 0 1 1 5 6 7 8 0 0 9 10 11 0 0 0 0 0 0 0 81 255 2 2 619 12 1 13
 0 0 0 0 14 70 11 CI9 list_type0 0 1 uI10 notransmit0 0 1 lCCCDCCDI12 finger_ind
ex0 0 1 dI12 finger_block1012 0 CZ3 0 4 T1 0 0 9 20 1 15 15 13 255 5 141 0 1 0 1
6 0 0 17 0 50 255 6 134 0 18 19 0 20 +.00476602647216036 .00762 -.008255 0 0 1 1
 0 0 38 12 CCCCCCCCCCCA17 intersection_data204 0 Z7 249 0 10 21 0 0 +22 23 24 25
 26 27 29 255 8 238 0 11 28 0 .00953205294432072 .00608894705567928 -18458418515
7944e-32 19 8 CCCCCCCA5 owner12 0 Z9 47 0 1 17 0 29 V0 16 255 10 247 0 ?30 0 31
 7 0 0 1 18 255 11 236 0 32 0 33 8 ?1 17 255 32 0 34 35 36 11 37 38 0 39 -18 33
 233 0 40 11 41 28 ?1 17 40 0 42 43 44 33 45 46 0 30 -18 41 365 0 44 33 47 48 ?1
 29 28 235 0 33 48 8 .00476602647216036 .00153105294432072 -.008255 29 48 465 0
 41 49 28 -.00476602647216036 .00153105294432072 -.008255 29 49 466 0 47 50 48 -
.00953205294432072 .00153105294432072 -501124569194089e-33 18 47 366 0 51 41 52
 49 ?1 29 50 467 0 52 53 49 -.00476602647216036 .00153105294432072 .008255 18 52
 367 0 54 47 55 50 ?1 29 53 468 0 55 56 50 .00476602647216036 .00153105294432072
 .008255 18 55 368 0 57 52 58 53 ?1 29 56 470 0 58 59 53 .00953205294432072 .001
53105294432072 -191589078306178e-32 18 58 369 0 43 55 60 56 ?1 29 59 471 0 60 61
 56 -.00476602647216036 .00608894705567928 -.008255 18 60 378 0 62 58 63 59 ?1 2
9 61 472 0 63 64 59 -.00953205294432072 .00608894705567928 -594466431750457e-33
 18 63 379 0 65 60 66 61 ?1 29 64 473 0 66 67 61 -.00476602647216036 .0060889470
5567928 .008255 18 66 380 0 68 63 69 64 ?1 29 67 474 0 69 70 64 .004766026472160
36 .00608894705567928 .008255 18 69 381 0 36 66 71 67 ?1 29 70 476 0 71 0 67 .00
476602647216036 .00608894705567928 -.008255 18 71 370 0 35 69 0 70 ?1 17 35 0 34
 62 32 71 39 31 0 72 -15 255 34 398 0 65 73 0 17 62 0 34 65 35 60 72 74 0 75 -17
 39 0 76 77 78 11 35 31 0 79 +16 31 242 0 ?39 10 80 21 0 0 1 17 72 0 81 82 83 71
 62 74 0 78 +15 81 127 0 82 18 0 17 82 0 81 45 72 33 78 84 0 0 +17 83 0 81 72 45
 60 85 80 0 0 -16 74 351 0 ?72 86 87 88 0 0 1 17 78 0 76 39 30 71 82 84 0 0 -15
 76 117 0 77 89 0 17 30 0 76 78 77 33 43 10 0 82 +16 84 231 0 ?82 90 91 92 0 0 1
 16 90 237 0 ?77 93 84 94 0 0 1 16 91 174 0 ?95 84 96 97 0 0 1 30 255 92 135 0 8
4 98 94 0 +.00476602647216036 .00762 -.008255 0 -1 0 31 255 98 193 0 96 97 92 0
 +0 0 0 0 1 0 0 0 1 .005715 30 94 136 0 90 92 99 0 +.00953205294432072 .00762 -1
84584185157944e-32 0 -1 0 30 99 137 0 93 94 100 0 +.00476602647216036 .00762 .00
8255 0 -1 0 16 93 253 0 ?101 102 90 99 0 0 1 30 100 138 0 102 99 103 0 +-.004766
02647216036 .00762 .008255 0 -1 0 16 102 267 0 ?104 105 93 100 0 0 1 30 103 139
 0 105 100 106 0 +-.00953205294432072 .00762 -571173500675387e-33 0 -1 0 16 105
 281 0 ?107 80 102 103 0 0 1 30 106 140 0 80 103 21 0 +-.00476602647216036 .0076
2 -.008255 0 -1 0 16 80 295 0 ?85 31 105 106 0 0 1 38 21 244 0 31 106 7 0 +22 10
8 109 110 111 112 50 22 129 0 89 113 114 115 +.00953205294432072 .00762 -1845841
85157944e-32 -.866025403784439 0 .5 .5 0 .866025403784439 52 255 108 425 0 73 0
 23 116 -0 .00381 -184584185157944e-32 0 -1 0 .011811 .707106781186548 .70710678
1186548 0 0 -1 40 255 4 109 0 1 4 .000951631383659193 .3914744511493615 ??.00476
591100210652 .00608883158352728 -.0082552 .00684978290060219 .00734433137381522
 -.00464582799534049 .0083877187950252 .00700228034333691 -.001982044887415945 .
00953216841437456 .00608883158352728 1999999999978995e-22 41 3 CI8 term_use0 0 1
 cCZ1 110 L?.00476591100210652 .00608883158352728 -.0082552 41 1 111 L?.00953216
841437456 .00608883158352728 1999999999978995e-22 204 2 17 INTERSECTION_DATA17 I
ntersection data7 uv_type0 0 1 u6 values0 1 1 fT16 112 4 -.0095322838844284 -.00
1531168416472715 .523577794013493 -.002278831583527285 -.00536454008743706 -.000
2756686261847835 .974821031099354 -.00353433137381521 -.002288668298591035 -.000
617719656663089 1.338749717288344 -.00319228034333691 230940107675693e-21 -.0015
3116841647272 1.570817308379705 -.002278831583527285 14 255 73 395 117 ?118 119
 120 5 108 -0 0 118 119 29 52 23 424 0 118 108 121 122 -0 0 -184584185157944e-32
 0 1 0 .008001 .707106781186547 .707106781186548 0 0 1 141 255 116 21 123 124 10
8 141 123 88 125 116 108 141 124 126 116 127 108 38 126 447 0 38 128 129 0 +114
 108 130 131 132 133 141 127 129 124 134 108 38 129 446 0 135 126 136 0 +137 108
 138 139 140 141 141 134 136 127 125 108 38 136 445 0 142 129 143 0 +144 108 145
 146 147 148 141 125 143 134 123 108 38 143 444 0 87 136 88 0 +19 108 149 150 15
1 152 16 87 350 0 ?75 74 142 143 0 0 1 38 88 443 0 74 143 153 0 +6 108 154 155 1
56 157 50 19 133 0 158 144 6 159 +-.00476602647216036 .00762 -.008255 .866025403
784439 0 .5 .5 0 -.866025403784439 40 4 149 0 1 4 .000951631383659196 .391474451
1493625 ??-.00953216841437456 .00608883158352728 199999999999429e-21 -.007448296
51587889 .00734433137381522 -.003609172004659515 -.00591036062145588 .0070022803
4333691 -.00627295511258406 -.00476591100210652 .00608883158352728 -.0082552 41
 1 150 L?-.00953216841437456 .00608883158352728 199999999999429e-21 41 1 151 L?-
.00476591100210652 .00608883158352728 -.0082552 204 16 152 4 -.0095322838844284
 -.001531168416472715 4.71236799879988 -.002278831583527285 -.00536454008743706
 -.0002756686261847815 5.16361123588575 -.003534331373815215 -.00228866829859103
 -.00061771965666309 5.52753992207474 -.00319228034333691 230940107676821e-21 -.
00153116841647272 5.75960751316609 -.002278831583527285 14 158 126 160 ?18 161 1
62 5 19 -0 0 18 161 29 50 144 132 0 161 137 19 163 +-.00953205294432072 .00762 -
571173500675387e-33 .866025403784439 0 -.5 -.5 0 -.866025403784439 141 159 143 1
64 164 19 141 164 165 159 159 19 38 165 439 0 166 167 168 0 +19 23 169 170 171 1
72 16 166 345 0 ?173 46 174 165 0 0 1 38 167 440 0 174 175 165 0 +144 23 176 177
 178 179 38 168 438 0 46 165 97 0 +6 23 180 181 182 183 40 4 169 0 1 4 .00095163
1383659194 .391474451149362 ??-.00476591100210652 .001531168416472715 -.0082552
 -.00684978290060219 .000275668626184781 -.00464582799534049 -.0083877187950252
 .000617719656663087 -.00198204488741595 -.00953216841437456 .001531168416472715
 199999999998846e-21 41 1 170 L?-.00476591100210652 .001531168416472715 -.008255
2 41 1 171 L?-.00953216841437456 .001531168416472715 199999999998846e-21 204 16
 172 4 230940107676387e-21 -.00608883158352728 3.665170447603285 .00153116841647
2715 -.00416751285688366 -.00734433137381522 4.116413684689145 .0002756686261847
81 -.00724338464572969 -.00700228034333691 4.48034237087814 .000617719656663087
 -.0095322838844284 -.00608883158352729 4.7124099619695 .001531168416472715 16 4
6 344 0 ?45 96 166 168 0 0 1 31 97 194 0 91 168 98 0 +0 .00762 0 0 1 0 0 0 1 .00
5715 40 7 180 0 1 7 .00155926398713416 .3815715811243955 ??.0150315142583519 .00
914809460872605 -.008255 .0095477969924329 .00462062637732201 -.008255 .00342273
3822014485 .000935449620311259 -.008255 -.0001304440892175808 .00025503056319511
1 -.008255 -.003680024548708765 .001037119587563504 -.008255 -.01086988569528652
 .0056481552862657 -.008255 -.0150315142583519 .00914809460872605 -.008255 41 1
 181 L?.0150315142583519 .00914809460872605 -.008255 41 1 182 L?-.01503151425835
19 .00914809460872605 -.008255 204 28 183 4 .01026548778619154 .0015280946087260
5 2.073009403397695 .00914809460872605 .00478177052027254 -.00299937362267799 2.
283704099406545 .00462062637732201 -.001343292650145876 -.00668455037968874 2.74
854197932157 .000935449620311259 -.00489647056137794 -.00736496943680489 3.15739
316644803 .000255030563195111 -.00844605102086912 -.0065828804124365 3.560942869
65417 .001037119587563504 -.0156359121674469 -.001971844713734305 4.062875112880
935 .0056481552862657 -.01979754073051225 .00152809460872605 4.21017590378189 .0
0914809460872605 17 45 0 81 83 82 41 40 46 0 85 +16 96 171 0 ?184 91 46 98 0 0 1
 17 184 0 185 184 184 0 186 96 0 0 +15 185 160 0 184 187 188 17 186 0 189 186 18
6 0 184 96 0 0 -15 189 181 0 186 119 0 14 119 177 190 ?73 187 191 5 121 +0 0 73
 187 29 81 1 190 622 192 119 193 0 160 194 195 14 187 320 194 ?119 16 185 5 113
 -0 0 119 16 29 15 191 180 0 95 119 189 51 255 121 190 0 119 23 196 0 -0 .00762
 0 0 -1 0 .005715 0 0 -1 13 29 48 0 0 0 0 0 0 9 16 14 16 326 197 ?187 0 198 5 19
6 +0 0 187 0 29 81 1 197 624 192 16 199 0 194 200 201 15 198 165 0 202 16 203 50
 196 3 0 16 121 113 0 +0 .00762 0 0 1 0 0 0 1 50 113 98 0 187 196 22 0 +0 0 0 0
 1 0 0 0 1 17 202 0 198 202 202 0 95 91 0 0 -15 203 324 0 204 16 0 17 204 0 203
 204 204 0 205 206 0 0 +17 205 0 120 205 205 0 204 206 0 0 -16 206 349 0 ?204 20
7 0 208 0 0 1 16 207 336 0 ?209 38 206 128 0 0 1 31 208 452 0 206 0 128 0 +0 .00
762 -184584185157944e-32 0 1 0 0 0 1 .008001 31 128 450 0 207 208 126 0 +0 0 -18
4584185157944e-32 0 1 0 0 0 1 .008001 17 209 0 210 209 209 0 211 207 0 0 +16 38
 353 0 ?37 135 207 126 0 0 1 17 37 0 212 101 79 69 32 38 0 213 +16 135 354 0 ?21
4 142 38 129 0 0 1 17 214 0 215 104 213 66 36 135 0 216 +16 142 355 0 ?217 87 13
5 136 0 0 1 17 217 0 218 107 216 63 68 142 0 219 +15 218 123 0 107 161 0 17 107
 0 218 220 217 47 219 105 0 0 +17 216 0 218 217 220 66 104 102 0 0 -17 68 0 34 3
6 65 66 217 142 0 214 -17 219 0 162 75 173 63 107 105 0 0 -15 162 125 0 85 158 0
 17 75 0 162 85 219 60 65 87 0 83 +17 173 0 162 219 85 47 44 166 0 107 +17 85 0
 162 173 75 41 83 80 0 0 +17 44 0 42 40 51 41 173 166 0 45 -15 42 394 0 43 118 0
 17 51 0 42 44 54 47 220 174 0 173 -17 54 0 42 51 57 52 221 222 0 220 -17 220 0
 218 216 107 52 51 174 0 104 +16 174 346 0 ?220 166 222 167 0 0 1 16 222 347 0 ?
221 174 86 175 0 0 1 17 221 0 215 213 104 55 54 222 0 101 +16 86 348 0 ?223 222
 74 153 0 0 1 38 175 441 0 222 153 167 0 +137 23 224 225 226 227 38 153 442 0 86
 88 175 0 +114 23 228 229 230 231 50 137 131 0 232 114 144 233 +-.00476602647216
036 .00762 .008255 -181988443214677e-30 0 -1 -1 0 181988443214677e-30 40 7 224 0
 1 7 .00155926398713416 .3815715811243955 ??-.0150315142583519 .0091480946087260
5 .008255 -.00954779699243289 .00462062637732201 .008255 -.00342273382201448 .00
093544962031126 .008255 .0001304440892175854 .0002550305631951115 .008255 .00368
002454870877 .00103711958756351 .008255 .01086988569528654 .0056481552862657 .00
8255 .0150315142583519 .00914809460872605 .008255 41 1 225 L?-.0150315142583519
 .00914809460872605 .008255 41 1 226 L?.0150315142583519 .00914809460872605 .008
255 204 28 227 4 .01026548778619154 .00152809460872605 5.21460205698749 .0091480
9460872605 .00478177052027254 -.00299937362267799 5.42529675299634 .004620626377
32201 -.001343292650145878 -.00668455037968874 5.89013463291136 .000935449620311
26 -.00489647056137794 -.00736496943680489 .0158005128582368 .000255030563195111
5 -.00844605102086913 -.00658288041243649 .4193502160643755 .00103711958756351 -
.0156359121674469 -.0019718447137343 .921282459291141 .0056481552862657 -.019797
54073051225 .00152809460872605 1.068583250192098 .00914809460872605 14 232 122 2
00 ?161 234 215 5 137 -0 0 161 234 29 50 114 130 0 234 22 137 235 +.004766026472
16036 .00762 .008255 -.866025403784439 0 -.5 -.5 0 .866025403784439 141 233 129
 236 236 137 141 236 175 233 233 137 14 234 120 237 ?232 89 212 5 114 -0 0 232 8
9 29 141 235 126 238 238 114 141 238 153 235 235 114 81 1 237 626 192 234 239 0
 200 240 241 14 89 118 240 ?234 118 76 5 22 -0 0 234 118 29 15 212 119 0 101 234
 0 17 101 0 212 223 37 55 213 93 0 0 +17 223 0 212 79 101 58 57 86 0 77 +17 213
 0 215 214 221 69 101 93 0 0 -15 215 121 0 104 232 0 17 104 0 215 221 214 52 216
 102 0 0 +17 79 0 212 37 223 11 77 90 0 0 -17 57 0 42 54 43 55 223 86 0 221 -17
 77 0 76 30 39 58 79 90 0 0 +17 43 0 42 57 40 58 30 10 0 223 -81 1 240 627 192 8
9 242 0 237 243 244 14 118 391 243 ?89 73 210 5 23 -0 0 89 73 29 81 1 243 628 19
2 118 245 0 240 246 247 15 210 393 0 209 118 42 80 255 1 192 248 249 9000 1 1 1
 1 1 1 1 1 0 FFFFTFTFFFFFFF1 81 1 245 589 250 118 0 243 251 242 252 81 1 246 629
 192 161 253 0 243 254 255 82 255 1 247 581894250 14 161 124 246 ?158 232 218 5
 144 -0 0 158 232 29 81 1 253 593 250 161 0 246 256 257 258 81 1 254 630 192 18
 259 0 246 0 260 82 1 255 848298090 14 18 128 254 ?0 158 81 5 6 -0 0 0 158 29 81
 1 259 595 250 18 0 254 257 0 261 82 1 260 848822378 80 1 250 0 262 8001 0 0 0 0
 3 5 0 0 0 FFFFTFTFFFFFFF2 81 1 257 594 250 158 0 160 253 259 263 83 255 3 261 .
776470588235294 .756862745098039 .737254901960784 81 1 160 621 192 158 257 0 117
 190 264 83 3 263 .776470588235294 .756862745098039 .737254901960784 81 1 117 62
0 192 73 251 0 0 160 265 82 1 264 848560234 81 1 251 588 250 73 0 117 193 245 26
6 82 1 265 579338346 81 1 193 587 250 119 0 190 267 251 268 83 3 266 .7764705882
35294 .756862745098039 .737254901960784 81 1 267 586 250 187 0 194 199 193 269 8
3 3 268 .776470588235294 .756862745098039 .737254901960784 81 1 194 623 192 187
 267 0 190 197 270 81 1 199 585 250 16 0 197 0 267 271 83 3 269 .776470588235294
 .756862745098039 .737254901960784 83 3 271 .776470588235294 .756862745098039 .7
37254901960784 82 1 270 594215018 79 255 15 262 SDL/TYSA_COLOUR81 1 256 592 250
 232 0 200 239 253 272 83 3 258 .776470588235294 .756862745098039 .7372549019607
84 81 1 200 625 192 232 256 0 197 237 273 81 1 239 591 250 234 0 237 242 256 274
 83 3 272 .776470588235294 .756862745098039 .737254901960784 81 1 242 590 250 89
 0 240 245 239 275 83 3 274 .776470588235294 .756862745098039 .737254901960784 8
3 3 275 .776470588235294 .756862745098039 .737254901960784 82 1 273 848035946 83
 3 252 .776470588235294 .756862745098039 .737254901960784 79 14 249 SWEntUnchang
ed82 1 244 847511658 82 1 241 847773802 40 4 228 0 1 4 .000951631383659198 .3914
744511493625 ??.00476591100210652 .00153116841647272 .0082552 .0068497829006022
 .0002756686261847825 .00464582799534048 .00838771879502521 .000617719656663092
 .001982044887415935 .00953216841437456 .00153116841647272 -20000000000146e-20 4
1 1 229 L?.00476591100210652 .00153116841647272 .0082552 41 1 230 L?.00953216841
437456 .00153116841647272 -20000000000146e-20 204 16 231 4 2309401076763875e-22
 -.00608883158352728 .523577794013493 .00153116841647272 -.00416751285688367 -.0
0734433137381522 .974821031099354 .0002756686261847825 -.0072433846457297 -.0070
0228034333691 1.338749717288344 .000617719656663092 -.0095322838844284 -.0060888
3158352728 1.570817308379705 .00153116841647272 17 65 0 34 68 62 63 75 87 0 217
 -17 36 0 34 32 68 69 214 135 0 37 -17 211 0 188 211 211 0 209 207 0 0 -15 188 3
17 0 211 187 0 15 120 397 0 205 73 34 17 95 0 191 95 95 0 202 91 0 0 +82 1 201 5
94739306 82 1 195 833618023 40 4 176 0 1 4 .000951631383659195 .391474451149362
 ??-.00953216841437456 .001531168416472715 -2000000000006585e-22 -.0074482965158
7889 .000275668626184781 .00360917200465951 -.00591036062145588 .000617719656663
089 .00627295511258405 -.00476591100210652 .00153116841647272 .0082552 41 1 177
 L?-.00953216841437456 .001531168416472715 -2000000000006585e-22 41 1 178 L?-.00
476591100210652 .00153116841647272 .0082552 204 16 179 4 2309401076759895e-22 -.
00608883158352728 4.71236799879988 .001531168416472715 -.00416751285688366 -.007
34433137381522 5.16361123588574 .000275668626184781 -.00724338464572969 -.007002
28034333691 5.52753992207474 .000617719656663089 -.0095322838844284 -.0060888315
8352728 5.75960751316609 .00153116841647272 141 163 136 276 276 144 141 276 167
 163 163 144 40 7 154 0 1 7 .001559263987134165 .3815715811243955 ??-.0150315142
583519 -.001528094608726045 -.008255 -.0095477969924329 .002999373622677995 -.00
8255 -.00342273382201448 .00668455037968874 -.008255 .0001304440892175858 .00736
496943680489 -.008255 .00368002454870877 .00658288041243649 -.008255 .0108698856
9528654 .00197184471373429 -.008255 .0150315142583519 -.001528094608726045 -.008
255 41 1 155 L?-.0150315142583519 -.001528094608726045 -.008255 41 1 156 L?.0150
315142583519 -.001528094608726045 -.008255 204 28 157 4 -.01979754073051225 -.00
914809460872604 5.21460205698749 .00533809460872605 -.01431382346459326 -.004620
62637732201 5.42529675299634 .000810626377322009 -.00818876029417484 -.000935449
620311258 5.89013463291136 -.002874550379688705 -.00463558238294278 -.0002550305
63195112 .01580051285823685 -.003554969436804885 -.001086001923451594 -.00103711
9587563508 .4193502160643755 -.00277288041243649 .00610385922312619 -.0056481552
8626571 .921282459291142 .00183815528626571 .01026548778619154 -.009148094608726
04 1.068583250192098 .00533809460872605 40 4 145 0 1 4 .000951631383659201 .3914
744511493625 ??-.00476591100210652 .00608883158352728 .0082552 -.006849782900602
19 .00734433137381522 .00464582799534048 -.00838771879502521 .00700228034333691
 .001982044887415935 -.00953216841437456 .00608883158352728 -2000000000001425e-2
2 41 1 146 L?-.00476591100210652 .00608883158352728 .0082552 41 1 147 L?-.009532
16841437456 .00608883158352728 -2000000000001425e-22 204 16 148 4 -.009532283884
4284 -.00153116841647272 3.665170447603285 -.00227883158352728 -.005364540087437
05 -.000275668626184781 4.11641368468915 -.003534331373815215 -.0022886682985910
25 -.000617719656663092 4.48034237087814 -.003192280343336905 230940107675542e-2
1 -.00153116841647272 4.7124099619695 -.002278831583527285 40 7 138 0 1 7 .00155
926398713416 .381571581124396 ??.0150315142583519 -.001528094608726045 .008255 .
00954779699243289 .002999373622677995 .008255 .003422733822014475 .0066845503796
8874 .008255 -.0001304440892175916 .00736496943680489 .008255 -.0036800245487087
75 .00658288041243649 .008255 -.01086988569528656 .00197184471373428 .008255 -.0
150315142583519 -.001528094608726045 .008255 41 1 139 L?.0150315142583519 -.0015
28094608726045 .008255 41 1 140 L?-.0150315142583519 -.001528094608726045 .00825
5 204 28 141 4 -.01979754073051225 -.00914809460872604 2.073009403397695 .005338
09460872605 -.01431382346459324 -.004620626377322 2.283704099406545 .00081062637
7322005 -.00818876029417483 -.000935449620311258 2.74854197932157 -.002874550379
688705 -.00463558238294277 -.0002550305631951135 3.15739316644803 -.003554969436
804885 -.001086001923451584 -.001037119587563512 3.56094286965417 -.002772880412
436485 .0061038592231262 -.00564815528626572 4.062875112880935 .0018381552862657
2 .01026548778619154 -.00914809460872604 4.21017590378189 .00533809460872604 40
 4 130 0 1 4 .000951631383659193 .3914744511493615 ??.00953216841437456 .0060888
3158352728 -200000000001846e-21 .00744829651587889 .00734433137381522 .003609172
00465951 .00591036062145588 .00700228034333691 .00627295511258405 .0047659110021
0652 .00608883158352728 .0082552 41 1 131 L?.00953216841437456 .0060888315835272
8 -200000000001846e-21 41 1 132 L?.00476591100210652 .00608883158352728 .0082552
 204 16 133 4 -.0095322838844284 -.00153116841647272 1.57077534521009 -.00227883
158352728 -.00536454008743706 -.0002756686261847845 2.02201858229595 -.003534331
37381521 -.002288668298591035 -.000617719656663091 2.38594726848494 -.0031922803
4333691 2309401076763875e-22 -.00153116841647272 2.6180148595763 -.0022788315835
2728 141 122 7 277 278 23 141 277 168 279 122 23 141 278 153 122 280 23 141 280
 175 278 281 23 141 281 167 280 279 23 141 279 165 281 277 23 141 115 21 282 282
 22 141 282 7 115 115 22 19 17 142 0 1 0 9 5 S0 40 4 24 0 1 4 .00095163138365919
5 .391474451149362 ??.00953216841437456 .001531168416472715 1999999999982415e-22
 .00744829651587889 .000275668626184781 -.003609172004659515 .00591036062145588
 .000617719656663088 -.00627295511258406 .00476591100210652 .001531168416472715
 -.0082552 41 1 25 L?.00953216841437456 .001531168416472715 1999999999982415e-22
 41 1 26 L?.00476591100210652 .001531168416472715 -.0082552 204 16 27 4 23094010
76759895e-22 -.00608883158352728 1.57077534521009 .001531168416472715 -.00416751
285688366 -.00734433137381522 2.02201858229595 .000275668626184781 -.00724338464
572969 -.00700228034333691 2.38594726848494 .000617719656663088 -.00953228388442
84 -.00608883158352728 2.6180148595763 .001531168416472715 141 20 88 283 283 6 1
41 283 168 20 20 6 74 4 CI16 index_map_offset0 0 1 dCCZ20 15 9 0 0 284 285 254 2
86 287 288 13 259 2 0 0 0 0 0 0 0 0 0 0 0 81 2 284 157 289 1 0 285 0 0 0 290 81
 2 285 218 291 1 284 286 0 0 0 292 81 1 286 521 293 1 285 287 0 0 294 81 2 287 5
34 295 1 286 288 0 0 296 0 81 2 288 579 297 1 287 13 0 0 0 298 81 2 13 582 299 1
 288 2 0 0 0 0 80 2 299 300 301 9000 0 0 0 0 3 5 0 0 0 FFTFFFFFFFFFFF9 1 79 16 3
01 BODY_RECIPE_200180 2 297 302 303 9000 0 0 0 0 3 5 0 0 0 FFTFFFFFFFFFFF9 1 82
 1 298 1 79 24 303 BODY_IN_LIGHTWEIGHT_PERM80 2 295 304 305 8004 0 0 0 0 3 5 0 0
 0 FFTFFFFFFFFFFF2 3 83 1 296 1 79 16 305 SDL/TYSA_DENSITY80 1 293 306 307 9000
 1 1 1 1 1 1 1 1 0 FFTFFFFFFFFFFF1 82 1 294 1257972 79 10 307 BODY_MATCH80 2 291
 308 309 9000 0 0 0 0 3 5 0 0 0 FFTFFFFFFFFFFF9 1 82 1 292 50 79 30 309 LAST_BOD
Y_MODIFYING_FEATURE_ID80 2 289 310 311 9000 0 0 0 0 3 5 0 0 0 FFTFFFFFFFFFFT9 1
 82 1 290 105 79 19 311 ENT_TIME_STAMP_200180 2 12 312 313 9000 0 0 0 0 3 5 0 0
 0 FFTFFFFFFFFFFF9 1 82 1 14 102 79 12 313 ATOM_ID_20011 0 
