**ABCDEFGHIJKLMNOPQRSTUVWXYZabcdefghijklmnopqrstuvwxyz**************************
**PARASOLID !"#$%&'()*+,-./:;<=>?@[\]^_`{|}~0123456789**************************
**PART1;
MC=AMD64;
MC_MODEL=Intel64 Family 6 Model 60 Stepping 3, GenuineIntel;
MC_ID=unknown;
OS=Windows_NT;
OS_RELEASE=unknown;
FRU=Parasolid Version 31.0, build 282,  2-25-2019;
APPL=SOLIDWORKS 2019-2019115;
SITE=;
USER=unknown;
FORMAT=text;
GUISE=transmit;
KEY=Spindle-Base;
FILE=Spindle-Base.x_t;
DATE=Tue Nov 12 16:23:35 2019;
**PART2;
SCH=SCH_3100282_31001;
USFLD_SIZE=0;
**PART3;
**END_OF_HEADER*****************************************************************
T51 : TRANSMIT FILE created by modeller version 310028223 SCH_3100282_31001_1300
6215 0 12 34 CCCCCCI4 mesh1006 0 I8 polyline1008 0 CCCCCCCDI5 owner1040 0 CCCCCC
I13 boundary_mesh1006 0 I17 boundary_polyline1008 0 CCCA16 index_map_offset0 0 1
 dA9 index_map82 0 A17 node_id_index_map82 0 A20 schema_embedding_map82 0 A5 chi
ld12 0 A14 lowest_node_id0 0 1 dA16 mesh_offset_data206 0 Z1 1028 2 3 0 0 0 0 0
 0 1e3 1e-8 0 4 0 1 0 1 1 5 6 7 8 0 0 9 10 11 0 0 0 0 0 0 0 81 255 2 2 1011 12 1
 13 0 0 0 0 14 70 11 CI9 list_type0 0 1 uI10 notransmit0 0 1 lCCCDCCDI12 finger_
index0 0 1 dI12 finger_block1012 0 CZ3 0 4 T1 0 0 8 20 1 15 15 13 255 5 62 0 1 0
 16 0 0 17 0 52 255 6 383 0 18 19 0 0 +0 -.2286 2139922160430265e-49 0 1 6739912
31631579e-47 .01143 .707106781186548 .707106781186548 0 -673991231631579e-47 1 3
1 255 7 353 0 10 20 0 0 +0 -.22733 222551904684748e-48 0 1 673991231631579e-47 0
 -673991231631579e-47 1 .0127 29 255 8 409 0 11 21 0 -.01063190520712696 -.00411
8810414253905 .018415 19 8 CCCCCCCA5 owner12 0 Z9 66 0 1 17 0 22 V0 16 255 10 35
0 0 ?23 0 24 7 0 0 1 18 255 11 407 0 25 0 26 8 ?1 17 255 25 0 27 28 29 11 30 31
 0 32 +18 26 404 0 33 11 34 21 ?1 17 33 0 35 36 37 26 38 39 0 40 +18 34 37 0 41
 26 42 43 ?1 29 21 406 0 26 43 8 .01063190520712696 -.02763118958574605 .018415
 29 43 39 0 34 44 21 0 -.26035 0 29 44 632 0 42 45 43 .0212638104142539 -.004118
81041425391 688177820620081e-32 18 42 534 0 46 34 47 44 ?1 29 45 633 0 47 48 44
 .01063190520712694 -.004118810414253915 -.018415 18 47 535 0 49 42 50 45 ?1 29
 48 634 0 50 51 45 -.01063190520712696 -.00411881041425392 -.018415 18 50 536 0
 52 47 53 48 ?1 29 51 635 0 53 54 48 -.0212638104142539 -.00411881041425391 -319
98718862924e-31 18 53 537 0 29 50 55 51 ?1 29 54 636 0 55 56 51 .010631905207126
96 -.004118810414253905 .018415 18 55 522 0 28 53 57 54 ?1 29 56 638 0 57 58 54
 .0212638104142539 -.02763118958574605 727024467755761e-32 18 57 523 0 37 55 59
 56 ?1 29 58 639 0 59 60 56 .01063190520712694 -.02763118958574605 -.018415 18 5
9 524 0 61 57 62 58 ?1 29 60 640 0 62 63 58 -.01063190520712696 -.02763118958574
605 -.018415 18 62 525 0 64 59 65 60 ?1 29 63 641 0 65 66 60 -.0212638104142539
 -.02763118958574605 -259894604667788e-32 18 65 526 0 67 62 68 63 ?1 29 66 642 0
 68 0 63 -.01063190520712696 -.0276311895857461 .018415 18 68 527 0 36 65 0 66 ?
1 17 36 0 35 67 33 68 40 69 0 70 +15 255 35 559 0 33 71 0 17 67 0 35 64 36 65 70
 72 0 73 +17 40 0 74 75 76 26 36 69 0 77 -16 69 499 0 ?36 72 78 79 0 0 1 17 70 0
 80 81 82 68 67 72 0 76 -15 80 432 0 70 83 0 17 81 0 80 30 70 11 76 84 0 0 -17 8
2 0 80 70 30 65 85 86 0 0 +16 72 500 0 ?67 87 69 88 0 0 1 17 76 0 74 40 32 68 81
 84 0 0 +15 74 418 0 40 89 0 17 32 0 74 76 75 11 28 90 0 81 -16 84 408 0 ?76 86
 91 92 0 0 1 16 86 422 0 ?82 93 84 94 0 0 1 16 91 402 0 ?77 84 95 96 0 0 1 30 25
5 92 283 0 84 96 94 0 +-.01063190520712696 0 .018415 0 -1 0 30 96 284 0 91 97 92
 0 +.01063190520712696 0 .018415 0 -1 0 30 94 282 0 86 92 98 0 +-.02126381041425
39 0 -3469446951953615e-33 0 -1 0 30 98 281 0 93 94 99 0 +-.01063190520712696 0
 -.018415 0 -1 0 16 93 436 0 ?100 101 86 98 0 0 1 30 99 280 0 101 98 102 0 +.010
63190520712694 0 -.018415 0 -1 0 16 101 450 0 ?103 104 93 99 0 0 1 30 102 279 0
 104 99 105 0 +.0212638104142539 0 693889390390723e-32 0 -1 0 16 104 464 0 ?106
 107 101 102 0 0 1 31 105 116 0 107 102 108 0 +0 -.250825 641976648129087e-49 0
 -1 -673991231631579e-47 0 673991231631579e-47 -1 .009525 16 107 68 0 ?109 110 1
04 105 0 0 1 31 108 117 0 110 105 111 0 +0 -.2286 2139922160430265e-49 0 -1 -673
991231631579e-47 0 673991231631579e-47 -1 .009525 16 110 70 0 ?112 113 107 108 0
 0 1 31 111 119 0 113 108 114 0 +0 -.04445 145514706909258e-47 0 -1 -67399123163
1579e-47 0 673991231631579e-47 -1 .0127 16 113 80 0 ?115 116 110 111 0 0 1 31 11
4 335 0 116 111 117 0 -0 -.04445 1455147069092578e-48 0 1 673991231631579e-47 0
 -673991231631579e-47 1 .015875 16 116 332 0 ?118 119 113 114 0 0 1 31 117 341 0
 119 114 20 0 +0 -.04318 14637067577343e-46 0 1 67399123163158e-46 0 -6739912316
3158e-46 1 .017145 16 119 338 0 ?120 24 116 117 0 0 1 31 20 347 0 24 117 7 0 -0
 -.2286 2139922160430265e-49 0 1 673991231631579e-47 0 -673991231631579e-47 1 .0
1143 16 24 344 0 ?121 10 119 20 0 0 1 17 121 0 122 121 121 0 123 24 0 0 +15 122
 345 0 121 124 125 17 123 0 126 123 123 0 121 24 0 0 -15 126 378 0 123 18 0 14 2
55 18 376 127 ?71 128 129 5 6 +0 0 71 128 22 81 1 127 1012 130 18 131 0 0 132 13
3 14 71 555 132 ?89 18 134 5 135 +0 0 89 18 22 14 128 363 136 ?18 137 138 5 19 +
0 0 18 137 22 15 129 377 0 139 18 126 13 22 65 0 0 0 0 0 0 9 16 14 16 106 140 ?1
41 0 142 5 143 -0 0 141 0 22 81 1 140 1015 130 16 144 0 136 145 146 14 141 93 14
5 ?147 16 148 5 149 -0 0 147 16 22 15 142 156 0 41 16 150 52 143 115 0 16 149 19
 0 -0 -.250825 641976648129087e-49 0 1 673991231631579e-47 .009525 .707106781186
543 .707106781186552 0 -673991231631579e-47 1 51 255 149 113 0 141 151 143 0 -0
 -.26035 0 0 -1 -673991231631579e-47 .017145 0 673991231631579e-47 -1 52 19 370
 0 128 143 6 0 +0 -.04445 145514706909258e-47 0 1 67399123163158e-46 .015875 .70
710678118655 .707106781186546 0 -67399123163158e-46 1 50 255 151 112 0 147 152 1
49 0 +0 -.04445 .017145 0 1 673991231631579e-47 0 -673991231631579e-47 1 14 147
 88 153 ?154 141 155 5 151 -0 0 154 141 22 51 152 111 0 154 156 151 0 -0 -.26035
 0 0 -1 -673991231631579e-47 .0127 0 673991231631579e-47 -1 14 154 83 157 ?124 1
47 158 5 152 -0 0 124 147 22 50 156 110 0 124 159 152 0 +0 -.2286 .0127 0 1 6739
91231631579e-47 0 -673991231631579e-47 1 14 124 78 160 ?137 154 122 5 156 -0 0 1
37 154 22 51 159 109 0 137 161 156 0 -0 -.26035 0 0 -1 -673991231631579e-47 .009
525 0 673991231631579e-47 -1 14 137 73 162 ?128 124 163 5 159 -0 0 128 124 22 50
 161 271 0 164 165 159 166 +.01063190520712696 0 .018415 -.866025403784439 0 -.5
 -.5 0 .866025403784439 14 164 483 167 ?168 169 170 5 161 -0 0 168 169 22 50 165
 272 0 169 171 161 172 +.0212638104142539 0 693889390390723e-32 -.86602540378443
9 0 .5 .5 0 .866025403784439 141 255 166 173 174 174 161 38 12 CCCCCCCCCCCA17 in
tersection_data204 0 Z173 609 0 39 175 176 0 +161 135 177 178 179 180 141 174 97
 166 166 161 38 97 603 0 95 181 96 0 +161 182 183 184 185 186 16 95 504 0 ?46 91
 187 97 0 0 1 38 181 604 0 187 188 97 0 +165 182 189 190 191 192 52 182 589 0 16
8 0 135 193 +0 -.00127 693889390390723e-32 0 -1 0 .018415 .707106781186549 .7071
06781186547 0 0 -1 40 255 4 183 0 1 4 .002122774813296095 .3914691810293595 ??.0
1063178973707312 -.004118925885248305 .0184152 .01528031058424845 -.001318333994
653326 .01036372571264922 .0187110845368341 -.002081385847587115 .00442145091748
699 .02126392588430775 -.00411892588524831 -199999999995135e-21 41 3 CI8 term_us
e0 0 1 cCZ1 184 L?.01063178973707312 -.004118925885248305 .0184152 41 1 185 L?.0
2126392588430775 -.00411892588524831 -199999999995135e-21 204 2 17 INTERSECTION_
DATA17 Intersection data7 uv_type0 0 1 u6 values0 1 1 fT16 186 4 230940107674885
e-21 -.004118925885248305 2.618003283592375 .002848925885248305 -.00929681075424
297 -.001318333994653326 2.166768851054075 483339946533364e-19 -.016158358659414
25 -.002081385847587115 1.80284099019969 .000811385847587118 -.0212640413543616
 -.00411892588524831 1.570786921194015 .00284892588524831 14 168 550 194 ?195 16
4 196 5 182 +0 0 195 164 22 52 135 588 0 71 182 197 198 +0 -.03048 6938893903907
23e-32 0 1 0 .018415 .707106781186548 .707106781186547 0 0 1 141 193 176 199 200
 182 38 176 608 0 90 173 201 0 +202 182 203 204 205 206 141 199 97 207 193 182 1
41 200 201 193 208 182 38 201 607 0 31 176 209 0 +210 182 211 212 213 214 141 20
8 209 200 215 182 38 209 606 0 216 201 188 0 +217 182 218 219 220 221 141 215 18
8 208 207 182 38 188 605 0 222 209 181 0 +171 182 223 224 225 226 141 207 181 21
5 199 182 16 222 506 0 ?52 187 216 188 0 0 1 50 171 273 0 227 217 165 228 +.0106
3190520712694 0 -.018415 163162052537297e-30 0 1 1 0 -163162052537297e-30 40 7 2
23 0 1 7 .00410519378241869 .39921292633638 ??.0371682175511259 -.02433497855505
495 -.018415 .0238052730515187 -.01295156541961826 -.018415 .01023160492602084 -
.003921512866684275 -.018415 .00307298897109546 -.00152464076291975 -.018415 -.0
045640014178506 -.00182714626609606 -.018415 -.01334328170907182 -.0055960508061
4461 -.018415 -.0371682175511259 -.02433497855505495 -.018415 41 1 224 L?.037168
2175511259 -.02433497855505495 -.018415 41 1 225 L?-.0371682175511259 -.02433497
855505495 -.018415 204 28 226 4 .02653631234399895 -.02433497855505495 1.1107951
9562682 .02306497855505495 .01317336784439178 -.01295156541961826 .9123814628396
46 .01168156541961826 -.000400300281106098 -.003921512866684275 .507142048135607
 .00265151286668428 -.00755891623603149 -.00152464076291975 .1653506254829965 .0
002546407629197515 -.01519590662497755 -.00182714626609606 6.04023919297335 .000
557146266096058 -.0239751869161988 -.00559605080614461 5.65614744575891 .0043260
50806144615 -.0478001227582529 -.02433497855505495 5.17239011155277 .02306497855
505495 14 227 461 229 ?169 230 231 5 171 -0 0 169 230 22 50 217 274 0 230 210 17
1 232 +-.01063190520712696 0 -.018415 .866025403784439 0 .5 .5 0 -.8660254037844
39 141 228 233 234 234 171 38 233 611 0 235 236 175 0 +171 135 237 238 239 240 1
41 234 188 228 228 171 16 235 502 0 ?61 241 87 233 0 0 1 38 236 612 0 87 88 233
 0 +217 135 242 243 244 245 38 175 610 0 241 233 173 0 +165 135 246 247 248 249
 40 7 237 0 1 7 .004105193782418705 .39921292633638 ??-.03716821755112585 -.0074
1502144494503 -.018415 -.0238052730515187 -.0187984345803817 -.018415 -.01023160
492602086 -.0278284871333157 -.018415 -.00307298897109548 -.03022535923708025 -.
018415 .00456400141785057 -.02992285373390395 -.018415 .01334328170907178 -.0261
539491938554 -.018415 .03716821755112585 -.00741502144494504 -.018415 41 1 238 L
?-.03716821755112585 -.00741502144494503 -.018415 41 1 239 L?.03716821755112585
 -.00741502144494504 -.018415 204 28 240 4 -.0478001227582528 -.0074150214449450
3 4.25238784921661 .02306497855505495 -.03443717825864565 -.0187984345803817 4.0
5397411642944 .01168156541961826 -.0208635101331478 -.0278284871333157 3.6487347
017254 .00265151286668429 -.01370489417822242 -.03022535923708025 3.306943279072
79 .0002546407629197515 -.00606790378927637 -.02992285373390395 2.89864653938355
5 .000557146266096056 .002711376501944835 -.0261539491938554 2.514554792169125 .
004326050806144595 .0265363123439989 -.00741502144494504 2.030797457962975 .0230
6497855505495 16 241 497 0 ?37 39 235 175 0 0 1 40 4 246 0 1 4 .0021227748132961
1 .3914691810293605 ??.0106317897370731 -.02763107411475165 -.0184152 .015280310
58424845 -.03043166600534665 -.0103637257126492 .0187110845368341 -.029668614152
41285 -.00442145091748699 .02126392588430775 -.02763107411475165 200000000008285
5e-22 41 1 247 L?.0106317897370731 -.02763107411475165 -.0184152 41 1 248 L?.021
26392588430775 -.02763107411475165 2000000000082855e-22 204 16 249 4 -.021264041
3543616 -.02763107411475165 2.618003283592375 .002848925885248315 -.011966999660
01094 -.03043166600534665 2.166768851054075 483339946533364e-19 -.00510545175483
967 -.0296686141524129 1.80284099019969 .000811385847587115 2309401076770795e-22
 -.02763107411475165 1.570786921194015 .002848925885248315 17 37 0 35 33 61 57 2
50 241 0 38 +16 39 498 0 ?33 90 241 173 0 0 1 16 90 503 0 ?28 31 39 176 0 0 1 17
 28 0 27 46 25 55 32 90 0 251 +16 31 508 0 ?25 216 90 201 0 0 1 16 216 507 0 ?29
 222 31 209 0 0 1 17 29 0 27 25 52 53 252 216 0 30 +15 27 554 0 46 168 0 17 52 0
 27 29 49 50 253 222 0 252 +17 252 0 254 100 85 50 29 216 0 255 -17 30 0 80 82 8
1 53 25 31 0 85 -17 85 0 254 252 73 53 82 86 0 0 -15 254 446 0 73 230 0 17 73 0
 254 85 100 65 64 87 0 82 -17 100 0 254 73 252 62 255 93 0 0 +17 64 0 35 61 67 6
2 73 87 0 256 +16 87 501 0 ?64 235 72 236 0 0 1 17 61 0 35 37 64 59 256 235 0 25
0 +17 256 0 231 255 103 62 61 235 0 100 -15 231 460 0 256 227 0 17 255 0 231 253
 256 50 100 93 0 0 -17 103 0 231 256 253 59 257 101 0 0 +17 253 0 231 103 255 47
 52 222 0 257 -17 257 0 258 259 250 47 103 101 0 0 -15 258 474 0 250 169 0 17 25
9 0 258 106 257 42 49 187 0 260 -17 250 0 258 257 106 59 37 241 0 103 -17 106 0
 258 250 259 57 260 104 0 0 +17 260 0 170 251 38 42 106 104 0 0 -15 170 482 0 38
 164 0 17 251 0 170 77 260 55 46 95 0 75 -17 38 0 170 260 77 57 33 39 0 106 -17
 77 0 170 38 251 26 75 91 0 0 +17 75 0 74 32 40 55 77 91 0 0 -17 46 0 27 49 28 4
2 251 95 0 259 +17 49 0 27 52 46 47 259 187 0 253 +16 187 505 0 ?49 95 222 181 0
 0 1 14 169 475 261 ?164 227 258 5 165 -0 0 164 227 22 81 1 261 1024 130 169 262
 0 229 263 264 80 255 1 130 265 266 9000 1 1 1 1 1 1 1 1 0 FFFFTFTFFFFFFF1 81 1
 262 970 267 169 0 261 268 269 270 81 1 229 1023 130 227 268 0 194 261 271 81 1
 263 1025 130 195 272 0 261 273 274 82 255 1 264 -1439891292 14 195 399 263 ?0 1
68 275 5 197 +0 0 0 168 22 81 1 272 973 267 195 0 263 276 0 277 81 1 273 1026 13
0 89 278 0 263 279 280 82 1 274 -1455816540 14 89 419 273 ?83 71 74 5 202 -0 0 8
3 71 22 81 1 278 966 267 89 0 273 281 282 283 81 1 279 1027 130 83 282 0 273 284
 285 82 1 280 -1451032412 14 83 433 279 ?230 89 80 5 210 -0 0 230 89 22 81 1 282
 967 267 83 0 279 278 286 287 81 1 284 1028 130 230 286 0 279 0 288 82 1 285 -14
44216668 14 230 447 284 ?227 83 254 5 217 -0 0 227 83 22 81 1 286 968 267 230 0
 284 282 268 289 82 1 288 -1442774876 80 1 267 0 290 8001 0 0 0 0 3 5 0 0 0 FFFF
TFTFFFFFFF2 81 1 268 969 267 227 0 229 286 262 291 83 255 3 289 .2 .2 .2 83 3 29
1 .2 .2 .2 79 255 15 290 SDL/TYSA_COLOUR83 3 287 .2 .2 .2 50 210 275 0 83 202 21
7 292 +-.0212638104142539 0 -3469446951953615e-33 .866025403784439 0 -.5 -.5 0 -
.866025403784439 50 202 276 0 89 197 210 293 +-.01063190520712696 0 .018415 0 0
 -1 -1 0 0 141 292 88 294 294 210 38 88 613 0 72 79 236 0 +210 135 295 296 297 2
98 141 294 201 292 292 210 38 79 614 0 69 299 88 0 +202 135 300 301 302 303 40 4
 295 0 1 4 .002122774813296105 .3914691810293605 ??-.01063178973707312 -.0276310
7411475165 .0184152 -.01528031058424845 -.03043166600534665 .01036372571264922 -
.0187110845368341 -.02966861415241285 .00442145091748699 -.02126392588430775 -.0
2763107411475165 -2000000000047695e-22 41 1 296 L?-.01063178973707312 -.02763107
411475165 .0184152 41 1 297 L?-.02126392588430775 -.02763107411475165 -200000000
0047695e-22 204 16 298 4 -.0212640413543616 -.02763107411475165 5.75959593718217
 .002848925885248305 -.01196699966001094 -.03043166600534665 5.30836150464387 48
3339946533329e-19 -.00510545175483967 -.02966861415241285 4.94443364378948 .0008
11385847587112 2309401076770395e-22 -.02763107411475165 4.71237957478381 .002848
92588524831 31 299 617 0 78 304 79 0 +0 -.03175 693889390390723e-32 0 -1 0 0 0 -
1 .017145 40 7 300 0 1 7 .00410519378241878 .3992129263363805 ??.037168217551125
85 -.00741502144494504 .018415 .0238052730515187 -.0187984345803817 .018415 .010
2316049260209 -.0278284871333157 .018415 .00307298897109554 -.03022535923708025
 .018415 -.00456400141785051 -.02992285373390395 .018415 -.01334328170907166 -.0
2615394919385545 .018415 -.03716821755112585 -.00741502144494505 .018415 41 1 30
1 L?.03716821755112585 -.00741502144494504 .018415 41 1 302 L?-.0371682175511258
5 -.00741502144494505 .018415 204 28 303 4 -.0478001227582528 -.0074150214449450
4 1.11079519562682 .02306497855505495 -.0344371782586457 -.0187984345803817 .912
381462839646 .01168156541961826 -.02086351013314785 -.0278284871333157 .50714204
813561 .0026515128666843 -.0137048941782225 -.03022535923708025 .165350625483001
 .0002546407629197485 -.00606790378927645 -.02992285373390395 6.04023919297335 .
000557146266096024 .002711376501944705 -.02615394919385545 5.65614744575892 .004
32605080614451 .0265363123439989 -.00741502144494505 5.17239011155277 .023064978
55505495 16 78 488 0 ?305 69 306 299 0 0 1 31 304 619 0 306 0 299 0 +0 0 6938893
90390723e-32 0 -1 0 0 0 -1 .017145 16 306 487 0 ?307 78 0 304 0 0 1 17 307 0 196
 307 307 0 308 306 0 0 +15 196 553 0 307 168 27 17 308 0 275 308 308 0 307 306 0
 0 -15 275 396 0 308 195 0 17 305 0 309 305 305 0 310 78 0 0 +15 309 92 0 305 14
1 0 17 310 0 134 310 310 0 305 78 0 0 -15 134 558 0 310 71 35 50 197 278 0 195 1
35 202 0 +0 0 0 0 1 0 0 0 1 141 293 79 311 311 202 141 311 176 293 293 202 81 1
 281 965 267 71 0 132 131 278 312 83 3 283 .2 .2 .2 81 1 132 1013 130 71 281 0 1
27 136 313 81 1 131 964 267 18 0 127 314 281 315 83 3 312 .2 .2 .2 81 1 314 963
 267 128 0 136 316 131 317 83 3 315 .2 .2 .2 81 1 136 1014 130 128 314 0 132 140
 318 81 1 316 962 267 137 0 162 319 314 320 83 3 317 .2 .2 .2 81 1 162 1020 130
 137 316 0 160 167 321 81 1 319 961 267 124 0 160 322 316 323 83 3 320 .2 .2 .2
 81 1 160 1019 130 124 319 0 157 162 324 81 1 322 960 267 154 0 157 325 319 326
 83 3 323 .2 .2 .2 81 1 157 1018 130 154 322 0 153 160 327 81 1 325 959 267 147
 0 153 328 322 329 83 3 326 .2 .2 .2 81 1 153 1017 130 147 325 0 145 157 330 81
 1 328 958 267 141 0 145 144 325 331 83 3 329 .2 .2 .2 81 1 145 1016 130 141 328
 0 140 153 332 81 1 144 957 267 16 0 140 0 328 333 83 3 331 .2 .2 .2 83 3 333 .2
 .2 .2 82 1 332 -1925250910 82 1 330 -1925840734 82 1 327 -1926430558 82 1 324 -
1927020382 81 1 167 1021 130 164 269 0 162 194 334 82 1 321 -1927610216 81 1 269
 971 267 164 0 167 262 276 335 81 1 194 1022 130 168 276 0 167 229 336 82 1 334
 -1439104860 81 1 276 972 267 168 0 194 269 272 337 82 1 336 -1453195100 83 3 33
7 .2 .2 .2 83 3 335 .2 .2 .2 82 1 318 -1504247646 82 1 313 -1456406364 83 3 277
 .2 .2 .2 82 1 271 -1441333084 83 3 270 .2 .2 .2 79 14 266 SWEntUnchanged40 4 24
2 0 1 4 .0021227748132961 .3914691810293605 ??-.02126392588430775 -.027631074114
75165 1999999999965305e-22 -.01661540503713245 -.03043166600534665 -.00805127428
735079 -.0131846310845468 -.02966861415241285 -.01399354908251302 -.010631789737
07312 -.02763107411475165 -.0184152 41 1 243 L?-.02126392588430775 -.02763107411
475165 1999999999965305e-22 41 1 244 L?-.01063178973707312 -.02763107411475165 -
.0184152 204 16 245 4 -.0212640413543616 -.0276310741147517 4.71239838598557 .00
2848925885248305 -.01196699966001094 -.03043166600534665 4.26116395344727 483339
946533433e-19 -.00510545175483966 -.02966861415241285 3.897236092592885 .0008113
85847587126 230940107674885e-21 -.02763107411475165 3.665182023587215 .002848925
88524832 141 232 236 338 338 217 141 338 209 232 232 217 40 4 218 0 1 4 .0021227
7481329611 .391469181029361 ??-.01063178973707312 -.004118925885248315 -.0184152
 -.01528031058424845 -.00131833399465333 -.0103637257126492 -.0187110845368341 -
.002081385847587125 -.004421450917486965 -.02126392588430775 -.00411892588524830
5 1999999999958825e-22 41 1 219 L?-.01063178973707312 -.004118925885248315 -.018
4152 41 1 220 L?-.02126392588430775 -.004118925885248305 1999999999958825e-22 20
4 16 221 4 230940107674885e-21 -.00411892588524832 5.75959593718217 .00284892588
5248315 -.009296810754243 -.001318333994653332 5.30836150464387 483339946533433e
-19 -.0161583586594143 -.002081385847587125 4.94443364378948 .000811385847587125
 -.0212640413543616 -.004118925885248305 4.71237957478381 .002848925885248305 40
 4 211 0 1 4 .00212277481329611 .3914691810293605 ??-.02126392588430775 -.004118
925885248305 -200000000003557e-21 -.0166154050371324 -.001318333994653322 .00805
12742873508 -.01318463108454678 -.002081385847587115 .01399354908251304 -.010631
78973707312 -.0041189258852483 .0184152 41 1 212 L?-.02126392588430775 -.0041189
25885248305 -200000000003557e-21 41 1 213 L?-.01063178973707312 -.00411892588524
83 .0184152 204 16 214 4 2309401076759895e-22 -.004118925885248305 4.71239838598
557 .002848925885248305 -.00929681075424299 -.001318333994653322 4.2611639534472
7 483339946533329e-19 -.0161583586594143 -.002081385847587115 3.897236092592885
 .000811385847587118 -.0212640413543616 -.0041189258852483 3.665182023587215 .00
2848925885248305 40 7 203 0 1 7 .004105193782418735 .3992129263363805 ??-.037168
2175511259 -.02433497855505495 .018415 -.02380527305151875 -.01295156541961826 .
018415 -.0102316049260209 -.00392151286668428 .018415 -.00307298897109551 -.0015
2464076291974 .018415 .00456400141785055 -.00182714626609603 .018415 .0133432817
0907174 -.00559605080614456 .018415 .0371682175511259 -.02433497855505495 .01841
5 41 1 204 L?-.0371682175511259 -.02433497855505495 .018415 41 1 205 L?.03716821
75511259 -.02433497855505495 .018415 204 28 206 4 .02653631234399895 -.024334978
55505495 4.252387849216615 .02306497855505495 .0131733678443918 -.01295156541961
826 4.05397411642944 .01168156541961826 -.000400300281106065 -.00392151286668428
 3.648734701725405 .002651512866684285 -.00755891623603145 -.00152464076291974 3
.30694327907279 .0002546407629197445 -.0151959066249775 -.00182714626609603 2.89
8646539383555 .000557146266096034 -.0239751869161987 -.00559605080614456 2.51455
4792169125 .004326050806144555 -.0478001227582529 -.02433497855505495 2.03079745
7962975 .02306497855505495 141 198 79 339 340 135 141 339 173 341 198 135 141 34
0 88 198 342 135 141 342 236 340 343 135 141 343 233 342 341 135 141 341 175 343
 339 135 40 4 189 0 1 4 .00212277481329611 .391469181029361 ??.02126392588430775
 -.00411892588524831 2000000000070265e-22 .0166154050371324 -.001318333994653326
 -.0080512742873508 .01318463108454676 -.002081385847587125 -.01399354908251304
 .0106317897370731 -.004118925885248315 -.0184152 41 1 190 L?.02126392588430775
 -.00411892588524831 2000000000070265e-22 41 1 191 L?.0106317897370731 -.0041189
25885248315 -.0184152 204 16 192 4 2309401076759895e-22 -.00411892588524831 1.57
0805732395775 .00284892588524831 -.009296810754243 -.001318333994653326 1.119571
299857476 483339946533364e-19 -.0161583586594143 -.002081385847587125 .755643439
003091 .000811385847587121 -.0212640413543616 -.004118925885248315 .523589369997
419 .002848925885248315 40 4 177 0 1 4 .002122774813296105 .3914691810293605 ??.
02126392588430775 -.02763107411475165 -199999999993061e-21 .01661540503713245 -.
03043166600534665 .0080512742873508 .01318463108454678 -.02966861415241285 .0139
9354908251302 .01063178973707312 -.02763107411475165 .0184152 41 1 178 L?.021263
92588430775 -.02763107411475165 -199999999993061e-21 41 1 179 L?.010631789737073
12 -.02763107411475165 .0184152 204 16 180 4 -.0212640413543616 -.02763107411475
165 1.570805732395775 .002848925885248315 -.01196699966001094 -.0304316660053466
5 1.119571299857476 483339946533399e-19 -.00510545175483965 -.02966861415241285
 .755643439003093 .000811385847587119 230940107674885e-21 -.02763107411475165 .5
2358936999742 .002848925885248305 141 172 175 344 344 165 141 344 181 172 172 16
5 15 163 150 0 345 137 346 17 345 0 163 345 345 0 109 107 0 0 -15 346 72 0 112 1
37 0 17 112 0 346 112 112 0 347 110 0 0 +17 347 0 125 347 347 0 112 110 0 0 -15
 125 151 0 347 124 0 17 109 0 150 109 109 0 345 107 0 0 +15 150 105 0 109 16 0 1
5 158 351 0 23 154 348 17 23 0 158 23 23 0 139 10 0 0 +15 348 82 0 115 154 0 17
 115 0 348 115 115 0 349 113 0 0 +17 349 0 350 349 349 0 115 113 0 0 -15 350 153
 0 349 147 0 17 139 0 129 139 139 0 23 10 0 0 -15 155 333 0 118 147 350 17 118 0
 155 118 118 0 351 116 0 0 +17 351 0 352 351 351 0 118 116 0 0 -15 352 365 0 351
 128 0 17 41 0 142 41 41 34 0 0 0 0 ?15 148 339 0 120 141 309 17 120 0 148 120 1
20 0 353 119 0 0 +17 353 0 138 353 353 0 120 119 0 0 -15 138 364 0 353 128 352 8
2 1 146 -1923743592 82 1 133 -1503002462 19 17 61 0 1 0 9 5 S0 74 4 CI16 index_m
ap_offset0 0 1 dCCZ20 15 8 0 0 284 354 355 356 357 13 272 2 0 0 0 0 0 0 0 0 0 0
 0 0 81 2 354 309 358 1 0 355 0 0 0 359 81 2 355 319 360 1 354 356 0 0 0 361 81
 2 356 715 362 1 355 357 0 0 363 0 81 2 357 777 364 1 356 13 0 0 0 365 81 2 13 9
54 366 1 357 2 0 0 0 0 80 2 366 367 368 9000 0 0 0 0 3 5 0 0 0 FFTFFFFFFFFFFF9 1
 79 16 368 BODY_RECIPE_200180 2 364 369 370 9000 0 0 0 0 3 5 0 0 0 FFTFFFFFFFFFF
F9 1 82 1 365 1 79 24 370 BODY_IN_LIGHTWEIGHT_PERM80 2 362 371 372 8004 0 0 0 0
 3 5 0 0 0 FFTFFFFFFFFFFF2 3 83 1 363 73e2 79 16 372 SDL/TYSA_DENSITY80 2 360 37
3 374 9000 0 0 0 0 3 5 0 0 0 FFTFFFFFFFFFFF9 1 82 1 361 90 79 30 374 LAST_BODY_M
ODIFYING_FEATURE_ID80 2 358 375 376 9000 0 0 0 0 3 5 0 0 0 FFTFFFFFFFFFFT9 1 82
 1 359 152 79 19 376 ENT_TIME_STAMP_200180 2 12 377 378 9000 0 0 0 0 3 5 0 0 0 F
FTFFFFFFFFFFF9 1 82 1 14 103 79 12 378 ATOM_ID_20011 0 
